M48
METRIC,LZ,000.000
;FILE_FORMAT=3:3
;TYPE=PLATED
;Layer: PTH_Through
;EasyEDA v6.5.54, 2026-04-18 11:19:19
;80c0d0d825154b2e81aaa2e26132e95f,eb0817546e0d4687b5c27ca6143d63b0,10
;Gerber Generator version 0.2
;Holesize 1 = 0.901 mm
T01C0.901
;Holesize 2 = 0.915 mm
T02C0.915
%
G05
G90
T01
X033655Y-029718
X018415Y-032258
X018415Y-037339
X018415Y-042419
X018415Y-047499
X018415Y-052579
X018415Y-057659
X018415Y-062739
X033655Y-065278
X033655Y-060197
X033655Y-055117
X033655Y-050037
X033655Y-044957
X033655Y-039877
X033655Y-034798
X033655Y-032258
X033655Y-037338
X033655Y-042418
X033655Y-047498
X033655Y-052578
X033655Y-057658
X033655Y-062738
X018415Y-065278
X018415Y-060198
X018415Y-055118
X018415Y-050038
X018415Y-044958
X018415Y-039878
X018415Y-034798
X018415Y-029718
X044323Y-029210
X051172Y-029074
X066294Y-029210
X081534Y-029210
X097028Y-029210
X111886Y-028956
X109991Y-044204
X095005Y-044331
X079384Y-044204
X064017Y-044204
X076073Y-059944
X072517Y-059817
X060833Y-059944
X087630Y-059817
X091186Y-059944
X102997Y-059817
X106553Y-059944
X118110Y-059817
X127380Y-028956
X117983Y-011049
X121539Y-011176
X132969Y-011049
X106426Y-011176
X102870Y-011049
X091186Y-011176
X087630Y-011049
X075946Y-011176
X072390Y-011049
X045466Y-011176
X057277Y-011049
X060833Y-011176
X048804Y-002667
X053812Y-002667
X064079Y-002667
X069088Y-002667
X079284Y-002667
X084292Y-002667
X094524Y-002667
X099532Y-002667
X109637Y-002667
X114645Y-002667
X125004Y-002667
X130012Y-002667
X114808Y-068453
X109799Y-068453
X099532Y-068326
X094524Y-068326
X084419Y-068326
X079411Y-068326
X064171Y-068326
X069179Y-068326
X019903Y-003048
X014895Y-003048
X009870Y-003048
X004862Y-003048
X033655Y-032258
X033655Y-034798
X033655Y-037338
X033655Y-039878
X033655Y-042418
X033655Y-044958
X033655Y-047498
X033655Y-044958
X018415Y-029718
X018415Y-032258
X018415Y-034798
X018415Y-037338
X018415Y-039878
X018415Y-042418
X018415Y-044958
X018415Y-047498
X018415Y-050038
X018415Y-052578
X018415Y-055118
X018415Y-057658
X018415Y-060198
X018415Y-062738
X018415Y-065278
X033655Y-065278
X033655Y-062738
X033655Y-060198
X033655Y-057658
X033655Y-055118
X033655Y-052578
X033655Y-050038
X033655Y-047498
X033655Y-044958
X033655Y-042418
X033655Y-039878
X033655Y-037338
X033655Y-034798
X033655Y-032258
X033655Y-029718
X011684Y-067691
X009144Y-067691
X006604Y-067691
X004064Y-067691
X004064Y-027051
X006604Y-027051
X009144Y-027051
X011684Y-027051
T02
X011684Y-027051
X004064Y-027051
X006604Y-027051
X009144Y-027051
X006604Y-067691
X009144Y-067691
X011684Y-067691
X004064Y-067691
X031115Y-015534
X031115Y-020534
M30
