G04 Layer: BottomSolderMaskLayer*
G04 EasyEDA v6.5.54, 2026-04-18 11:19:19*
G04 80c0d0d825154b2e81aaa2e26132e95f,eb0817546e0d4687b5c27ca6143d63b0,10*
G04 Gerber Generator version 0.2*
G04 Scale: 100 percent, Rotated: No, Reflected: No *
G04 Dimensions in millimeters *
G04 leading zeros omitted , absolute positions ,4 integer and 5 decimal *
%FSLAX45Y45*%
%MOMM*%

%AMMACRO1*4,1,8,-0.8211,-0.8508,-0.8508,-0.821,-0.8508,0.8211,-0.8211,0.8508,0.821,0.8508,0.8508,0.8211,0.8508,-0.821,0.821,-0.8508,-0.8211,-0.8508,0*%
%AMMACRO2*4,1,8,-0.7831,-0.8128,-0.8128,-0.783,-0.8128,0.7831,-0.7831,0.8128,0.783,0.8128,0.8128,0.7831,0.8128,-0.783,0.783,-0.8128,-0.7831,-0.8128,0*%
%ADD10MACRO1*%
%ADD11C,1.7016*%
%ADD12MACRO2*%
%ADD13C,1.6256*%
%ADD14C,0.0147*%

%LPD*%
D10*
G01*
X3365500Y-2971800D03*
D11*
G01*
X1841500Y-3225800D03*
G01*
X1841500Y-3733800D03*
G01*
X1841500Y-4241800D03*
G01*
X1841500Y-4749800D03*
G01*
X1841500Y-5257800D03*
G01*
X1841500Y-5765800D03*
G01*
X1841500Y-6273800D03*
G01*
X3365500Y-6527800D03*
G01*
X3365500Y-6019800D03*
G01*
X3365500Y-5511800D03*
G01*
X3365500Y-5003800D03*
G01*
X3365500Y-4495800D03*
G01*
X3365500Y-3987800D03*
G01*
X3365500Y-3479800D03*
G01*
X3365500Y-3225800D03*
G01*
X3365500Y-3733800D03*
G01*
X3365500Y-4241800D03*
G01*
X3365500Y-4749800D03*
G01*
X3365500Y-5257800D03*
G01*
X3365500Y-5765800D03*
G01*
X3365500Y-6273800D03*
G01*
X1841500Y-6527800D03*
G01*
X1841500Y-6019800D03*
G01*
X1841500Y-5511800D03*
G01*
X1841500Y-5003800D03*
G01*
X1841500Y-4495800D03*
G01*
X1841500Y-3987800D03*
G01*
X1841500Y-3479800D03*
D10*
G01*
X1841500Y-2971800D03*
D12*
G01*
X1168400Y-2705105D03*
D13*
G01*
X406400Y-2705100D03*
G01*
X660400Y-2705100D03*
G01*
X914400Y-2705100D03*
G01*
X660400Y-6769100D03*
G01*
X914400Y-6769100D03*
G01*
X1168400Y-6769100D03*
D12*
G01*
X406400Y-6769094D03*
D13*
G01*
X3111500Y-1553413D03*
G01*
X3111500Y-2053412D03*
D11*
G01*
X4432300Y-2921000D03*
G01*
X5117236Y-2907436D03*
G01*
X6629400Y-2921000D03*
G01*
X8153400Y-2921000D03*
G01*
X9702800Y-2921000D03*
G01*
X11188598Y-2895600D03*
G01*
X10999063Y-4420362D03*
G01*
X9500463Y-4433062D03*
G01*
X7938363Y-4420362D03*
G01*
X6401663Y-4420362D03*
G01*
X7607300Y-5994400D03*
G01*
X7251700Y-5981700D03*
G01*
X6083300Y-5994400D03*
G01*
X8763000Y-5981700D03*
G01*
X9118600Y-5994400D03*
G01*
X10299700Y-5981700D03*
G01*
X10655300Y-5994400D03*
G01*
X11811000Y-5981700D03*
G01*
X12737998Y-2895600D03*
G01*
X11798300Y-1104900D03*
G01*
X12153900Y-1117600D03*
G01*
X13296900Y-1104900D03*
G01*
X10642600Y-1117600D03*
G01*
X10287000Y-1104900D03*
G01*
X9118600Y-1117600D03*
G01*
X8763000Y-1104900D03*
G01*
X7594600Y-1117600D03*
G01*
X7239000Y-1104900D03*
G01*
X4546600Y-1117600D03*
G01*
X5727700Y-1104900D03*
G01*
X6083300Y-1117600D03*
G01*
X4880356Y-266700D03*
G01*
X5381243Y-266700D03*
G01*
X6407911Y-266700D03*
G01*
X6908800Y-266700D03*
G01*
X7928356Y-266700D03*
G01*
X8429243Y-266700D03*
G01*
X9452356Y-266700D03*
G01*
X9953243Y-266700D03*
G01*
X10963656Y-266700D03*
G01*
X11464543Y-266700D03*
G01*
X12500356Y-266700D03*
G01*
X13001243Y-266700D03*
G01*
X11480800Y-6845300D03*
G01*
X10979911Y-6845300D03*
G01*
X9953243Y-6832600D03*
G01*
X9452356Y-6832600D03*
G01*
X8441943Y-6832600D03*
G01*
X7941056Y-6832600D03*
G01*
X6417056Y-6832600D03*
G01*
X6917943Y-6832600D03*
G01*
X1990343Y-304800D03*
G01*
X1489455Y-304800D03*
G01*
X987044Y-304800D03*
G01*
X486155Y-304800D03*
G01*
X3365500Y-3225800D03*
G01*
X3365500Y-3479800D03*
G01*
X3365500Y-3733800D03*
G01*
X3365500Y-3987800D03*
G01*
X3365500Y-4241800D03*
G01*
X3365500Y-4495800D03*
G01*
X3365500Y-4749800D03*
G01*
X3365500Y-4495800D03*
G01*
X1841500Y-2971800D03*
G01*
X1841500Y-3225800D03*
G01*
X1841500Y-3479800D03*
G01*
X1841500Y-3733800D03*
G01*
X1841500Y-3987800D03*
G01*
X1841500Y-4241800D03*
G01*
X1841500Y-4495800D03*
G01*
X1841500Y-4749800D03*
G01*
X1841500Y-5003800D03*
G01*
X1841500Y-5257800D03*
G01*
X1841500Y-5511800D03*
G01*
X1841500Y-5765800D03*
G01*
X1841500Y-6019800D03*
G01*
X1841500Y-6273800D03*
G01*
X1841500Y-6527800D03*
G01*
X3365500Y-6527800D03*
G01*
X3365500Y-6273800D03*
G01*
X3365500Y-6019800D03*
G01*
X3365500Y-5765800D03*
G01*
X3365500Y-5511800D03*
G01*
X3365500Y-5257800D03*
G01*
X3365500Y-5003800D03*
G01*
X3365500Y-4749800D03*
G01*
X3365500Y-4495800D03*
G01*
X3365500Y-4241800D03*
G01*
X3365500Y-3987800D03*
G01*
X3365500Y-3733800D03*
G01*
X3365500Y-3479800D03*
G01*
X3365500Y-3225800D03*
G01*
X3365500Y-2971800D03*
G01*
X1168400Y-6769100D03*
G01*
X914400Y-6769100D03*
G01*
X660400Y-6769100D03*
G01*
X406400Y-6769100D03*
G01*
X406400Y-2705100D03*
G01*
X660400Y-2705100D03*
G01*
X914400Y-2705100D03*
G01*
X1168400Y-2705100D03*
M02*
