G04 Layer: BottomSilkscreenLayer*
G04 EasyEDA v6.5.54, 2026-04-18 11:19:19*
G04 80c0d0d825154b2e81aaa2e26132e95f,eb0817546e0d4687b5c27ca6143d63b0,10*
G04 Gerber Generator version 0.2*
G04 Scale: 100 percent, Rotated: No, Reflected: No *
G04 Dimensions in millimeters *
G04 leading zeros omitted , absolute positions ,4 integer and 5 decimal *
%FSLAX45Y45*%
%MOMM*%

%ADD10C,0.1524*%
%ADD11C,0.1500*%
%ADD12C,0.2032*%
%ADD13C,0.1520*%
%ADD14C,0.2540*%
%ADD15C,0.0136*%

%LPD*%
D10*
X3658615Y-4826000D02*
G01*
X3580638Y-4826000D01*
X3565143Y-4820920D01*
X3554729Y-4810505D01*
X3549650Y-4794757D01*
X3549650Y-4784344D01*
X3554729Y-4768850D01*
X3565143Y-4758436D01*
X3580638Y-4753355D01*
X3658615Y-4753355D01*
X3658615Y-4656581D02*
G01*
X3658615Y-4708652D01*
X3611879Y-4713731D01*
X3616959Y-4708652D01*
X3622293Y-4692904D01*
X3622293Y-4677410D01*
X3616959Y-4661915D01*
X3606800Y-4651502D01*
X3591052Y-4646168D01*
X3580638Y-4646168D01*
X3565143Y-4651502D01*
X3554729Y-4661915D01*
X3549650Y-4677410D01*
X3549650Y-4692904D01*
X3554729Y-4708652D01*
X3559809Y-4713731D01*
X3570224Y-4719065D01*
D11*
X2004494Y-6573837D02*
G01*
X2004494Y-6478333D01*
X2004494Y-6573837D02*
G01*
X2036244Y-6573837D01*
X2049960Y-6569265D01*
X2059104Y-6560375D01*
X2063676Y-6551231D01*
X2068248Y-6537515D01*
X2068248Y-6514909D01*
X2063676Y-6501193D01*
X2059104Y-6492049D01*
X2049960Y-6482905D01*
X2036244Y-6478333D01*
X2004494Y-6478333D01*
X2098220Y-6555803D02*
G01*
X2107110Y-6560375D01*
X2120826Y-6573837D01*
X2120826Y-6478333D01*
X2159942Y-6573837D02*
G01*
X2209980Y-6573837D01*
X2182802Y-6537515D01*
X2196264Y-6537515D01*
X2205408Y-6532943D01*
X2209980Y-6528371D01*
X2214552Y-6514909D01*
X2214552Y-6505765D01*
X2209980Y-6492049D01*
X2200836Y-6482905D01*
X2187120Y-6478333D01*
X2173658Y-6478333D01*
X2159942Y-6482905D01*
X2155370Y-6487477D01*
X2150798Y-6496621D01*
X2013633Y-6319842D02*
G01*
X2063671Y-6319842D01*
X2036239Y-6283520D01*
X2049955Y-6283520D01*
X2059099Y-6278948D01*
X2063671Y-6274376D01*
X2068243Y-6260914D01*
X2068243Y-6251770D01*
X2063671Y-6238054D01*
X2054527Y-6228910D01*
X2040811Y-6224338D01*
X2027095Y-6224338D01*
X2013633Y-6228910D01*
X2009061Y-6233482D01*
X2004489Y-6242626D01*
X2098215Y-6319842D02*
G01*
X2134537Y-6224338D01*
X2170859Y-6319842D02*
G01*
X2134537Y-6224338D01*
X2209975Y-6319842D02*
G01*
X2260013Y-6319842D01*
X2232581Y-6283520D01*
X2246297Y-6283520D01*
X2255441Y-6278948D01*
X2260013Y-6274376D01*
X2264585Y-6260914D01*
X2264585Y-6251770D01*
X2260013Y-6238054D01*
X2250869Y-6228910D01*
X2237153Y-6224338D01*
X2223691Y-6224338D01*
X2209975Y-6228910D01*
X2205403Y-6233482D01*
X2200831Y-6242626D01*
X2004489Y-6065842D02*
G01*
X2004489Y-5970338D01*
X2004489Y-6065842D02*
G01*
X2045383Y-6065842D01*
X2059099Y-6061270D01*
X2063671Y-6056698D01*
X2068243Y-6047808D01*
X2068243Y-6038664D01*
X2063671Y-6029520D01*
X2059099Y-6024948D01*
X2045383Y-6020376D01*
X2004489Y-6020376D01*
X2036239Y-6020376D02*
G01*
X2068243Y-5970338D01*
X2098215Y-6065842D02*
G01*
X2098215Y-5970338D01*
X2098215Y-6065842D02*
G01*
X2157143Y-6065842D01*
X2098215Y-6020376D02*
G01*
X2134537Y-6020376D01*
X2098215Y-5970338D02*
G01*
X2157143Y-5970338D01*
X2187115Y-6065842D02*
G01*
X2187115Y-5970338D01*
X2187115Y-6065842D02*
G01*
X2246297Y-6065842D01*
X2187115Y-6020376D02*
G01*
X2223691Y-6020376D01*
X2040813Y-5811840D02*
G01*
X2004491Y-5716336D01*
X2040813Y-5811840D02*
G01*
X2077135Y-5716336D01*
X2018207Y-5748340D02*
G01*
X2063673Y-5748340D01*
X2134539Y-5811840D02*
G01*
X2120823Y-5807268D01*
X2111679Y-5793806D01*
X2107107Y-5770946D01*
X2107107Y-5757484D01*
X2111679Y-5734624D01*
X2120823Y-5720908D01*
X2134539Y-5716336D01*
X2143683Y-5716336D01*
X2157145Y-5720908D01*
X2166289Y-5734624D01*
X2170861Y-5757484D01*
X2170861Y-5770946D01*
X2166289Y-5793806D01*
X2157145Y-5807268D01*
X2143683Y-5811840D01*
X2134539Y-5811840D01*
X2040811Y-5557842D02*
G01*
X2004489Y-5462338D01*
X2040811Y-5557842D02*
G01*
X2077133Y-5462338D01*
X2018205Y-5494342D02*
G01*
X2063671Y-5494342D01*
X2107105Y-5539808D02*
G01*
X2116249Y-5544380D01*
X2129965Y-5557842D01*
X2129965Y-5462338D01*
X2040813Y-5303840D02*
G01*
X2004491Y-5208336D01*
X2040813Y-5303840D02*
G01*
X2077135Y-5208336D01*
X2018207Y-5240340D02*
G01*
X2063673Y-5240340D01*
X2111679Y-5281234D02*
G01*
X2111679Y-5285806D01*
X2116251Y-5294696D01*
X2120823Y-5299268D01*
X2129967Y-5303840D01*
X2148001Y-5303840D01*
X2157145Y-5299268D01*
X2161717Y-5294696D01*
X2166289Y-5285806D01*
X2166289Y-5276662D01*
X2161717Y-5267518D01*
X2152573Y-5253802D01*
X2107107Y-5208336D01*
X2170861Y-5208336D01*
X2040813Y-5049840D02*
G01*
X2004491Y-4954336D01*
X2040813Y-5049840D02*
G01*
X2077135Y-4954336D01*
X2018207Y-4986340D02*
G01*
X2063673Y-4986340D01*
X2116251Y-5049840D02*
G01*
X2166289Y-5049840D01*
X2139111Y-5013518D01*
X2152573Y-5013518D01*
X2161717Y-5008946D01*
X2166289Y-5004374D01*
X2170861Y-4990912D01*
X2170861Y-4981768D01*
X2166289Y-4968052D01*
X2157145Y-4958908D01*
X2143683Y-4954336D01*
X2129967Y-4954336D01*
X2116251Y-4958908D01*
X2111679Y-4963480D01*
X2107107Y-4972624D01*
X2040816Y-4795837D02*
G01*
X2004494Y-4700333D01*
X2040816Y-4795837D02*
G01*
X2077138Y-4700333D01*
X2018210Y-4732337D02*
G01*
X2063676Y-4732337D01*
X2152576Y-4795837D02*
G01*
X2107110Y-4732337D01*
X2175436Y-4732337D01*
X2152576Y-4795837D02*
G01*
X2152576Y-4700333D01*
X2040813Y-4541840D02*
G01*
X2004491Y-4446336D01*
X2040813Y-4541840D02*
G01*
X2077135Y-4446336D01*
X2018207Y-4478340D02*
G01*
X2063673Y-4478340D01*
X2161717Y-4541840D02*
G01*
X2116251Y-4541840D01*
X2111679Y-4500946D01*
X2116251Y-4505518D01*
X2129967Y-4510090D01*
X2143683Y-4510090D01*
X2157145Y-4505518D01*
X2166289Y-4496374D01*
X2170861Y-4482912D01*
X2170861Y-4473768D01*
X2166289Y-4460052D01*
X2157145Y-4450908D01*
X2143683Y-4446336D01*
X2129967Y-4446336D01*
X2116251Y-4450908D01*
X2111679Y-4455480D01*
X2107107Y-4464624D01*
X2040816Y-4287837D02*
G01*
X2004494Y-4192333D01*
X2040816Y-4287837D02*
G01*
X2077138Y-4192333D01*
X2018210Y-4224337D02*
G01*
X2063676Y-4224337D01*
X2161720Y-4274375D02*
G01*
X2157148Y-4283265D01*
X2143686Y-4287837D01*
X2134542Y-4287837D01*
X2120826Y-4283265D01*
X2111682Y-4269803D01*
X2107110Y-4246943D01*
X2107110Y-4224337D01*
X2111682Y-4206049D01*
X2120826Y-4196905D01*
X2134542Y-4192333D01*
X2139114Y-4192333D01*
X2152576Y-4196905D01*
X2161720Y-4206049D01*
X2166292Y-4219765D01*
X2166292Y-4224337D01*
X2161720Y-4237799D01*
X2152576Y-4246943D01*
X2139114Y-4251515D01*
X2134542Y-4251515D01*
X2120826Y-4246943D01*
X2111682Y-4237799D01*
X2107110Y-4224337D01*
X2040813Y-4033840D02*
G01*
X2004491Y-3938336D01*
X2040813Y-4033840D02*
G01*
X2077135Y-3938336D01*
X2018207Y-3970340D02*
G01*
X2063673Y-3970340D01*
X2170861Y-4033840D02*
G01*
X2125395Y-3938336D01*
X2107107Y-4033840D02*
G01*
X2170861Y-4033840D01*
X2059101Y-3779840D02*
G01*
X2013635Y-3779840D01*
X2009063Y-3738946D01*
X2013635Y-3743518D01*
X2027097Y-3748090D01*
X2040813Y-3748090D01*
X2054529Y-3743518D01*
X2063673Y-3734374D01*
X2068245Y-3720912D01*
X2068245Y-3711768D01*
X2063673Y-3698052D01*
X2054529Y-3688908D01*
X2040813Y-3684336D01*
X2027097Y-3684336D01*
X2013635Y-3688908D01*
X2009063Y-3693480D01*
X2004491Y-3702624D01*
X2098217Y-3779840D02*
G01*
X2134539Y-3684336D01*
X2170861Y-3779840D02*
G01*
X2134539Y-3684336D01*
X2004489Y-3525842D02*
G01*
X2004489Y-3430338D01*
X2004489Y-3525842D02*
G01*
X2045383Y-3525842D01*
X2059099Y-3521270D01*
X2063671Y-3516698D01*
X2068243Y-3507808D01*
X2068243Y-3498664D01*
X2063671Y-3489520D01*
X2059099Y-3484948D01*
X2045383Y-3480376D01*
X2004489Y-3480376D01*
X2036239Y-3480376D02*
G01*
X2068243Y-3430338D01*
X2161715Y-3512380D02*
G01*
X2152571Y-3521270D01*
X2139109Y-3525842D01*
X2120821Y-3525842D01*
X2107105Y-3521270D01*
X2098215Y-3512380D01*
X2098215Y-3503236D01*
X2102787Y-3494092D01*
X2107105Y-3489520D01*
X2116249Y-3484948D01*
X2143681Y-3475804D01*
X2152571Y-3471486D01*
X2157143Y-3466914D01*
X2161715Y-3457770D01*
X2161715Y-3444054D01*
X2152571Y-3434910D01*
X2139109Y-3430338D01*
X2120821Y-3430338D01*
X2107105Y-3434910D01*
X2098215Y-3444054D01*
X2223691Y-3525842D02*
G01*
X2223691Y-3430338D01*
X2191687Y-3525842D02*
G01*
X2255441Y-3525842D01*
X2072563Y-3249234D02*
G01*
X2068245Y-3258378D01*
X2059101Y-3267268D01*
X2049957Y-3271840D01*
X2031669Y-3271840D01*
X2022779Y-3267268D01*
X2013635Y-3258378D01*
X2009063Y-3249234D01*
X2004491Y-3235518D01*
X2004491Y-3212912D01*
X2009063Y-3199196D01*
X2013635Y-3190052D01*
X2022779Y-3180908D01*
X2031669Y-3176336D01*
X2049957Y-3176336D01*
X2059101Y-3180908D01*
X2068245Y-3190052D01*
X2072563Y-3199196D01*
X2072563Y-3212912D01*
X2049957Y-3212912D02*
G01*
X2072563Y-3212912D01*
X2102789Y-3271840D02*
G01*
X2102789Y-3176336D01*
X2102789Y-3271840D02*
G01*
X2166289Y-3176336D01*
X2166289Y-3271840D02*
G01*
X2166289Y-3176336D01*
X2196261Y-3271840D02*
G01*
X2196261Y-3176336D01*
X2196261Y-3271840D02*
G01*
X2228011Y-3271840D01*
X2241727Y-3267268D01*
X2250871Y-3258378D01*
X2255443Y-3249234D01*
X2260015Y-3235518D01*
X2260015Y-3212912D01*
X2255443Y-3199196D01*
X2250871Y-3190052D01*
X2241727Y-3180908D01*
X2228011Y-3176336D01*
X2196261Y-3176336D01*
X2004494Y-3017837D02*
G01*
X2040816Y-2922333D01*
X2077138Y-3017837D02*
G01*
X2040816Y-2922333D01*
X2107110Y-3017837D02*
G01*
X2107110Y-2922333D01*
X2137336Y-3017837D02*
G01*
X2137336Y-2922333D01*
X2137336Y-3017837D02*
G01*
X2200836Y-2922333D01*
X2200836Y-3017837D02*
G01*
X2200836Y-2922333D01*
X2993392Y-6575841D02*
G01*
X2993392Y-6480337D01*
X2993392Y-6575841D02*
G01*
X3025142Y-6575841D01*
X3038858Y-6571269D01*
X3048002Y-6562379D01*
X3052574Y-6553235D01*
X3057146Y-6539519D01*
X3057146Y-6516913D01*
X3052574Y-6503197D01*
X3048002Y-6494053D01*
X3038858Y-6484909D01*
X3025142Y-6480337D01*
X2993392Y-6480337D01*
X3087118Y-6557807D02*
G01*
X3096008Y-6562379D01*
X3109724Y-6575841D01*
X3109724Y-6480337D01*
X3144268Y-6553235D02*
G01*
X3144268Y-6557807D01*
X3148840Y-6566697D01*
X3153412Y-6571269D01*
X3162556Y-6575841D01*
X3180590Y-6575841D01*
X3189734Y-6571269D01*
X3194306Y-6566697D01*
X3198878Y-6557807D01*
X3198878Y-6548663D01*
X3194306Y-6539519D01*
X3185162Y-6525803D01*
X3139696Y-6480337D01*
X3203450Y-6480337D01*
X3034286Y-6321844D02*
G01*
X3034286Y-6226340D01*
X3034286Y-6321844D02*
G01*
X3066036Y-6321844D01*
X3079752Y-6317272D01*
X3088896Y-6308382D01*
X3093468Y-6299238D01*
X3098040Y-6285522D01*
X3098040Y-6262916D01*
X3093468Y-6249200D01*
X3088896Y-6240056D01*
X3079752Y-6230912D01*
X3066036Y-6226340D01*
X3034286Y-6226340D01*
X3128012Y-6303810D02*
G01*
X3136902Y-6308382D01*
X3150618Y-6321844D01*
X3150618Y-6226340D01*
X3180590Y-6303810D02*
G01*
X3189734Y-6308382D01*
X3203450Y-6321844D01*
X3203450Y-6226340D01*
X2993392Y-6067841D02*
G01*
X2993392Y-5972337D01*
X2993392Y-6067841D02*
G01*
X3025142Y-6067841D01*
X3038858Y-6063269D01*
X3048002Y-6054379D01*
X3052574Y-6045235D01*
X3057146Y-6031519D01*
X3057146Y-6008913D01*
X3052574Y-5995197D01*
X3048002Y-5986053D01*
X3038858Y-5976909D01*
X3025142Y-5972337D01*
X2993392Y-5972337D01*
X3087118Y-6049807D02*
G01*
X3096008Y-6054379D01*
X3109724Y-6067841D01*
X3109724Y-5972337D01*
X3167128Y-6067841D02*
G01*
X3153412Y-6063269D01*
X3144268Y-6049807D01*
X3139696Y-6026947D01*
X3139696Y-6013485D01*
X3144268Y-5990625D01*
X3153412Y-5976909D01*
X3167128Y-5972337D01*
X3176018Y-5972337D01*
X3189734Y-5976909D01*
X3198878Y-5990625D01*
X3203450Y-6013485D01*
X3203450Y-6026947D01*
X3198878Y-6049807D01*
X3189734Y-6063269D01*
X3176018Y-6067841D01*
X3167128Y-6067841D01*
X3050796Y-5813841D02*
G01*
X3050796Y-5718337D01*
X3050796Y-5813841D02*
G01*
X3082546Y-5813841D01*
X3096262Y-5809269D01*
X3105406Y-5800379D01*
X3109978Y-5791235D01*
X3114550Y-5777519D01*
X3114550Y-5754913D01*
X3109978Y-5741197D01*
X3105406Y-5732053D01*
X3096262Y-5722909D01*
X3082546Y-5718337D01*
X3050796Y-5718337D01*
X3203450Y-5782091D02*
G01*
X3198878Y-5768375D01*
X3189988Y-5759485D01*
X3176272Y-5754913D01*
X3171700Y-5754913D01*
X3157984Y-5759485D01*
X3149094Y-5768375D01*
X3144522Y-5782091D01*
X3144522Y-5786663D01*
X3149094Y-5800379D01*
X3157984Y-5809269D01*
X3171700Y-5813841D01*
X3176272Y-5813841D01*
X3189988Y-5809269D01*
X3198878Y-5800379D01*
X3203450Y-5782091D01*
X3203450Y-5759485D01*
X3198878Y-5736625D01*
X3189988Y-5722909D01*
X3176272Y-5718337D01*
X3167128Y-5718337D01*
X3153412Y-5722909D01*
X3149094Y-5732053D01*
X3046224Y-5559844D02*
G01*
X3046224Y-5464340D01*
X3046224Y-5559844D02*
G01*
X3077974Y-5559844D01*
X3091690Y-5555272D01*
X3100834Y-5546382D01*
X3105406Y-5537238D01*
X3109978Y-5523522D01*
X3109978Y-5500916D01*
X3105406Y-5487200D01*
X3100834Y-5478056D01*
X3091690Y-5468912D01*
X3077974Y-5464340D01*
X3046224Y-5464340D01*
X3162556Y-5559844D02*
G01*
X3148840Y-5555272D01*
X3144522Y-5546382D01*
X3144522Y-5537238D01*
X3148840Y-5528094D01*
X3157984Y-5523522D01*
X3176272Y-5518950D01*
X3189734Y-5514378D01*
X3198878Y-5505488D01*
X3203450Y-5496344D01*
X3203450Y-5482628D01*
X3198878Y-5473484D01*
X3194306Y-5468912D01*
X3180844Y-5464340D01*
X3162556Y-5464340D01*
X3148840Y-5468912D01*
X3144522Y-5473484D01*
X3139950Y-5482628D01*
X3139950Y-5496344D01*
X3144522Y-5505488D01*
X3153412Y-5514378D01*
X3167128Y-5518950D01*
X3185416Y-5523522D01*
X3194306Y-5528094D01*
X3198878Y-5537238D01*
X3198878Y-5546382D01*
X3194306Y-5555272D01*
X3180844Y-5559844D01*
X3162556Y-5559844D01*
X3046224Y-5305841D02*
G01*
X3046224Y-5210337D01*
X3046224Y-5305841D02*
G01*
X3077974Y-5305841D01*
X3091690Y-5301269D01*
X3100834Y-5292379D01*
X3105406Y-5283235D01*
X3109978Y-5269519D01*
X3109978Y-5246913D01*
X3105406Y-5233197D01*
X3100834Y-5224053D01*
X3091690Y-5214909D01*
X3077974Y-5210337D01*
X3046224Y-5210337D01*
X3203450Y-5305841D02*
G01*
X3157984Y-5210337D01*
X3139950Y-5305841D02*
G01*
X3203450Y-5305841D01*
X3050796Y-5051841D02*
G01*
X3050796Y-4956337D01*
X3050796Y-5051841D02*
G01*
X3082546Y-5051841D01*
X3096262Y-5047269D01*
X3105406Y-5038379D01*
X3109978Y-5029235D01*
X3114550Y-5015519D01*
X3114550Y-4992913D01*
X3109978Y-4979197D01*
X3105406Y-4970053D01*
X3096262Y-4960909D01*
X3082546Y-4956337D01*
X3050796Y-4956337D01*
X3198878Y-5038379D02*
G01*
X3194306Y-5047269D01*
X3180844Y-5051841D01*
X3171700Y-5051841D01*
X3157984Y-5047269D01*
X3149094Y-5033807D01*
X3144522Y-5010947D01*
X3144522Y-4988341D01*
X3149094Y-4970053D01*
X3157984Y-4960909D01*
X3171700Y-4956337D01*
X3176272Y-4956337D01*
X3189988Y-4960909D01*
X3198878Y-4970053D01*
X3203450Y-4983769D01*
X3203450Y-4988341D01*
X3198878Y-5001803D01*
X3189988Y-5010947D01*
X3176272Y-5015519D01*
X3171700Y-5015519D01*
X3157984Y-5010947D01*
X3149094Y-5001803D01*
X3144522Y-4988341D01*
X3046224Y-4797844D02*
G01*
X3046224Y-4702340D01*
X3046224Y-4797844D02*
G01*
X3077974Y-4797844D01*
X3091690Y-4793272D01*
X3100834Y-4784382D01*
X3105406Y-4775238D01*
X3109978Y-4761522D01*
X3109978Y-4738916D01*
X3105406Y-4725200D01*
X3100834Y-4716056D01*
X3091690Y-4706912D01*
X3077974Y-4702340D01*
X3046224Y-4702340D01*
X3194306Y-4797844D02*
G01*
X3148840Y-4797844D01*
X3144522Y-4756950D01*
X3148840Y-4761522D01*
X3162556Y-4766094D01*
X3176272Y-4766094D01*
X3189734Y-4761522D01*
X3198878Y-4752378D01*
X3203450Y-4738916D01*
X3203450Y-4729772D01*
X3198878Y-4716056D01*
X3189734Y-4706912D01*
X3176272Y-4702340D01*
X3162556Y-4702340D01*
X3148840Y-4706912D01*
X3144522Y-4711484D01*
X3139950Y-4720628D01*
X3041652Y-4543841D02*
G01*
X3041652Y-4448337D01*
X3041652Y-4543841D02*
G01*
X3073402Y-4543841D01*
X3087118Y-4539269D01*
X3096262Y-4530379D01*
X3100834Y-4521235D01*
X3105406Y-4507519D01*
X3105406Y-4484913D01*
X3100834Y-4471197D01*
X3096262Y-4462053D01*
X3087118Y-4452909D01*
X3073402Y-4448337D01*
X3041652Y-4448337D01*
X3180844Y-4543841D02*
G01*
X3135378Y-4480341D01*
X3203450Y-4480341D01*
X3180844Y-4543841D02*
G01*
X3180844Y-4448337D01*
X3046224Y-4289841D02*
G01*
X3046224Y-4194337D01*
X3046224Y-4289841D02*
G01*
X3077974Y-4289841D01*
X3091690Y-4285269D01*
X3100834Y-4276379D01*
X3105406Y-4267235D01*
X3109978Y-4253519D01*
X3109978Y-4230913D01*
X3105406Y-4217197D01*
X3100834Y-4208053D01*
X3091690Y-4198909D01*
X3077974Y-4194337D01*
X3046224Y-4194337D01*
X3148840Y-4289841D02*
G01*
X3198878Y-4289841D01*
X3171700Y-4253519D01*
X3185416Y-4253519D01*
X3194306Y-4248947D01*
X3198878Y-4244375D01*
X3203450Y-4230913D01*
X3203450Y-4221769D01*
X3198878Y-4208053D01*
X3189734Y-4198909D01*
X3176272Y-4194337D01*
X3162556Y-4194337D01*
X3148840Y-4198909D01*
X3144522Y-4203481D01*
X3139950Y-4212625D01*
X3046224Y-4035844D02*
G01*
X3046224Y-3940340D01*
X3046224Y-4035844D02*
G01*
X3077974Y-4035844D01*
X3091690Y-4031272D01*
X3100834Y-4022382D01*
X3105406Y-4013238D01*
X3109978Y-3999522D01*
X3109978Y-3976916D01*
X3105406Y-3963200D01*
X3100834Y-3954056D01*
X3091690Y-3944912D01*
X3077974Y-3940340D01*
X3046224Y-3940340D01*
X3144522Y-4013238D02*
G01*
X3144522Y-4017810D01*
X3148840Y-4026700D01*
X3153412Y-4031272D01*
X3162556Y-4035844D01*
X3180844Y-4035844D01*
X3189734Y-4031272D01*
X3194306Y-4026700D01*
X3198878Y-4017810D01*
X3198878Y-4008666D01*
X3194306Y-3999522D01*
X3185416Y-3985806D01*
X3139950Y-3940340D01*
X3203450Y-3940340D01*
X3015998Y-3759235D02*
G01*
X3011680Y-3768379D01*
X3002536Y-3777269D01*
X2993392Y-3781841D01*
X2975104Y-3781841D01*
X2966214Y-3777269D01*
X2957070Y-3768379D01*
X2952498Y-3759235D01*
X2947926Y-3745519D01*
X2947926Y-3722913D01*
X2952498Y-3709197D01*
X2957070Y-3700053D01*
X2966214Y-3690909D01*
X2975104Y-3686337D01*
X2993392Y-3686337D01*
X3002536Y-3690909D01*
X3011680Y-3700053D01*
X3015998Y-3709197D01*
X3015998Y-3722913D01*
X2993392Y-3722913D02*
G01*
X3015998Y-3722913D01*
X3046224Y-3781841D02*
G01*
X3046224Y-3686337D01*
X3046224Y-3781841D02*
G01*
X3109724Y-3686337D01*
X3109724Y-3781841D02*
G01*
X3109724Y-3686337D01*
X3139696Y-3781841D02*
G01*
X3139696Y-3686337D01*
X3139696Y-3781841D02*
G01*
X3171446Y-3781841D01*
X3185162Y-3777269D01*
X3194306Y-3768379D01*
X3198878Y-3759235D01*
X3203450Y-3745519D01*
X3203450Y-3722913D01*
X3198878Y-3709197D01*
X3194306Y-3700053D01*
X3185162Y-3690909D01*
X3171446Y-3686337D01*
X3139696Y-3686337D01*
X2952498Y-3527841D02*
G01*
X2952498Y-3432337D01*
X2952498Y-3527841D02*
G01*
X2993392Y-3527841D01*
X3007108Y-3523269D01*
X3011680Y-3518697D01*
X3016252Y-3509807D01*
X3016252Y-3500663D01*
X3011680Y-3491519D01*
X3007108Y-3486947D01*
X2993392Y-3482375D01*
X2952498Y-3482375D01*
X2984248Y-3482375D02*
G01*
X3016252Y-3432337D01*
X3109724Y-3514379D02*
G01*
X3100580Y-3523269D01*
X3087118Y-3527841D01*
X3068830Y-3527841D01*
X3055114Y-3523269D01*
X3046224Y-3514379D01*
X3046224Y-3505235D01*
X3050796Y-3496091D01*
X3055114Y-3491519D01*
X3064258Y-3486947D01*
X3091690Y-3477803D01*
X3100580Y-3473485D01*
X3105152Y-3468913D01*
X3109724Y-3459769D01*
X3109724Y-3446053D01*
X3100580Y-3436909D01*
X3087118Y-3432337D01*
X3068830Y-3432337D01*
X3055114Y-3436909D01*
X3046224Y-3446053D01*
X3171700Y-3527841D02*
G01*
X3171700Y-3432337D01*
X3139696Y-3527841D02*
G01*
X3203450Y-3527841D01*
X2952498Y-3273844D02*
G01*
X2952498Y-3178340D01*
X2952498Y-3273844D02*
G01*
X2993392Y-3273844D01*
X3007108Y-3269272D01*
X3011680Y-3264700D01*
X3016252Y-3255810D01*
X3016252Y-3246666D01*
X3011680Y-3237522D01*
X3007108Y-3232950D01*
X2993392Y-3228378D01*
X2952498Y-3228378D01*
X2984248Y-3228378D02*
G01*
X3016252Y-3178340D01*
X3046224Y-3273844D02*
G01*
X3109724Y-3178340D01*
X3109724Y-3273844D02*
G01*
X3046224Y-3178340D01*
X3139696Y-3273844D02*
G01*
X3139696Y-3178340D01*
X3139696Y-3273844D02*
G01*
X3171700Y-3273844D01*
X3185162Y-3269272D01*
X3194306Y-3260382D01*
X3198878Y-3251238D01*
X3203450Y-3237522D01*
X3203450Y-3214916D01*
X3198878Y-3201200D01*
X3194306Y-3192056D01*
X3185162Y-3182912D01*
X3171700Y-3178340D01*
X3139696Y-3178340D01*
X2984248Y-3019841D02*
G01*
X2984248Y-2924337D01*
X2952498Y-3019841D02*
G01*
X3016252Y-3019841D01*
X3046224Y-3019841D02*
G01*
X3109724Y-2924337D01*
X3109724Y-3019841D02*
G01*
X3046224Y-2924337D01*
X3139696Y-3019841D02*
G01*
X3139696Y-2924337D01*
X3139696Y-3019841D02*
G01*
X3171700Y-3019841D01*
X3185162Y-3015269D01*
X3194306Y-3006379D01*
X3198878Y-2997235D01*
X3203450Y-2983519D01*
X3203450Y-2960913D01*
X3198878Y-2947197D01*
X3194306Y-2938053D01*
X3185162Y-2928909D01*
X3171700Y-2924337D01*
X3139696Y-2924337D01*
D10*
X-64515Y-4737100D02*
G01*
X13462Y-4737100D01*
X28955Y-4742179D01*
X39370Y-4752594D01*
X44450Y-4768342D01*
X44450Y-4778755D01*
X39370Y-4794250D01*
X28955Y-4804663D01*
X13462Y-4809744D01*
X-64515Y-4809744D01*
X-49021Y-4906518D02*
G01*
X-59436Y-4901184D01*
X-64515Y-4885689D01*
X-64515Y-4875276D01*
X-59436Y-4859781D01*
X-43687Y-4849368D01*
X-17779Y-4844034D01*
X8128Y-4844034D01*
X28955Y-4849368D01*
X39370Y-4859781D01*
X44450Y-4875276D01*
X44450Y-4880610D01*
X39370Y-4896104D01*
X28955Y-4906518D01*
X13462Y-4911597D01*
X8128Y-4911597D01*
X-7365Y-4906518D01*
X-17779Y-4896104D01*
X-22860Y-4880610D01*
X-22860Y-4875276D01*
X-17779Y-4859781D01*
X-7365Y-4849368D01*
X8128Y-4844034D01*
D12*
X201168Y-2696971D02*
G01*
X192023Y-2692654D01*
X183134Y-2683510D01*
X178562Y-2674365D01*
X178562Y-2656078D01*
X183134Y-2647187D01*
X192023Y-2638044D01*
X201168Y-2633471D01*
X214884Y-2628900D01*
X237489Y-2628900D01*
X251205Y-2633471D01*
X260350Y-2638044D01*
X269494Y-2647187D01*
X274065Y-2656078D01*
X274065Y-2674365D01*
X269494Y-2683510D01*
X260350Y-2692654D01*
X251205Y-2696971D01*
X237489Y-2696971D01*
X237489Y-2674365D02*
G01*
X237489Y-2696971D01*
X178562Y-2727197D02*
G01*
X274065Y-2727197D01*
X178562Y-2727197D02*
G01*
X274065Y-2790697D01*
X178562Y-2790697D02*
G01*
X274065Y-2790697D01*
X178562Y-2820670D02*
G01*
X274065Y-2820670D01*
X178562Y-2820670D02*
G01*
X178562Y-2852420D01*
X183134Y-2866136D01*
X192023Y-2875279D01*
X201168Y-2879852D01*
X214884Y-2884423D01*
X237489Y-2884423D01*
X251205Y-2879852D01*
X260350Y-2875279D01*
X269494Y-2866136D01*
X274065Y-2852420D01*
X274065Y-2820670D01*
X1308862Y-2603500D02*
G01*
X1404365Y-2639821D01*
X1308862Y-2676144D02*
G01*
X1404365Y-2639821D01*
X1331468Y-2774442D02*
G01*
X1322323Y-2769870D01*
X1313434Y-2760726D01*
X1308862Y-2751581D01*
X1308862Y-2733547D01*
X1313434Y-2724404D01*
X1322323Y-2715260D01*
X1331468Y-2710687D01*
X1345184Y-2706115D01*
X1367789Y-2706115D01*
X1381505Y-2710687D01*
X1390650Y-2715260D01*
X1399794Y-2724404D01*
X1404365Y-2733547D01*
X1404365Y-2751581D01*
X1399794Y-2760726D01*
X1390650Y-2769870D01*
X1381505Y-2774442D01*
X1331468Y-2872486D02*
G01*
X1322323Y-2868168D01*
X1313434Y-2859023D01*
X1308862Y-2849879D01*
X1308862Y-2831592D01*
X1313434Y-2822702D01*
X1322323Y-2813557D01*
X1331468Y-2808986D01*
X1345184Y-2804413D01*
X1367789Y-2804413D01*
X1381505Y-2808986D01*
X1390650Y-2813557D01*
X1399794Y-2822702D01*
X1404365Y-2831592D01*
X1404365Y-2849879D01*
X1399794Y-2859023D01*
X1390650Y-2868168D01*
X1381505Y-2872486D01*
X877062Y-2832100D02*
G01*
X972565Y-2832100D01*
X877062Y-2832100D02*
G01*
X877062Y-2872994D01*
X881634Y-2886710D01*
X886205Y-2891281D01*
X895095Y-2895854D01*
X904239Y-2895854D01*
X913384Y-2891281D01*
X917955Y-2886710D01*
X922528Y-2872994D01*
X922528Y-2832100D02*
G01*
X922528Y-2872994D01*
X927100Y-2886710D01*
X931418Y-2891281D01*
X940562Y-2895854D01*
X954278Y-2895854D01*
X963421Y-2891281D01*
X967994Y-2886710D01*
X972565Y-2872994D01*
X972565Y-2832100D01*
X610362Y-2868421D02*
G01*
X705865Y-2832100D01*
X610362Y-2868421D02*
G01*
X705865Y-2904744D01*
X673862Y-2845815D02*
G01*
X673862Y-2891281D01*
X356362Y-6515100D02*
G01*
X451865Y-6515100D01*
X356362Y-6515100D02*
G01*
X356362Y-6546850D01*
X360934Y-6560565D01*
X369823Y-6569710D01*
X378968Y-6574281D01*
X392684Y-6578854D01*
X415289Y-6578854D01*
X429005Y-6574281D01*
X438150Y-6569710D01*
X447294Y-6560565D01*
X451865Y-6546850D01*
X451865Y-6515100D01*
X356362Y-6608826D02*
G01*
X451865Y-6608826D01*
X610362Y-6489700D02*
G01*
X705865Y-6489700D01*
X610362Y-6489700D02*
G01*
X610362Y-6521450D01*
X614934Y-6535165D01*
X623823Y-6544310D01*
X632968Y-6548881D01*
X646684Y-6553454D01*
X669289Y-6553454D01*
X683005Y-6548881D01*
X692150Y-6544310D01*
X701294Y-6535165D01*
X705865Y-6521450D01*
X705865Y-6489700D01*
X610362Y-6583426D02*
G01*
X705865Y-6583426D01*
X610362Y-6583426D02*
G01*
X610362Y-6642354D01*
X655828Y-6583426D02*
G01*
X655828Y-6619747D01*
X705865Y-6583426D02*
G01*
X705865Y-6642354D01*
X864362Y-6489700D02*
G01*
X959865Y-6489700D01*
X864362Y-6489700D02*
G01*
X864362Y-6530594D01*
X868934Y-6544310D01*
X873505Y-6548881D01*
X882395Y-6553454D01*
X891539Y-6553454D01*
X900684Y-6548881D01*
X905255Y-6544310D01*
X909828Y-6530594D01*
X909828Y-6489700D01*
X909828Y-6521450D02*
G01*
X959865Y-6553454D01*
X864362Y-6583426D02*
G01*
X959865Y-6583426D01*
X864362Y-6583426D02*
G01*
X864362Y-6642354D01*
X909828Y-6583426D02*
G01*
X909828Y-6619747D01*
X959865Y-6583426D02*
G01*
X959865Y-6642354D01*
X1118362Y-6489700D02*
G01*
X1213865Y-6489700D01*
X1118362Y-6489700D02*
G01*
X1118362Y-6530594D01*
X1122934Y-6544310D01*
X1127505Y-6548881D01*
X1136395Y-6553454D01*
X1145539Y-6553454D01*
X1154684Y-6548881D01*
X1159255Y-6544310D01*
X1163828Y-6530594D01*
X1163828Y-6489700D01*
X1163828Y-6521450D02*
G01*
X1213865Y-6553454D01*
X1118362Y-6610604D02*
G01*
X1122934Y-6601460D01*
X1131823Y-6592315D01*
X1140968Y-6587997D01*
X1154684Y-6583426D01*
X1177289Y-6583426D01*
X1191005Y-6587997D01*
X1200150Y-6592315D01*
X1209294Y-6601460D01*
X1213865Y-6610604D01*
X1213865Y-6628892D01*
X1209294Y-6637781D01*
X1200150Y-6646926D01*
X1191005Y-6651497D01*
X1177289Y-6656070D01*
X1154684Y-6656070D01*
X1140968Y-6651497D01*
X1131823Y-6646926D01*
X1122934Y-6637781D01*
X1118362Y-6628892D01*
X1118362Y-6610604D01*
D10*
X2996184Y-1676400D02*
G01*
X3074161Y-1676400D01*
X3089656Y-1681479D01*
X3100070Y-1691894D01*
X3105150Y-1707642D01*
X3105150Y-1718055D01*
X3100070Y-1733550D01*
X3089656Y-1743963D01*
X3074161Y-1749044D01*
X2996184Y-1749044D01*
X3017011Y-1783334D02*
G01*
X3011677Y-1793747D01*
X2996184Y-1809495D01*
X3105150Y-1809495D01*
X3017011Y-1843786D02*
G01*
X3011677Y-1854200D01*
X2996184Y-1869694D01*
X3105150Y-1869694D01*
D13*
X1714560Y-4432340D02*
G01*
X1778060Y-4368840D01*
X1714560Y-4305340D01*
X1968548Y-6591325D02*
G01*
X1905048Y-6654825D01*
X1778048Y-6654825D01*
X1714548Y-6591325D01*
X1968548Y-6337325D02*
G01*
X1905048Y-6400825D01*
X1968548Y-6464325D01*
X1968548Y-6083325D02*
G01*
X1905048Y-6146825D01*
X1968548Y-6210325D01*
X1968548Y-5829371D02*
G01*
X1905048Y-5892848D01*
X1968548Y-5956348D01*
X1968548Y-5575376D02*
G01*
X1905048Y-5638876D01*
X1968548Y-5702376D01*
X1968548Y-5321376D02*
G01*
X1905048Y-5384876D01*
X1968548Y-5448376D01*
X1968548Y-5067376D02*
G01*
X1905048Y-5130876D01*
X1968548Y-5194376D01*
X1968548Y-4813376D02*
G01*
X1905048Y-4876876D01*
X1968548Y-4940376D01*
X1968548Y-4559376D02*
G01*
X1905048Y-4622876D01*
X1968548Y-4686376D01*
X1968548Y-4305376D02*
G01*
X1905048Y-4368876D01*
X1968548Y-4432376D01*
X1968548Y-4051376D02*
G01*
X1905048Y-4114876D01*
X1968548Y-4178376D01*
X1968548Y-3797376D02*
G01*
X1905048Y-3860876D01*
X1968548Y-3924376D01*
X1968548Y-3543348D02*
G01*
X1905048Y-3606871D01*
X1968548Y-3670376D01*
X1968548Y-3289340D02*
G01*
X1905048Y-3352840D01*
X1968548Y-3416340D01*
X1968548Y-3035340D02*
G01*
X1905048Y-3098840D01*
X1968548Y-3162340D01*
X1714548Y-2908340D02*
G01*
X1778048Y-2844840D01*
X1905048Y-2844840D01*
X1968548Y-2908340D01*
X1714548Y-3162340D02*
G01*
X1778048Y-3098840D01*
X1714548Y-3035340D01*
X1714548Y-3416340D02*
G01*
X1778048Y-3352840D01*
X1714548Y-3289340D01*
X1714548Y-3670376D02*
G01*
X1778048Y-3606871D01*
X1714548Y-3543348D01*
X1714548Y-5956348D02*
G01*
X1778048Y-5892848D01*
X1714548Y-5829371D01*
X1714548Y-6464325D02*
G01*
X1778048Y-6400825D01*
X1714548Y-6337325D01*
X1714548Y-6210325D02*
G01*
X1778048Y-6146825D01*
X1714548Y-6083325D01*
X1714548Y-5702376D02*
G01*
X1778048Y-5638876D01*
X1714548Y-5575376D01*
X1714548Y-5448376D02*
G01*
X1778048Y-5384876D01*
X1714548Y-5321376D01*
X1714548Y-5194376D02*
G01*
X1778048Y-5130876D01*
X1714548Y-5067376D01*
X1714548Y-4940376D02*
G01*
X1778048Y-4876876D01*
X1714548Y-4813376D01*
X1714548Y-4686376D02*
G01*
X1778048Y-4622876D01*
X1714548Y-4559376D01*
X1714548Y-4178376D02*
G01*
X1778048Y-4114876D01*
X1714548Y-4051376D01*
X1714548Y-3924376D02*
G01*
X1778048Y-3860876D01*
X1714548Y-3797376D01*
X1714548Y-3670376D02*
G01*
X1778048Y-3606871D01*
X1714548Y-3543348D01*
X1714548Y-3416340D01*
X1778048Y-3352840D01*
X1714548Y-3289340D01*
X1714548Y-3162340D01*
X1778048Y-3098840D01*
X1714548Y-3035340D01*
X1714548Y-2908340D01*
X1778048Y-2844840D01*
X1905048Y-2844840D01*
X1968548Y-2908340D01*
X1968548Y-3035340D01*
X1905048Y-3098840D01*
X1968548Y-3162340D01*
X1968548Y-3289340D01*
X1905048Y-3352840D01*
X1968548Y-3416340D01*
X1968548Y-3543348D01*
X1905048Y-3606871D01*
X1968548Y-3670376D01*
X1968548Y-3797376D01*
X1905048Y-3860876D01*
X1968548Y-3924376D01*
X1968548Y-4051376D01*
X1905048Y-4114876D01*
X1968548Y-4178376D01*
X1968548Y-4305376D01*
X1905048Y-4368876D01*
X1968548Y-4432376D01*
X1968548Y-4559376D01*
X1905048Y-4622876D01*
X1968548Y-4686376D01*
X1968548Y-4813376D01*
X1905048Y-4876876D01*
X1968548Y-4940376D01*
X1968548Y-5067376D01*
X1905048Y-5130876D01*
X1968548Y-5194376D01*
X1968548Y-5321376D01*
X1905048Y-5384876D01*
X1968548Y-5448376D01*
X1968548Y-5575376D01*
X1905048Y-5638876D01*
X1968548Y-5702376D01*
X1968548Y-5829371D01*
X1905048Y-5892848D01*
X1968548Y-5956348D01*
X1968548Y-6083325D01*
X1905048Y-6146825D01*
X1968548Y-6210325D01*
X1968548Y-6337325D01*
X1905048Y-6400825D01*
X1968548Y-6464325D01*
X1968548Y-6591325D01*
X1905048Y-6654825D01*
X1778048Y-6654825D01*
X1714548Y-6591325D01*
X3492456Y-5067274D02*
G01*
X3428956Y-5130774D01*
X3492456Y-5194274D01*
X3492466Y-5829233D02*
G01*
X3428966Y-5892736D01*
X3492466Y-5956261D01*
X3492466Y-6083274D01*
X3428966Y-6146774D01*
X3492466Y-6210274D01*
X3492466Y-6337274D01*
X3428966Y-6400774D01*
X3492466Y-6464274D01*
X3492466Y-6591274D01*
X3428966Y-6654774D01*
X3301966Y-6654774D01*
X3238466Y-6591274D01*
X3238466Y-6464274D01*
X3301966Y-6400774D01*
X3238466Y-6337274D01*
X3238466Y-6210274D01*
X3301966Y-6146774D01*
X3238466Y-6083274D01*
X3238466Y-5956261D01*
X3301966Y-5892736D01*
X3238466Y-5829233D01*
X3238466Y-5702233D01*
X3301966Y-5638733D01*
X3238466Y-5575233D01*
X3238466Y-5448233D01*
X3301966Y-5384733D01*
X3238466Y-5321233D01*
X3238466Y-5194233D01*
X3301966Y-5130733D01*
X3238466Y-5067233D01*
X3238466Y-4940233D01*
X3301966Y-4876733D01*
X3238466Y-4813233D01*
X3238466Y-4686233D01*
X3301966Y-4622733D01*
X3238466Y-4559233D01*
X3238466Y-4432233D01*
X3301966Y-4368733D01*
X3238466Y-4305233D01*
X3238466Y-4178233D01*
X3301966Y-4114733D01*
X3238466Y-4051233D01*
X3238466Y-3924233D01*
X3301966Y-3860733D01*
X3238466Y-3797233D01*
X3238466Y-3670239D01*
X3301966Y-3606761D01*
X3238466Y-3543261D01*
X3238466Y-3416284D01*
X3301966Y-3352784D01*
X3238466Y-3289284D01*
X3238466Y-3162284D01*
X3301966Y-3098784D01*
X3238466Y-3035284D01*
X3238466Y-2908284D01*
X3301966Y-2844784D01*
X3428966Y-2844784D01*
X3492466Y-2908284D01*
X3492466Y-3543261D02*
G01*
X3428966Y-3606761D01*
X3492466Y-3670239D01*
X3492466Y-3035284D02*
G01*
X3428966Y-3098784D01*
X3492466Y-3162284D01*
X3492466Y-3289284D02*
G01*
X3428966Y-3352784D01*
X3492466Y-3416284D01*
X3492466Y-3797233D02*
G01*
X3428966Y-3860733D01*
X3492466Y-3924233D01*
X3492466Y-4051233D02*
G01*
X3428966Y-4114733D01*
X3492466Y-4178233D01*
X3492466Y-4305233D02*
G01*
X3428966Y-4368733D01*
X3492466Y-4432233D01*
X3492466Y-4559233D02*
G01*
X3428966Y-4622733D01*
X3492466Y-4686233D01*
X3492466Y-4813233D02*
G01*
X3428966Y-4876733D01*
X3492466Y-4940233D01*
X3492466Y-5321233D02*
G01*
X3428966Y-5384733D01*
X3492466Y-5448233D01*
X3492466Y-5575233D02*
G01*
X3428966Y-5638733D01*
X3492466Y-5702233D01*
X2882900Y-6520179D02*
G01*
X2857510Y-6520179D01*
X2882900Y-6908800D02*
G01*
X2882900Y-7061200D01*
X2324100Y-7061200D01*
X2324100Y-6520179D01*
X2345004Y-6520179D01*
X2882900Y-6908800D02*
G01*
X2882900Y-6520179D01*
X2857510Y-6520179D02*
G01*
X2349500Y-6520179D01*
D10*
X3500117Y-6916420D02*
G01*
X3500117Y-2583187D01*
X1706879Y-2583187D01*
X1706879Y-6916420D01*
X3500117Y-6916420D01*
D14*
X87401Y-2537104D02*
G01*
X87401Y-6937095D01*
X1487398Y-6937095D01*
X1487398Y-2537104D01*
X87401Y-2537104D01*
X237413Y-3037103D02*
G01*
X237413Y-3737102D01*
X1337411Y-3737102D01*
X1337411Y-3037103D01*
X237413Y-3037103D01*
G75*
G01
X3501492Y-1803400D02*
G03X3501492Y-1803400I-389992J0D01*
M02*
