G04 Layer: TopSolderMaskLayer*
G04 EasyEDA v6.5.54, 2026-04-18 11:19:19*
G04 80c0d0d825154b2e81aaa2e26132e95f,eb0817546e0d4687b5c27ca6143d63b0,10*
G04 Gerber Generator version 0.2*
G04 Scale: 100 percent, Rotated: No, Reflected: No *
G04 Dimensions in millimeters *
G04 leading zeros omitted , absolute positions ,4 integer and 5 decimal *
%FSLAX45Y45*%
%MOMM*%

%AMMACRO1*4,1,8,-0.8211,-0.8508,-0.8508,-0.821,-0.8508,0.8211,-0.8211,0.8508,0.821,0.8508,0.8508,0.8211,0.8508,-0.821,0.821,-0.8508,-0.8211,-0.8508,0*%
%AMMACRO2*4,1,8,-0.7831,-0.8128,-0.8128,-0.783,-0.8128,0.7831,-0.7831,0.8128,0.783,0.8128,0.8128,0.7831,0.8128,-0.783,0.783,-0.8128,-0.7831,-0.8128,0*%
%AMMACRO3*4,1,8,-1.0448,-1.147,-1.0745,-1.1172,-1.0745,1.1172,-1.0448,1.147,1.0448,1.147,1.0745,1.1172,1.0745,-1.1172,1.0448,-1.147,-1.0448,-1.147,0*%
%AMMACRO4*4,1,8,-0.4211,-0.4508,-0.4508,-0.421,-0.4508,0.4211,-0.4211,0.4508,0.421,0.4508,0.4508,0.4211,0.4508,-0.421,0.421,-0.4508,-0.4211,-0.4508,0*%
%AMMACRO5*4,1,8,-1.0211,-0.5508,-1.0508,-0.521,-1.0508,0.5211,-1.0211,0.5508,1.021,0.5508,1.0508,0.5211,1.0508,-0.521,1.021,-0.5508,-1.0211,-0.5508,0*%
%AMMACRO6*4,1,8,-0.2836,-0.5103,-0.3133,-0.4805,-0.3133,0.4806,-0.2836,0.5103,0.2835,0.5103,0.3133,0.4806,0.3133,-0.4805,0.2835,-0.5103,-0.2836,-0.5103,0*%
%AMMACRO7*4,1,8,-0.4531,-0.454,-0.4828,-0.4243,-0.4828,0.4243,-0.4531,0.454,0.453,0.454,0.4828,0.4243,0.4828,-0.4243,0.453,-0.454,-0.4531,-0.454,0*%
%AMMACRO8*4,1,8,-0.4243,-0.4828,-0.454,-0.453,-0.454,0.4531,-0.4243,0.4828,0.4243,0.4828,0.454,0.4531,0.454,-0.453,0.4243,-0.4828,-0.4243,-0.4828,0*%
%AMMACRO9*4,1,8,-1.0207,-0.4,-1.05,-0.3707,-1.05,0.3707,-1.0207,0.4,1.0207,0.4,1.05,0.3707,1.05,-0.3707,1.0207,-0.4,-1.0207,-0.4,0*%
%AMMACRO10*4,1,8,-0.5111,-1.2858,-0.5408,-1.256,-0.5408,1.2561,-0.5111,1.2858,0.511,1.2858,0.5408,1.2561,0.5408,-1.256,0.511,-1.2858,-0.5111,-1.2858,0*%
%AMMACRO11*4,1,8,-0.511,-1.2858,-0.5408,-1.256,-0.5408,1.2561,-0.511,1.2858,0.511,1.2858,0.5408,1.2561,0.5408,-1.256,0.511,-1.2858,-0.511,-1.2858,0*%
%AMMACRO12*4,1,8,-1.8211,-1.2858,-1.8508,-1.256,-1.8508,1.2561,-1.8211,1.2858,1.821,1.2858,1.8508,1.2561,1.8508,-1.256,1.821,-1.2858,-1.8211,-1.2858,0*%
%AMMACRO13*4,1,8,-1.3711,-0.8683,-1.4008,-0.8385,-1.4008,0.8386,-1.3711,0.8683,1.371,0.8683,1.4008,0.8386,1.4008,-0.8385,1.371,-0.8683,-1.3711,-0.8683,0*%
%AMMACRO14*4,1,8,-0.8851,-0.7933,-0.9148,-0.7635,-0.9148,0.7635,-0.8851,0.7933,0.885,0.7933,0.9148,0.7635,0.9148,-0.7635,0.885,-0.7933,-0.8851,-0.7933,0*%
%AMMACRO15*4,1,8,-0.4711,-0.4508,-0.5008,-0.421,-0.5008,0.4211,-0.4711,0.4508,0.471,0.4508,0.5008,0.4211,0.5008,-0.421,0.471,-0.4508,-0.4711,-0.4508,0*%
%AMMACRO16*4,1,8,-0.4211,-0.5008,-0.4508,-0.471,-0.4508,0.4711,-0.4211,0.5008,0.421,0.5008,0.4508,0.4711,0.4508,-0.471,0.421,-0.5008,-0.4211,-0.5008,0*%
%AMMACRO17*4,1,8,-0.4707,-0.8,-0.5,-0.7707,-0.5,0.7707,-0.4707,0.8,0.4707,0.8,0.5,0.7707,0.5,-0.7707,0.4707,-0.8,-0.4707,-0.8,0*%
%AMMACRO18*4,1,8,-0.3707,-0.55,-0.4,-0.5207,-0.4,0.5207,-0.3707,0.55,0.3707,0.55,0.4,0.5207,0.4,-0.5207,0.3707,-0.55,-0.3707,-0.55,0*%
%AMMACRO19*4,1,8,-1.1172,-1.0745,-1.147,-1.0448,-1.147,1.0448,-1.1172,1.0745,1.1172,1.0745,1.147,1.0448,1.147,-1.0448,1.1172,-1.0745,-1.1172,-1.0745,0*%
%AMMACRO20*4,1,8,-0.2871,-0.4508,-0.3168,-0.421,-0.3168,0.4211,-0.2871,0.4508,0.287,0.4508,0.3168,0.4211,0.3168,-0.421,0.287,-0.4508,-0.2871,-0.4508,0*%
%AMMACRO21*4,1,8,-0.8386,-1.4008,-0.8683,-1.371,-0.8683,1.3711,-0.8386,1.4008,0.8385,1.4008,0.8683,1.3711,0.8683,-1.371,0.8385,-1.4008,-0.8386,-1.4008,0*%
%ADD10MACRO1*%
%ADD11C,1.7016*%
%ADD12MACRO2*%
%ADD13C,1.6256*%
%ADD14MACRO3*%
%ADD15MACRO4*%
%ADD16C,0.0101*%
%ADD17MACRO5*%
%ADD18MACRO6*%
%ADD19MACRO7*%
%ADD20MACRO8*%
%ADD21MACRO9*%
%ADD22MACRO10*%
%ADD23MACRO11*%
%ADD24MACRO12*%
%ADD25MACRO13*%
%ADD26MACRO14*%
%ADD27MACRO15*%
%ADD28MACRO16*%
%ADD29MACRO17*%
%ADD30MACRO18*%
%ADD31MACRO19*%
%ADD32MACRO20*%
%ADD33MACRO21*%

%LPD*%
D10*
G01*
X3365500Y-2971800D03*
D11*
G01*
X1841500Y-3225800D03*
G01*
X1841500Y-3733800D03*
G01*
X1841500Y-4241800D03*
G01*
X1841500Y-4749800D03*
G01*
X1841500Y-5257800D03*
G01*
X1841500Y-5765800D03*
G01*
X1841500Y-6273800D03*
G01*
X3365500Y-6527800D03*
G01*
X3365500Y-6019800D03*
G01*
X3365500Y-5511800D03*
G01*
X3365500Y-5003800D03*
G01*
X3365500Y-4495800D03*
G01*
X3365500Y-3987800D03*
G01*
X3365500Y-3479800D03*
G01*
X3365500Y-3225800D03*
G01*
X3365500Y-3733800D03*
G01*
X3365500Y-4241800D03*
G01*
X3365500Y-4749800D03*
G01*
X3365500Y-5257800D03*
G01*
X3365500Y-5765800D03*
G01*
X3365500Y-6273800D03*
G01*
X1841500Y-6527800D03*
G01*
X1841500Y-6019800D03*
G01*
X1841500Y-5511800D03*
G01*
X1841500Y-5003800D03*
G01*
X1841500Y-4495800D03*
G01*
X1841500Y-3987800D03*
G01*
X1841500Y-3479800D03*
D10*
G01*
X1841500Y-2971800D03*
D12*
G01*
X1168400Y-2705105D03*
D13*
G01*
X406400Y-2705100D03*
G01*
X660400Y-2705100D03*
G01*
X914400Y-2705100D03*
G01*
X660400Y-6769100D03*
G01*
X914400Y-6769100D03*
G01*
X1168400Y-6769100D03*
D12*
G01*
X406400Y-6769094D03*
D13*
G01*
X3111500Y-1553413D03*
G01*
X3111500Y-2053412D03*
D14*
G01*
X1988675Y-927100D03*
G01*
X1516524Y-927100D03*
D15*
G01*
X5238089Y-1917700D03*
G01*
X4998110Y-1917700D03*
G01*
X6762089Y-1917700D03*
G01*
X6522110Y-1917700D03*
G01*
X8298789Y-1905000D03*
G01*
X8058810Y-1905000D03*
G01*
X9835489Y-1905000D03*
G01*
X9595510Y-1905000D03*
G01*
X11334089Y-1892300D03*
G01*
X11094110Y-1892300D03*
G01*
X6534810Y-5207000D03*
G01*
X6774789Y-5207000D03*
G01*
X8058810Y-5207000D03*
G01*
X8298789Y-5207000D03*
G01*
X9595510Y-5207000D03*
G01*
X9835489Y-5207000D03*
G01*
X11106810Y-5207000D03*
G01*
X11346789Y-5207000D03*
G01*
X12858089Y-1892300D03*
G01*
X12618110Y-1892300D03*
D17*
G01*
X6792099Y-2197100D03*
G01*
X6492100Y-2197100D03*
G01*
X8316099Y-2184400D03*
G01*
X8016100Y-2184400D03*
G01*
X9865499Y-2184400D03*
G01*
X9565500Y-2184400D03*
G01*
X11364099Y-2171700D03*
G01*
X11064100Y-2171700D03*
G01*
X6504800Y-4914900D03*
G01*
X6804799Y-4914900D03*
G01*
X8041500Y-4914900D03*
G01*
X8341499Y-4914900D03*
G01*
X9565500Y-4914900D03*
G01*
X9865499Y-4914900D03*
G01*
X11064100Y-4914900D03*
G01*
X11364099Y-4914900D03*
G01*
X12888099Y-2184400D03*
G01*
X12588100Y-2184400D03*
G01*
X5280799Y-2197100D03*
G01*
X4980800Y-2197100D03*
D18*
G01*
X5041910Y-2356095D03*
G01*
X5106908Y-2546094D03*
G01*
X4976911Y-2546094D03*
G01*
X6553210Y-2343395D03*
G01*
X6618208Y-2533394D03*
G01*
X6488211Y-2533394D03*
G01*
X8077210Y-2330695D03*
G01*
X8142208Y-2520694D03*
G01*
X8012211Y-2520694D03*
G01*
X9626610Y-2317995D03*
G01*
X9691608Y-2507994D03*
G01*
X9561611Y-2507994D03*
G01*
X11112510Y-2317995D03*
G01*
X11177508Y-2507994D03*
G01*
X11047511Y-2507994D03*
G01*
X6705589Y-4755904D03*
G01*
X6640591Y-4565905D03*
G01*
X6770588Y-4565905D03*
G01*
X8254989Y-4755904D03*
G01*
X8189991Y-4565905D03*
G01*
X8319988Y-4565905D03*
G01*
X9804389Y-4781304D03*
G01*
X9739391Y-4591305D03*
G01*
X9869388Y-4591305D03*
G01*
X11302989Y-4768604D03*
G01*
X11237991Y-4578605D03*
G01*
X11367988Y-4578605D03*
G01*
X12661910Y-2330695D03*
G01*
X12726908Y-2520694D03*
G01*
X12596911Y-2520694D03*
D19*
G01*
X6997700Y-1931275D03*
G01*
X6997700Y-2081924D03*
D20*
G01*
X6477875Y-2679700D03*
G01*
X6628524Y-2679700D03*
D19*
G01*
X6311900Y-2540875D03*
G01*
X6311900Y-2691524D03*
G01*
X7823200Y-2540875D03*
G01*
X7823200Y-2691524D03*
D20*
G01*
X8001875Y-2692400D03*
G01*
X8152524Y-2692400D03*
D19*
G01*
X8521700Y-1918575D03*
G01*
X8521700Y-2069224D03*
G01*
X9385300Y-2515475D03*
G01*
X9385300Y-2666124D03*
D20*
G01*
X9551275Y-2667000D03*
G01*
X9701924Y-2667000D03*
D19*
G01*
X10071100Y-1905875D03*
G01*
X10071100Y-2056524D03*
G01*
X11582400Y-1893175D03*
G01*
X11582400Y-2043824D03*
G01*
X4800600Y-2553575D03*
G01*
X4800600Y-2704224D03*
D20*
G01*
X4966575Y-2705100D03*
G01*
X5117224Y-2705100D03*
D19*
G01*
X5499100Y-1931275D03*
G01*
X5499100Y-2081924D03*
D20*
G01*
X11037175Y-2667000D03*
G01*
X11187824Y-2667000D03*
D19*
G01*
X10871200Y-2515475D03*
G01*
X10871200Y-2666124D03*
G01*
X6959600Y-4558424D03*
G01*
X6959600Y-4407775D03*
D20*
G01*
X6780924Y-4419600D03*
G01*
X6630275Y-4419600D03*
D19*
G01*
X6311900Y-5193424D03*
G01*
X6311900Y-5042775D03*
G01*
X7823200Y-5206124D03*
G01*
X7823200Y-5055475D03*
D20*
G01*
X8317624Y-4419600D03*
G01*
X8166975Y-4419600D03*
D19*
G01*
X8496300Y-4571124D03*
G01*
X8496300Y-4420475D03*
G01*
X9347200Y-5206124D03*
G01*
X9347200Y-5055475D03*
D20*
G01*
X9879724Y-4432300D03*
G01*
X9729075Y-4432300D03*
D19*
G01*
X10045700Y-4583824D03*
G01*
X10045700Y-4433175D03*
G01*
X11544300Y-4571124D03*
G01*
X11544300Y-4420475D03*
D20*
G01*
X11378324Y-4419600D03*
G01*
X11227675Y-4419600D03*
D19*
G01*
X10871200Y-5206124D03*
G01*
X10871200Y-5055475D03*
G01*
X13081000Y-1893175D03*
G01*
X13081000Y-2043824D03*
D20*
G01*
X12586575Y-2667000D03*
G01*
X12737224Y-2667000D03*
D19*
G01*
X12407900Y-2515475D03*
G01*
X12407900Y-2666124D03*
D21*
G01*
X6354800Y-1649996D03*
G01*
X6354800Y-1329997D03*
G01*
X6354800Y-1109997D03*
G01*
X6354800Y-889995D03*
G01*
X6954799Y-889995D03*
G01*
X6954799Y-1109997D03*
G01*
X6954799Y-1329997D03*
G01*
X6954799Y-1649996D03*
D22*
G01*
X3592699Y-804199D03*
D23*
G01*
X3822700Y-804199D03*
D22*
G01*
X4052700Y-804199D03*
D24*
G01*
X3822700Y-237200D03*
D25*
G01*
X3060700Y-356250D03*
G01*
X3060700Y-659749D03*
D21*
G01*
X7878800Y-1649996D03*
G01*
X7878800Y-1329997D03*
G01*
X7878800Y-1109997D03*
G01*
X7878800Y-889995D03*
G01*
X8478799Y-889995D03*
G01*
X8478799Y-1109997D03*
G01*
X8478799Y-1329997D03*
G01*
X8478799Y-1649996D03*
G01*
X9402800Y-1649996D03*
G01*
X9402800Y-1329997D03*
G01*
X9402800Y-1109997D03*
G01*
X9402800Y-889995D03*
G01*
X10002799Y-889995D03*
G01*
X10002799Y-1109997D03*
G01*
X10002799Y-1329997D03*
G01*
X10002799Y-1649996D03*
G01*
X10926800Y-1649996D03*
G01*
X10926800Y-1329997D03*
G01*
X10926800Y-1109997D03*
G01*
X10926800Y-889995D03*
G01*
X11526799Y-889995D03*
G01*
X11526799Y-1109997D03*
G01*
X11526799Y-1329997D03*
G01*
X11526799Y-1649996D03*
G01*
X6954799Y-5449303D03*
G01*
X6954799Y-5769302D03*
G01*
X6954799Y-5989302D03*
G01*
X6954799Y-6209304D03*
G01*
X6354800Y-6209304D03*
G01*
X6354800Y-5989302D03*
G01*
X6354800Y-5769302D03*
G01*
X6354800Y-5449303D03*
G01*
X8478799Y-5449303D03*
G01*
X8478799Y-5769302D03*
G01*
X8478799Y-5989302D03*
G01*
X8478799Y-6209304D03*
G01*
X7878800Y-6209304D03*
G01*
X7878800Y-5989302D03*
G01*
X7878800Y-5769302D03*
G01*
X7878800Y-5449303D03*
G01*
X10002799Y-5449303D03*
G01*
X10002799Y-5769302D03*
G01*
X10002799Y-5989302D03*
G01*
X10002799Y-6209304D03*
G01*
X9402800Y-6209304D03*
G01*
X9402800Y-5989302D03*
G01*
X9402800Y-5769302D03*
G01*
X9402800Y-5449303D03*
G01*
X11526799Y-5449303D03*
G01*
X11526799Y-5769302D03*
G01*
X11526799Y-5989302D03*
G01*
X11526799Y-6209304D03*
G01*
X10926800Y-6209304D03*
G01*
X10926800Y-5989302D03*
G01*
X10926800Y-5769302D03*
G01*
X10926800Y-5449303D03*
G01*
X4830800Y-1649996D03*
G01*
X4830800Y-1329997D03*
G01*
X4830800Y-1109997D03*
G01*
X4830800Y-889995D03*
G01*
X5430799Y-889995D03*
G01*
X5430799Y-1109997D03*
G01*
X5430799Y-1329997D03*
G01*
X5430799Y-1649996D03*
G01*
X12450800Y-1649996D03*
G01*
X12450800Y-1329997D03*
G01*
X12450800Y-1109997D03*
G01*
X12450800Y-889995D03*
G01*
X13050799Y-889995D03*
G01*
X13050799Y-1109997D03*
G01*
X13050799Y-1329997D03*
G01*
X13050799Y-1649996D03*
D26*
G01*
X1409700Y-1301249D03*
G01*
X1409700Y-1619750D03*
G01*
X1689100Y-1301249D03*
G01*
X1689100Y-1619750D03*
D27*
G01*
X1968500Y-1631800D03*
G01*
X1968500Y-1771799D03*
D28*
G01*
X2660799Y-2260600D03*
G01*
X2520800Y-2260600D03*
D29*
G01*
X2692400Y-1447800D03*
D30*
G01*
X2692402Y-1270001D03*
D31*
G01*
X1054100Y-1747375D03*
G01*
X1054100Y-1275224D03*
D20*
G01*
X2120024Y-1282700D03*
G01*
X1969375Y-1282700D03*
G01*
X2299575Y-1282700D03*
G01*
X2450224Y-1282700D03*
G01*
X2285124Y-2044700D03*
G01*
X2134475Y-2044700D03*
G01*
X2285124Y-2260600D03*
G01*
X2134475Y-2260600D03*
G01*
X2653424Y-2044700D03*
G01*
X2502775Y-2044700D03*
D32*
G01*
X2229104Y-1809099D03*
G01*
X2324098Y-1809099D03*
G01*
X2419094Y-1809099D03*
G01*
X2419094Y-1569100D03*
G01*
X2324098Y-1569100D03*
G01*
X2229104Y-1569100D03*
D33*
G01*
X3987149Y-1219200D03*
G01*
X3683650Y-1219200D03*
G01*
X3987149Y-1714500D03*
G01*
X3683650Y-1714500D03*
D11*
G01*
X4432300Y-2921000D03*
G01*
X5117236Y-2907436D03*
G01*
X6629400Y-2921000D03*
G01*
X8153400Y-2921000D03*
G01*
X9702800Y-2921000D03*
G01*
X11188598Y-2895600D03*
G01*
X10999063Y-4420362D03*
G01*
X9500463Y-4433062D03*
G01*
X7938363Y-4420362D03*
G01*
X6401663Y-4420362D03*
G01*
X7607300Y-5994400D03*
G01*
X7251700Y-5981700D03*
G01*
X6083300Y-5994400D03*
G01*
X8763000Y-5981700D03*
G01*
X9118600Y-5994400D03*
G01*
X10299700Y-5981700D03*
G01*
X10655300Y-5994400D03*
G01*
X11811000Y-5981700D03*
G01*
X12737998Y-2895600D03*
G01*
X11798300Y-1104900D03*
G01*
X12153900Y-1117600D03*
G01*
X13296900Y-1104900D03*
G01*
X10642600Y-1117600D03*
G01*
X10287000Y-1104900D03*
G01*
X9118600Y-1117600D03*
G01*
X8763000Y-1104900D03*
G01*
X7594600Y-1117600D03*
G01*
X7239000Y-1104900D03*
G01*
X4546600Y-1117600D03*
G01*
X5727700Y-1104900D03*
G01*
X6083300Y-1117600D03*
G01*
X4880356Y-266700D03*
G01*
X5381243Y-266700D03*
G01*
X6407911Y-266700D03*
G01*
X6908800Y-266700D03*
G01*
X7928356Y-266700D03*
G01*
X8429243Y-266700D03*
G01*
X9452356Y-266700D03*
G01*
X9953243Y-266700D03*
G01*
X10963656Y-266700D03*
G01*
X11464543Y-266700D03*
G01*
X12500356Y-266700D03*
G01*
X13001243Y-266700D03*
G01*
X11480800Y-6845300D03*
G01*
X10979911Y-6845300D03*
G01*
X9953243Y-6832600D03*
G01*
X9452356Y-6832600D03*
G01*
X8441943Y-6832600D03*
G01*
X7941056Y-6832600D03*
G01*
X6417056Y-6832600D03*
G01*
X6917943Y-6832600D03*
G01*
X1990343Y-304800D03*
G01*
X1489455Y-304800D03*
G01*
X987044Y-304800D03*
G01*
X486155Y-304800D03*
G01*
X3365500Y-3225800D03*
G01*
X3365500Y-3479800D03*
G01*
X3365500Y-3733800D03*
G01*
X3365500Y-3987800D03*
G01*
X3365500Y-4241800D03*
G01*
X3365500Y-4495800D03*
G01*
X3365500Y-4749800D03*
G01*
X3365500Y-4495800D03*
G01*
X1841500Y-2971800D03*
G01*
X1841500Y-3225800D03*
G01*
X1841500Y-3479800D03*
G01*
X1841500Y-3733800D03*
G01*
X1841500Y-3987800D03*
G01*
X1841500Y-4241800D03*
G01*
X1841500Y-4495800D03*
G01*
X1841500Y-4749800D03*
G01*
X1841500Y-5003800D03*
G01*
X1841500Y-5257800D03*
G01*
X1841500Y-5511800D03*
G01*
X1841500Y-5765800D03*
G01*
X1841500Y-6019800D03*
G01*
X1841500Y-6273800D03*
G01*
X1841500Y-6527800D03*
G01*
X3365500Y-6527800D03*
G01*
X3365500Y-6273800D03*
G01*
X3365500Y-6019800D03*
G01*
X3365500Y-5765800D03*
G01*
X3365500Y-5511800D03*
G01*
X3365500Y-5257800D03*
G01*
X3365500Y-5003800D03*
G01*
X3365500Y-4749800D03*
G01*
X3365500Y-4495800D03*
G01*
X3365500Y-4241800D03*
G01*
X3365500Y-3987800D03*
G01*
X3365500Y-3733800D03*
G01*
X3365500Y-3479800D03*
G01*
X3365500Y-3225800D03*
G01*
X3365500Y-2971800D03*
G01*
X1168400Y-6769100D03*
G01*
X914400Y-6769100D03*
G01*
X660400Y-6769100D03*
G01*
X406400Y-6769100D03*
G01*
X406400Y-2705100D03*
G01*
X660400Y-2705100D03*
G01*
X914400Y-2705100D03*
G01*
X1168400Y-2705100D03*
M02*
