G04 Layer: TopPasteMaskLayer*
G04 EasyEDA v6.5.54, 2026-04-18 11:19:19*
G04 80c0d0d825154b2e81aaa2e26132e95f,eb0817546e0d4687b5c27ca6143d63b0,10*
G04 Gerber Generator version 0.2*
G04 Scale: 100 percent, Rotated: No, Reflected: No *
G04 Dimensions in millimeters *
G04 leading zeros omitted , absolute positions ,4 integer and 5 decimal *
%FSLAX45Y45*%
%MOMM*%

%AMMACRO1*21,1,$1,$2,0,0,$3*%
%ADD10MACRO1,2.1924X2.0475X90.0000*%
%ADD11R,0.8000X0.8000*%
%ADD12MACRO1,2X1X0.0000*%
%ADD13R,0.5250X0.9190*%
%ADD14R,2.0000X0.7000*%
%ADD15R,0.9800X2.4700*%
%ADD16MACRO1,3.6X2.47X0.0000*%
%ADD17R,0.9000X0.8000*%
%ADD18R,0.8000X0.9000*%
%ADD19R,0.0182X0.9000*%
%ADD20R,0.9000X1.5000*%
%ADD21R,0.7000X1.0000*%
%ADD22MACRO1,2.1924X2.0475X0.0000*%
%ADD23R,2.1924X2.0475*%
%ADD24R,0.5320X0.8000*%

%LPD*%
G36*
X6957720Y-1882089D02*
G01*
X6952691Y-1887118D01*
X6952691Y-1967077D01*
X6957720Y-1972106D01*
X6980478Y-1972106D01*
X6980478Y-1935073D01*
X7013498Y-1935073D01*
X7013498Y-1972106D01*
X7037679Y-1972106D01*
X7042708Y-1967077D01*
X7042708Y-1887118D01*
X7037679Y-1882089D01*
G37*
G36*
X6957720Y-2041093D02*
G01*
X6952691Y-2046122D01*
X6952691Y-2126081D01*
X6957720Y-2131110D01*
X7037679Y-2131110D01*
X7042708Y-2126081D01*
X7042708Y-2046122D01*
X7037679Y-2041093D01*
X7014921Y-2041093D01*
X7014921Y-2078126D01*
X6981901Y-2078126D01*
X6981901Y-2041093D01*
G37*
G36*
X6433718Y-2634691D02*
G01*
X6428689Y-2639720D01*
X6428689Y-2719679D01*
X6433718Y-2724708D01*
X6513677Y-2724708D01*
X6518706Y-2719679D01*
X6518706Y-2696921D01*
X6481724Y-2696921D01*
X6481724Y-2663901D01*
X6518706Y-2663901D01*
X6518706Y-2639720D01*
X6513677Y-2634691D01*
G37*
G36*
X6592722Y-2634691D02*
G01*
X6587693Y-2639720D01*
X6587693Y-2662478D01*
X6624675Y-2662478D01*
X6624675Y-2695498D01*
X6587693Y-2695498D01*
X6587693Y-2719679D01*
X6592722Y-2724708D01*
X6672681Y-2724708D01*
X6677710Y-2719679D01*
X6677710Y-2639720D01*
X6672681Y-2634691D01*
G37*
G36*
X6271920Y-2491689D02*
G01*
X6266891Y-2496718D01*
X6266891Y-2576677D01*
X6271920Y-2581706D01*
X6294678Y-2581706D01*
X6294678Y-2544673D01*
X6327698Y-2544673D01*
X6327698Y-2581706D01*
X6351879Y-2581706D01*
X6356908Y-2576677D01*
X6356908Y-2496718D01*
X6351879Y-2491689D01*
G37*
G36*
X6271920Y-2650693D02*
G01*
X6266891Y-2655722D01*
X6266891Y-2735681D01*
X6271920Y-2740710D01*
X6351879Y-2740710D01*
X6356908Y-2735681D01*
X6356908Y-2655722D01*
X6351879Y-2650693D01*
X6329121Y-2650693D01*
X6329121Y-2687726D01*
X6296101Y-2687726D01*
X6296101Y-2650693D01*
G37*
G36*
X7783220Y-2491689D02*
G01*
X7778191Y-2496718D01*
X7778191Y-2576677D01*
X7783220Y-2581706D01*
X7805978Y-2581706D01*
X7805978Y-2544673D01*
X7838998Y-2544673D01*
X7838998Y-2581706D01*
X7863179Y-2581706D01*
X7868208Y-2576677D01*
X7868208Y-2496718D01*
X7863179Y-2491689D01*
G37*
G36*
X7783220Y-2650693D02*
G01*
X7778191Y-2655722D01*
X7778191Y-2735681D01*
X7783220Y-2740710D01*
X7863179Y-2740710D01*
X7868208Y-2735681D01*
X7868208Y-2655722D01*
X7863179Y-2650693D01*
X7840421Y-2650693D01*
X7840421Y-2687726D01*
X7807401Y-2687726D01*
X7807401Y-2650693D01*
G37*
G36*
X7957718Y-2647391D02*
G01*
X7952689Y-2652420D01*
X7952689Y-2732379D01*
X7957718Y-2737408D01*
X8037677Y-2737408D01*
X8042706Y-2732379D01*
X8042706Y-2709621D01*
X8005724Y-2709621D01*
X8005724Y-2676601D01*
X8042706Y-2676601D01*
X8042706Y-2652420D01*
X8037677Y-2647391D01*
G37*
G36*
X8116722Y-2647391D02*
G01*
X8111693Y-2652420D01*
X8111693Y-2675178D01*
X8148675Y-2675178D01*
X8148675Y-2708198D01*
X8111693Y-2708198D01*
X8111693Y-2732379D01*
X8116722Y-2737408D01*
X8196681Y-2737408D01*
X8201710Y-2732379D01*
X8201710Y-2652420D01*
X8196681Y-2647391D01*
G37*
G36*
X8481720Y-1869389D02*
G01*
X8476691Y-1874418D01*
X8476691Y-1954377D01*
X8481720Y-1959406D01*
X8504478Y-1959406D01*
X8504478Y-1922373D01*
X8537498Y-1922373D01*
X8537498Y-1959406D01*
X8561679Y-1959406D01*
X8566708Y-1954377D01*
X8566708Y-1874418D01*
X8561679Y-1869389D01*
G37*
G36*
X8481720Y-2028393D02*
G01*
X8476691Y-2033422D01*
X8476691Y-2113381D01*
X8481720Y-2118410D01*
X8561679Y-2118410D01*
X8566708Y-2113381D01*
X8566708Y-2033422D01*
X8561679Y-2028393D01*
X8538921Y-2028393D01*
X8538921Y-2065426D01*
X8505901Y-2065426D01*
X8505901Y-2028393D01*
G37*
G36*
X9345320Y-2466289D02*
G01*
X9340291Y-2471318D01*
X9340291Y-2551277D01*
X9345320Y-2556306D01*
X9368078Y-2556306D01*
X9368078Y-2519273D01*
X9401098Y-2519273D01*
X9401098Y-2556306D01*
X9425279Y-2556306D01*
X9430308Y-2551277D01*
X9430308Y-2471318D01*
X9425279Y-2466289D01*
G37*
G36*
X9345320Y-2625293D02*
G01*
X9340291Y-2630322D01*
X9340291Y-2710281D01*
X9345320Y-2715310D01*
X9425279Y-2715310D01*
X9430308Y-2710281D01*
X9430308Y-2630322D01*
X9425279Y-2625293D01*
X9402521Y-2625293D01*
X9402521Y-2662326D01*
X9369501Y-2662326D01*
X9369501Y-2625293D01*
G37*
G36*
X9507118Y-2621991D02*
G01*
X9502089Y-2627020D01*
X9502089Y-2706979D01*
X9507118Y-2712008D01*
X9587077Y-2712008D01*
X9592106Y-2706979D01*
X9592106Y-2684221D01*
X9555124Y-2684221D01*
X9555124Y-2651201D01*
X9592106Y-2651201D01*
X9592106Y-2627020D01*
X9587077Y-2621991D01*
G37*
G36*
X9666122Y-2621991D02*
G01*
X9661093Y-2627020D01*
X9661093Y-2649778D01*
X9698075Y-2649778D01*
X9698075Y-2682798D01*
X9661093Y-2682798D01*
X9661093Y-2706979D01*
X9666122Y-2712008D01*
X9746081Y-2712008D01*
X9751110Y-2706979D01*
X9751110Y-2627020D01*
X9746081Y-2621991D01*
G37*
G36*
X10031120Y-1856689D02*
G01*
X10026091Y-1861718D01*
X10026091Y-1941677D01*
X10031120Y-1946706D01*
X10053878Y-1946706D01*
X10053878Y-1909673D01*
X10086898Y-1909673D01*
X10086898Y-1946706D01*
X10111079Y-1946706D01*
X10116108Y-1941677D01*
X10116108Y-1861718D01*
X10111079Y-1856689D01*
G37*
G36*
X10031120Y-2015693D02*
G01*
X10026091Y-2020722D01*
X10026091Y-2100681D01*
X10031120Y-2105710D01*
X10111079Y-2105710D01*
X10116108Y-2100681D01*
X10116108Y-2020722D01*
X10111079Y-2015693D01*
X10088321Y-2015693D01*
X10088321Y-2052726D01*
X10055301Y-2052726D01*
X10055301Y-2015693D01*
G37*
G36*
X11542420Y-1843989D02*
G01*
X11537391Y-1849018D01*
X11537391Y-1928977D01*
X11542420Y-1934006D01*
X11565178Y-1934006D01*
X11565178Y-1896973D01*
X11598198Y-1896973D01*
X11598198Y-1934006D01*
X11622379Y-1934006D01*
X11627408Y-1928977D01*
X11627408Y-1849018D01*
X11622379Y-1843989D01*
G37*
G36*
X11542420Y-2002993D02*
G01*
X11537391Y-2008022D01*
X11537391Y-2087981D01*
X11542420Y-2093010D01*
X11622379Y-2093010D01*
X11627408Y-2087981D01*
X11627408Y-2008022D01*
X11622379Y-2002993D01*
X11599621Y-2002993D01*
X11599621Y-2040026D01*
X11566601Y-2040026D01*
X11566601Y-2002993D01*
G37*
G36*
X4760620Y-2504389D02*
G01*
X4755591Y-2509418D01*
X4755591Y-2589377D01*
X4760620Y-2594406D01*
X4783378Y-2594406D01*
X4783378Y-2557373D01*
X4816398Y-2557373D01*
X4816398Y-2594406D01*
X4840579Y-2594406D01*
X4845608Y-2589377D01*
X4845608Y-2509418D01*
X4840579Y-2504389D01*
G37*
G36*
X4760620Y-2663393D02*
G01*
X4755591Y-2668422D01*
X4755591Y-2748381D01*
X4760620Y-2753410D01*
X4840579Y-2753410D01*
X4845608Y-2748381D01*
X4845608Y-2668422D01*
X4840579Y-2663393D01*
X4817821Y-2663393D01*
X4817821Y-2700426D01*
X4784801Y-2700426D01*
X4784801Y-2663393D01*
G37*
G36*
X4922418Y-2660091D02*
G01*
X4917389Y-2665120D01*
X4917389Y-2745079D01*
X4922418Y-2750108D01*
X5002377Y-2750108D01*
X5007406Y-2745079D01*
X5007406Y-2722321D01*
X4970424Y-2722321D01*
X4970424Y-2689301D01*
X5007406Y-2689301D01*
X5007406Y-2665120D01*
X5002377Y-2660091D01*
G37*
G36*
X5081422Y-2660091D02*
G01*
X5076393Y-2665120D01*
X5076393Y-2687878D01*
X5113375Y-2687878D01*
X5113375Y-2720898D01*
X5076393Y-2720898D01*
X5076393Y-2745079D01*
X5081422Y-2750108D01*
X5161381Y-2750108D01*
X5166410Y-2745079D01*
X5166410Y-2665120D01*
X5161381Y-2660091D01*
G37*
G36*
X5459120Y-1882089D02*
G01*
X5454091Y-1887118D01*
X5454091Y-1967077D01*
X5459120Y-1972106D01*
X5481878Y-1972106D01*
X5481878Y-1935073D01*
X5514898Y-1935073D01*
X5514898Y-1972106D01*
X5539079Y-1972106D01*
X5544108Y-1967077D01*
X5544108Y-1887118D01*
X5539079Y-1882089D01*
G37*
G36*
X5459120Y-2041093D02*
G01*
X5454091Y-2046122D01*
X5454091Y-2126081D01*
X5459120Y-2131110D01*
X5539079Y-2131110D01*
X5544108Y-2126081D01*
X5544108Y-2046122D01*
X5539079Y-2041093D01*
X5516321Y-2041093D01*
X5516321Y-2078126D01*
X5483301Y-2078126D01*
X5483301Y-2041093D01*
G37*
G36*
X10993018Y-2621991D02*
G01*
X10987989Y-2627020D01*
X10987989Y-2706979D01*
X10993018Y-2712008D01*
X11072977Y-2712008D01*
X11078006Y-2706979D01*
X11078006Y-2684221D01*
X11041024Y-2684221D01*
X11041024Y-2651201D01*
X11078006Y-2651201D01*
X11078006Y-2627020D01*
X11072977Y-2621991D01*
G37*
G36*
X11152022Y-2621991D02*
G01*
X11146993Y-2627020D01*
X11146993Y-2649778D01*
X11183975Y-2649778D01*
X11183975Y-2682798D01*
X11146993Y-2682798D01*
X11146993Y-2706979D01*
X11152022Y-2712008D01*
X11231981Y-2712008D01*
X11237010Y-2706979D01*
X11237010Y-2627020D01*
X11231981Y-2621991D01*
G37*
G36*
X10831220Y-2466289D02*
G01*
X10826191Y-2471318D01*
X10826191Y-2551277D01*
X10831220Y-2556306D01*
X10853978Y-2556306D01*
X10853978Y-2519273D01*
X10886998Y-2519273D01*
X10886998Y-2556306D01*
X10911179Y-2556306D01*
X10916208Y-2551277D01*
X10916208Y-2471318D01*
X10911179Y-2466289D01*
G37*
G36*
X10831220Y-2625293D02*
G01*
X10826191Y-2630322D01*
X10826191Y-2710281D01*
X10831220Y-2715310D01*
X10911179Y-2715310D01*
X10916208Y-2710281D01*
X10916208Y-2630322D01*
X10911179Y-2625293D01*
X10888421Y-2625293D01*
X10888421Y-2662326D01*
X10855401Y-2662326D01*
X10855401Y-2625293D01*
G37*
G36*
X6919620Y-4517593D02*
G01*
X6914591Y-4522622D01*
X6914591Y-4602581D01*
X6919620Y-4607610D01*
X6999579Y-4607610D01*
X7004608Y-4602581D01*
X7004608Y-4522622D01*
X6999579Y-4517593D01*
X6976821Y-4517593D01*
X6976821Y-4554626D01*
X6943801Y-4554626D01*
X6943801Y-4517593D01*
G37*
G36*
X6919620Y-4358589D02*
G01*
X6914591Y-4363618D01*
X6914591Y-4443577D01*
X6919620Y-4448606D01*
X6942378Y-4448606D01*
X6942378Y-4411573D01*
X6975398Y-4411573D01*
X6975398Y-4448606D01*
X6999579Y-4448606D01*
X7004608Y-4443577D01*
X7004608Y-4363618D01*
X6999579Y-4358589D01*
G37*
G36*
X6745122Y-4374591D02*
G01*
X6740093Y-4379620D01*
X6740093Y-4402378D01*
X6777075Y-4402378D01*
X6777075Y-4435398D01*
X6740093Y-4435398D01*
X6740093Y-4459579D01*
X6745122Y-4464608D01*
X6825081Y-4464608D01*
X6830110Y-4459579D01*
X6830110Y-4379620D01*
X6825081Y-4374591D01*
G37*
G36*
X6586118Y-4374591D02*
G01*
X6581089Y-4379620D01*
X6581089Y-4459579D01*
X6586118Y-4464608D01*
X6666077Y-4464608D01*
X6671106Y-4459579D01*
X6671106Y-4436821D01*
X6634124Y-4436821D01*
X6634124Y-4403801D01*
X6671106Y-4403801D01*
X6671106Y-4379620D01*
X6666077Y-4374591D01*
G37*
G36*
X6271920Y-5152593D02*
G01*
X6266891Y-5157622D01*
X6266891Y-5237581D01*
X6271920Y-5242610D01*
X6351879Y-5242610D01*
X6356908Y-5237581D01*
X6356908Y-5157622D01*
X6351879Y-5152593D01*
X6329121Y-5152593D01*
X6329121Y-5189626D01*
X6296101Y-5189626D01*
X6296101Y-5152593D01*
G37*
G36*
X6271920Y-4993589D02*
G01*
X6266891Y-4998618D01*
X6266891Y-5078577D01*
X6271920Y-5083606D01*
X6294678Y-5083606D01*
X6294678Y-5046573D01*
X6327698Y-5046573D01*
X6327698Y-5083606D01*
X6351879Y-5083606D01*
X6356908Y-5078577D01*
X6356908Y-4998618D01*
X6351879Y-4993589D01*
G37*
G36*
X7783220Y-5165293D02*
G01*
X7778191Y-5170322D01*
X7778191Y-5250281D01*
X7783220Y-5255310D01*
X7863179Y-5255310D01*
X7868208Y-5250281D01*
X7868208Y-5170322D01*
X7863179Y-5165293D01*
X7840421Y-5165293D01*
X7840421Y-5202326D01*
X7807401Y-5202326D01*
X7807401Y-5165293D01*
G37*
G36*
X7783220Y-5006289D02*
G01*
X7778191Y-5011318D01*
X7778191Y-5091277D01*
X7783220Y-5096306D01*
X7805978Y-5096306D01*
X7805978Y-5059273D01*
X7838998Y-5059273D01*
X7838998Y-5096306D01*
X7863179Y-5096306D01*
X7868208Y-5091277D01*
X7868208Y-5011318D01*
X7863179Y-5006289D01*
G37*
G36*
X8281822Y-4374591D02*
G01*
X8276793Y-4379620D01*
X8276793Y-4402378D01*
X8313775Y-4402378D01*
X8313775Y-4435398D01*
X8276793Y-4435398D01*
X8276793Y-4459579D01*
X8281822Y-4464608D01*
X8361781Y-4464608D01*
X8366810Y-4459579D01*
X8366810Y-4379620D01*
X8361781Y-4374591D01*
G37*
G36*
X8122818Y-4374591D02*
G01*
X8117789Y-4379620D01*
X8117789Y-4459579D01*
X8122818Y-4464608D01*
X8202777Y-4464608D01*
X8207806Y-4459579D01*
X8207806Y-4436821D01*
X8170824Y-4436821D01*
X8170824Y-4403801D01*
X8207806Y-4403801D01*
X8207806Y-4379620D01*
X8202777Y-4374591D01*
G37*
G36*
X8456320Y-4530293D02*
G01*
X8451291Y-4535322D01*
X8451291Y-4615281D01*
X8456320Y-4620310D01*
X8536279Y-4620310D01*
X8541308Y-4615281D01*
X8541308Y-4535322D01*
X8536279Y-4530293D01*
X8513521Y-4530293D01*
X8513521Y-4567326D01*
X8480501Y-4567326D01*
X8480501Y-4530293D01*
G37*
G36*
X8456320Y-4371289D02*
G01*
X8451291Y-4376318D01*
X8451291Y-4456277D01*
X8456320Y-4461306D01*
X8479078Y-4461306D01*
X8479078Y-4424273D01*
X8512098Y-4424273D01*
X8512098Y-4461306D01*
X8536279Y-4461306D01*
X8541308Y-4456277D01*
X8541308Y-4376318D01*
X8536279Y-4371289D01*
G37*
G36*
X9307220Y-5165293D02*
G01*
X9302191Y-5170322D01*
X9302191Y-5250281D01*
X9307220Y-5255310D01*
X9387179Y-5255310D01*
X9392208Y-5250281D01*
X9392208Y-5170322D01*
X9387179Y-5165293D01*
X9364421Y-5165293D01*
X9364421Y-5202326D01*
X9331401Y-5202326D01*
X9331401Y-5165293D01*
G37*
G36*
X9307220Y-5006289D02*
G01*
X9302191Y-5011318D01*
X9302191Y-5091277D01*
X9307220Y-5096306D01*
X9329978Y-5096306D01*
X9329978Y-5059273D01*
X9362998Y-5059273D01*
X9362998Y-5096306D01*
X9387179Y-5096306D01*
X9392208Y-5091277D01*
X9392208Y-5011318D01*
X9387179Y-5006289D01*
G37*
G36*
X9843922Y-4387291D02*
G01*
X9838893Y-4392320D01*
X9838893Y-4415078D01*
X9875875Y-4415078D01*
X9875875Y-4448098D01*
X9838893Y-4448098D01*
X9838893Y-4472279D01*
X9843922Y-4477308D01*
X9923881Y-4477308D01*
X9928910Y-4472279D01*
X9928910Y-4392320D01*
X9923881Y-4387291D01*
G37*
G36*
X9684918Y-4387291D02*
G01*
X9679889Y-4392320D01*
X9679889Y-4472279D01*
X9684918Y-4477308D01*
X9764877Y-4477308D01*
X9769906Y-4472279D01*
X9769906Y-4449521D01*
X9732924Y-4449521D01*
X9732924Y-4416501D01*
X9769906Y-4416501D01*
X9769906Y-4392320D01*
X9764877Y-4387291D01*
G37*
G36*
X10005720Y-4542993D02*
G01*
X10000691Y-4548022D01*
X10000691Y-4627981D01*
X10005720Y-4633010D01*
X10085679Y-4633010D01*
X10090708Y-4627981D01*
X10090708Y-4548022D01*
X10085679Y-4542993D01*
X10062921Y-4542993D01*
X10062921Y-4580026D01*
X10029901Y-4580026D01*
X10029901Y-4542993D01*
G37*
G36*
X10005720Y-4383989D02*
G01*
X10000691Y-4389018D01*
X10000691Y-4468977D01*
X10005720Y-4474006D01*
X10028478Y-4474006D01*
X10028478Y-4436973D01*
X10061498Y-4436973D01*
X10061498Y-4474006D01*
X10085679Y-4474006D01*
X10090708Y-4468977D01*
X10090708Y-4389018D01*
X10085679Y-4383989D01*
G37*
G36*
X11504320Y-4530293D02*
G01*
X11499291Y-4535322D01*
X11499291Y-4615281D01*
X11504320Y-4620310D01*
X11584279Y-4620310D01*
X11589308Y-4615281D01*
X11589308Y-4535322D01*
X11584279Y-4530293D01*
X11561521Y-4530293D01*
X11561521Y-4567326D01*
X11528501Y-4567326D01*
X11528501Y-4530293D01*
G37*
G36*
X11504320Y-4371289D02*
G01*
X11499291Y-4376318D01*
X11499291Y-4456277D01*
X11504320Y-4461306D01*
X11527078Y-4461306D01*
X11527078Y-4424273D01*
X11560098Y-4424273D01*
X11560098Y-4461306D01*
X11584279Y-4461306D01*
X11589308Y-4456277D01*
X11589308Y-4376318D01*
X11584279Y-4371289D01*
G37*
G36*
X11342522Y-4374591D02*
G01*
X11337493Y-4379620D01*
X11337493Y-4402378D01*
X11374475Y-4402378D01*
X11374475Y-4435398D01*
X11337493Y-4435398D01*
X11337493Y-4459579D01*
X11342522Y-4464608D01*
X11422481Y-4464608D01*
X11427510Y-4459579D01*
X11427510Y-4379620D01*
X11422481Y-4374591D01*
G37*
G36*
X11183518Y-4374591D02*
G01*
X11178489Y-4379620D01*
X11178489Y-4459579D01*
X11183518Y-4464608D01*
X11263477Y-4464608D01*
X11268506Y-4459579D01*
X11268506Y-4436821D01*
X11231524Y-4436821D01*
X11231524Y-4403801D01*
X11268506Y-4403801D01*
X11268506Y-4379620D01*
X11263477Y-4374591D01*
G37*
G36*
X10831220Y-5165293D02*
G01*
X10826191Y-5170322D01*
X10826191Y-5250281D01*
X10831220Y-5255310D01*
X10911179Y-5255310D01*
X10916208Y-5250281D01*
X10916208Y-5170322D01*
X10911179Y-5165293D01*
X10888421Y-5165293D01*
X10888421Y-5202326D01*
X10855401Y-5202326D01*
X10855401Y-5165293D01*
G37*
G36*
X10831220Y-5006289D02*
G01*
X10826191Y-5011318D01*
X10826191Y-5091277D01*
X10831220Y-5096306D01*
X10853978Y-5096306D01*
X10853978Y-5059273D01*
X10886998Y-5059273D01*
X10886998Y-5096306D01*
X10911179Y-5096306D01*
X10916208Y-5091277D01*
X10916208Y-5011318D01*
X10911179Y-5006289D01*
G37*
G36*
X13041020Y-1843989D02*
G01*
X13035991Y-1849018D01*
X13035991Y-1928977D01*
X13041020Y-1934006D01*
X13063778Y-1934006D01*
X13063778Y-1896973D01*
X13096798Y-1896973D01*
X13096798Y-1934006D01*
X13120979Y-1934006D01*
X13126008Y-1928977D01*
X13126008Y-1849018D01*
X13120979Y-1843989D01*
G37*
G36*
X13041020Y-2002993D02*
G01*
X13035991Y-2008022D01*
X13035991Y-2087981D01*
X13041020Y-2093010D01*
X13120979Y-2093010D01*
X13126008Y-2087981D01*
X13126008Y-2008022D01*
X13120979Y-2002993D01*
X13098221Y-2002993D01*
X13098221Y-2040026D01*
X13065201Y-2040026D01*
X13065201Y-2002993D01*
G37*
G36*
X12542418Y-2621991D02*
G01*
X12537389Y-2627020D01*
X12537389Y-2706979D01*
X12542418Y-2712008D01*
X12622377Y-2712008D01*
X12627406Y-2706979D01*
X12627406Y-2684221D01*
X12590424Y-2684221D01*
X12590424Y-2651201D01*
X12627406Y-2651201D01*
X12627406Y-2627020D01*
X12622377Y-2621991D01*
G37*
G36*
X12701422Y-2621991D02*
G01*
X12696393Y-2627020D01*
X12696393Y-2649778D01*
X12733375Y-2649778D01*
X12733375Y-2682798D01*
X12696393Y-2682798D01*
X12696393Y-2706979D01*
X12701422Y-2712008D01*
X12781381Y-2712008D01*
X12786410Y-2706979D01*
X12786410Y-2627020D01*
X12781381Y-2621991D01*
G37*
G36*
X12367920Y-2466289D02*
G01*
X12362891Y-2471318D01*
X12362891Y-2551277D01*
X12367920Y-2556306D01*
X12390678Y-2556306D01*
X12390678Y-2519273D01*
X12423698Y-2519273D01*
X12423698Y-2556306D01*
X12447879Y-2556306D01*
X12452908Y-2551277D01*
X12452908Y-2471318D01*
X12447879Y-2466289D01*
G37*
G36*
X12367920Y-2625293D02*
G01*
X12362891Y-2630322D01*
X12362891Y-2710281D01*
X12367920Y-2715310D01*
X12447879Y-2715310D01*
X12452908Y-2710281D01*
X12452908Y-2630322D01*
X12447879Y-2625293D01*
X12425121Y-2625293D01*
X12425121Y-2662326D01*
X12392101Y-2662326D01*
X12392101Y-2625293D01*
G37*
G36*
X2935681Y-274523D02*
G01*
X2925724Y-284480D01*
X2925724Y-427990D01*
X2935681Y-437997D01*
X3004820Y-437997D01*
X3014776Y-427990D01*
X3014776Y-392430D01*
X3024784Y-382422D01*
X3096615Y-382422D01*
X3106623Y-392430D01*
X3106623Y-427990D01*
X3116580Y-437997D01*
X3185718Y-437997D01*
X3195675Y-427990D01*
X3195675Y-284480D01*
X3185718Y-274523D01*
G37*
G36*
X2935681Y-578002D02*
G01*
X2925724Y-588010D01*
X2925724Y-731520D01*
X2935681Y-741476D01*
X3185718Y-741476D01*
X3195675Y-731520D01*
X3195675Y-588010D01*
X3185718Y-578002D01*
X3116580Y-578002D01*
X3106623Y-588010D01*
X3106623Y-623570D01*
X3096615Y-633577D01*
X3024784Y-633577D01*
X3014776Y-623570D01*
X3014776Y-588010D01*
X3004820Y-578002D01*
G37*
G36*
X1333296Y-1227023D02*
G01*
X1323289Y-1236980D01*
X1323289Y-1365504D01*
X1333296Y-1375511D01*
X1370330Y-1375511D01*
X1380337Y-1365504D01*
X1380337Y-1335024D01*
X1390345Y-1325016D01*
X1429054Y-1325016D01*
X1439062Y-1335024D01*
X1439062Y-1365504D01*
X1449070Y-1375511D01*
X1486103Y-1375511D01*
X1496110Y-1365504D01*
X1496110Y-1236980D01*
X1486103Y-1227023D01*
G37*
G36*
X1333296Y-1545488D02*
G01*
X1323289Y-1555496D01*
X1323289Y-1684020D01*
X1333296Y-1693976D01*
X1486103Y-1693976D01*
X1496110Y-1684020D01*
X1496110Y-1555496D01*
X1486103Y-1545488D01*
X1449070Y-1545488D01*
X1439062Y-1555496D01*
X1439062Y-1585976D01*
X1429054Y-1595983D01*
X1390345Y-1595983D01*
X1380337Y-1585976D01*
X1380337Y-1555496D01*
X1370330Y-1545488D01*
G37*
G36*
X1612696Y-1227023D02*
G01*
X1602689Y-1236980D01*
X1602689Y-1365504D01*
X1612696Y-1375511D01*
X1649730Y-1375511D01*
X1659737Y-1365504D01*
X1659737Y-1335024D01*
X1669745Y-1325016D01*
X1708454Y-1325016D01*
X1718462Y-1335024D01*
X1718462Y-1365504D01*
X1728470Y-1375511D01*
X1765503Y-1375511D01*
X1775510Y-1365504D01*
X1775510Y-1236980D01*
X1765503Y-1227023D01*
G37*
G36*
X1612696Y-1545488D02*
G01*
X1602689Y-1555496D01*
X1602689Y-1684020D01*
X1612696Y-1693976D01*
X1765503Y-1693976D01*
X1775510Y-1684020D01*
X1775510Y-1555496D01*
X1765503Y-1545488D01*
X1728470Y-1545488D01*
X1718462Y-1555496D01*
X1718462Y-1585976D01*
X1708454Y-1595983D01*
X1669745Y-1595983D01*
X1659737Y-1585976D01*
X1659737Y-1555496D01*
X1649730Y-1545488D01*
G37*
G36*
X2084222Y-1237691D02*
G01*
X2079193Y-1242720D01*
X2079193Y-1265478D01*
X2116175Y-1265478D01*
X2116175Y-1298498D01*
X2079193Y-1298498D01*
X2079193Y-1322679D01*
X2084222Y-1327708D01*
X2164181Y-1327708D01*
X2169210Y-1322679D01*
X2169210Y-1242720D01*
X2164181Y-1237691D01*
G37*
G36*
X1925218Y-1237691D02*
G01*
X1920189Y-1242720D01*
X1920189Y-1322679D01*
X1925218Y-1327708D01*
X2005177Y-1327708D01*
X2010206Y-1322679D01*
X2010206Y-1299921D01*
X1973224Y-1299921D01*
X1973224Y-1266901D01*
X2010206Y-1266901D01*
X2010206Y-1242720D01*
X2005177Y-1237691D01*
G37*
G36*
X2255418Y-1237691D02*
G01*
X2250389Y-1242720D01*
X2250389Y-1322679D01*
X2255418Y-1327708D01*
X2335377Y-1327708D01*
X2340406Y-1322679D01*
X2340406Y-1299921D01*
X2303424Y-1299921D01*
X2303424Y-1266901D01*
X2340406Y-1266901D01*
X2340406Y-1242720D01*
X2335377Y-1237691D01*
G37*
G36*
X2414422Y-1237691D02*
G01*
X2409393Y-1242720D01*
X2409393Y-1265478D01*
X2446375Y-1265478D01*
X2446375Y-1298498D01*
X2409393Y-1298498D01*
X2409393Y-1322679D01*
X2414422Y-1327708D01*
X2494381Y-1327708D01*
X2499410Y-1322679D01*
X2499410Y-1242720D01*
X2494381Y-1237691D01*
G37*
G36*
X2249322Y-1999691D02*
G01*
X2244293Y-2004720D01*
X2244293Y-2027478D01*
X2281275Y-2027478D01*
X2281275Y-2060498D01*
X2244293Y-2060498D01*
X2244293Y-2084679D01*
X2249322Y-2089708D01*
X2329281Y-2089708D01*
X2334310Y-2084679D01*
X2334310Y-2004720D01*
X2329281Y-1999691D01*
G37*
G36*
X2090318Y-1999691D02*
G01*
X2085289Y-2004720D01*
X2085289Y-2084679D01*
X2090318Y-2089708D01*
X2170277Y-2089708D01*
X2175306Y-2084679D01*
X2175306Y-2061921D01*
X2138324Y-2061921D01*
X2138324Y-2028901D01*
X2175306Y-2028901D01*
X2175306Y-2004720D01*
X2170277Y-1999691D01*
G37*
G36*
X2249322Y-2215591D02*
G01*
X2244293Y-2220620D01*
X2244293Y-2243378D01*
X2281275Y-2243378D01*
X2281275Y-2276398D01*
X2244293Y-2276398D01*
X2244293Y-2300579D01*
X2249322Y-2305608D01*
X2329281Y-2305608D01*
X2334310Y-2300579D01*
X2334310Y-2220620D01*
X2329281Y-2215591D01*
G37*
G36*
X2090318Y-2215591D02*
G01*
X2085289Y-2220620D01*
X2085289Y-2300579D01*
X2090318Y-2305608D01*
X2170277Y-2305608D01*
X2175306Y-2300579D01*
X2175306Y-2277821D01*
X2138324Y-2277821D01*
X2138324Y-2244801D01*
X2175306Y-2244801D01*
X2175306Y-2220620D01*
X2170277Y-2215591D01*
G37*
G36*
X2617622Y-1999691D02*
G01*
X2612593Y-2004720D01*
X2612593Y-2027478D01*
X2649575Y-2027478D01*
X2649575Y-2060498D01*
X2612593Y-2060498D01*
X2612593Y-2084679D01*
X2617622Y-2089708D01*
X2697581Y-2089708D01*
X2702610Y-2084679D01*
X2702610Y-2004720D01*
X2697581Y-1999691D01*
G37*
G36*
X2458618Y-1999691D02*
G01*
X2453589Y-2004720D01*
X2453589Y-2084679D01*
X2458618Y-2089708D01*
X2538577Y-2089708D01*
X2543606Y-2084679D01*
X2543606Y-2061921D01*
X2506624Y-2061921D01*
X2506624Y-2028901D01*
X2543606Y-2028901D01*
X2543606Y-2004720D01*
X2538577Y-1999691D01*
G37*
G36*
X3915410Y-1084173D02*
G01*
X3905402Y-1094181D01*
X3905402Y-1163320D01*
X3915410Y-1173276D01*
X3950970Y-1173276D01*
X3960977Y-1183284D01*
X3960977Y-1255115D01*
X3950970Y-1265123D01*
X3915410Y-1265123D01*
X3905402Y-1275080D01*
X3905402Y-1344218D01*
X3915410Y-1354226D01*
X4058920Y-1354226D01*
X4068876Y-1344218D01*
X4068876Y-1094181D01*
X4058920Y-1084173D01*
G37*
G36*
X3611879Y-1084173D02*
G01*
X3601923Y-1094181D01*
X3601923Y-1344218D01*
X3611879Y-1354226D01*
X3755390Y-1354226D01*
X3765397Y-1344218D01*
X3765397Y-1275080D01*
X3755390Y-1265123D01*
X3719829Y-1265123D01*
X3709822Y-1255115D01*
X3709822Y-1183284D01*
X3719829Y-1173276D01*
X3755390Y-1173276D01*
X3765397Y-1163320D01*
X3765397Y-1094181D01*
X3755390Y-1084173D01*
G37*
G36*
X3915410Y-1579473D02*
G01*
X3905402Y-1589481D01*
X3905402Y-1658620D01*
X3915410Y-1668576D01*
X3950970Y-1668576D01*
X3960977Y-1678584D01*
X3960977Y-1750415D01*
X3950970Y-1760423D01*
X3915410Y-1760423D01*
X3905402Y-1770380D01*
X3905402Y-1839518D01*
X3915410Y-1849526D01*
X4058920Y-1849526D01*
X4068876Y-1839518D01*
X4068876Y-1589481D01*
X4058920Y-1579473D01*
G37*
G36*
X3611879Y-1579473D02*
G01*
X3601923Y-1589481D01*
X3601923Y-1839518D01*
X3611879Y-1849526D01*
X3755390Y-1849526D01*
X3765397Y-1839518D01*
X3765397Y-1770380D01*
X3755390Y-1760423D01*
X3719829Y-1760423D01*
X3709822Y-1750415D01*
X3709822Y-1678584D01*
X3719829Y-1668576D01*
X3755390Y-1668576D01*
X3765397Y-1658620D01*
X3765397Y-1589481D01*
X3755390Y-1579473D01*
G37*
D10*
G01*
X1988675Y-927100D03*
G01*
X1516524Y-927100D03*
D11*
G01*
X5238089Y-1917700D03*
G01*
X4998110Y-1917700D03*
G01*
X6762089Y-1917700D03*
G01*
X6522110Y-1917700D03*
G01*
X8298789Y-1905000D03*
G01*
X8058810Y-1905000D03*
G01*
X9835489Y-1905000D03*
G01*
X9595510Y-1905000D03*
G01*
X11334089Y-1892300D03*
G01*
X11094110Y-1892300D03*
G01*
X6534810Y-5207000D03*
G01*
X6774789Y-5207000D03*
G01*
X8058810Y-5207000D03*
G01*
X8298789Y-5207000D03*
G01*
X9595510Y-5207000D03*
G01*
X9835489Y-5207000D03*
G01*
X11106810Y-5207000D03*
G01*
X11346789Y-5207000D03*
G01*
X12858089Y-1892300D03*
G01*
X12618110Y-1892300D03*
D12*
G01*
X6792099Y-2197100D03*
G01*
X6492100Y-2197100D03*
G01*
X8316099Y-2184400D03*
G01*
X8016100Y-2184400D03*
G01*
X9865499Y-2184400D03*
G01*
X9565500Y-2184400D03*
G01*
X11364099Y-2171700D03*
G01*
X11064100Y-2171700D03*
G01*
X6504800Y-4914900D03*
G01*
X6804799Y-4914900D03*
G01*
X8041500Y-4914900D03*
G01*
X8341499Y-4914900D03*
G01*
X9565500Y-4914900D03*
G01*
X9865499Y-4914900D03*
G01*
X11064100Y-4914900D03*
G01*
X11364099Y-4914900D03*
G01*
X12888099Y-2184400D03*
G01*
X12588100Y-2184400D03*
G01*
X5280799Y-2197100D03*
G01*
X4980800Y-2197100D03*
D13*
G01*
X5041900Y-2356104D03*
G01*
X5106898Y-2546095D03*
G01*
X4976901Y-2546095D03*
G01*
X6553200Y-2343404D03*
G01*
X6618198Y-2533395D03*
G01*
X6488201Y-2533395D03*
G01*
X8077200Y-2330704D03*
G01*
X8142198Y-2520695D03*
G01*
X8012201Y-2520695D03*
G01*
X9626600Y-2318004D03*
G01*
X9691598Y-2507995D03*
G01*
X9561601Y-2507995D03*
G01*
X11112500Y-2318004D03*
G01*
X11177498Y-2507995D03*
G01*
X11047501Y-2507995D03*
G01*
X6705600Y-4755895D03*
G01*
X6640601Y-4565904D03*
G01*
X6770598Y-4565904D03*
G01*
X8255000Y-4755895D03*
G01*
X8190001Y-4565904D03*
G01*
X8319998Y-4565904D03*
G01*
X9804400Y-4781295D03*
G01*
X9739401Y-4591304D03*
G01*
X9869398Y-4591304D03*
G01*
X11303000Y-4768595D03*
G01*
X11238001Y-4578604D03*
G01*
X11367998Y-4578604D03*
G01*
X12661900Y-2330704D03*
G01*
X12726898Y-2520695D03*
G01*
X12596901Y-2520695D03*
D14*
G01*
X6354800Y-1650009D03*
G01*
X6354800Y-1329994D03*
G01*
X6354800Y-1110005D03*
G01*
X6354800Y-889990D03*
G01*
X6954799Y-889990D03*
G01*
X6954799Y-1110005D03*
G01*
X6954799Y-1329994D03*
G01*
X6954799Y-1650009D03*
D15*
G01*
X3592702Y-804189D03*
G01*
X3822700Y-804189D03*
G01*
X4052697Y-804189D03*
D16*
G01*
X3822700Y-237200D03*
D14*
G01*
X7878800Y-1650009D03*
G01*
X7878800Y-1329994D03*
G01*
X7878800Y-1110005D03*
G01*
X7878800Y-889990D03*
G01*
X8478799Y-889990D03*
G01*
X8478799Y-1110005D03*
G01*
X8478799Y-1329994D03*
G01*
X8478799Y-1650009D03*
G01*
X9402800Y-1650009D03*
G01*
X9402800Y-1329994D03*
G01*
X9402800Y-1110005D03*
G01*
X9402800Y-889990D03*
G01*
X10002799Y-889990D03*
G01*
X10002799Y-1110005D03*
G01*
X10002799Y-1329994D03*
G01*
X10002799Y-1650009D03*
G01*
X10926800Y-1650009D03*
G01*
X10926800Y-1329994D03*
G01*
X10926800Y-1110005D03*
G01*
X10926800Y-889990D03*
G01*
X11526799Y-889990D03*
G01*
X11526799Y-1110005D03*
G01*
X11526799Y-1329994D03*
G01*
X11526799Y-1650009D03*
G01*
X6954799Y-5449315D03*
G01*
X6954799Y-5769305D03*
G01*
X6954799Y-5989294D03*
G01*
X6954799Y-6209309D03*
G01*
X6354800Y-6209309D03*
G01*
X6354800Y-5989294D03*
G01*
X6354800Y-5769305D03*
G01*
X6354800Y-5449315D03*
G01*
X8478799Y-5449315D03*
G01*
X8478799Y-5769305D03*
G01*
X8478799Y-5989294D03*
G01*
X8478799Y-6209309D03*
G01*
X7878800Y-6209309D03*
G01*
X7878800Y-5989294D03*
G01*
X7878800Y-5769305D03*
G01*
X7878800Y-5449315D03*
G01*
X10002799Y-5449315D03*
G01*
X10002799Y-5769305D03*
G01*
X10002799Y-5989294D03*
G01*
X10002799Y-6209309D03*
G01*
X9402800Y-6209309D03*
G01*
X9402800Y-5989294D03*
G01*
X9402800Y-5769305D03*
G01*
X9402800Y-5449315D03*
G01*
X11526799Y-5449315D03*
G01*
X11526799Y-5769305D03*
G01*
X11526799Y-5989294D03*
G01*
X11526799Y-6209309D03*
G01*
X10926800Y-6209309D03*
G01*
X10926800Y-5989294D03*
G01*
X10926800Y-5769305D03*
G01*
X10926800Y-5449315D03*
G01*
X4830800Y-1650009D03*
G01*
X4830800Y-1329994D03*
G01*
X4830800Y-1110005D03*
G01*
X4830800Y-889990D03*
G01*
X5430799Y-889990D03*
G01*
X5430799Y-1110005D03*
G01*
X5430799Y-1329994D03*
G01*
X5430799Y-1650009D03*
G01*
X12450800Y-1650009D03*
G01*
X12450800Y-1329994D03*
G01*
X12450800Y-1110005D03*
G01*
X12450800Y-889990D03*
G01*
X13050799Y-889990D03*
G01*
X13050799Y-1110005D03*
G01*
X13050799Y-1329994D03*
G01*
X13050799Y-1650009D03*
D17*
G01*
X1968500Y-1631797D03*
G01*
X1968500Y-1771802D03*
D18*
G01*
X2660802Y-2260600D03*
G01*
X2520797Y-2260600D03*
D20*
G01*
X2692400Y-1447800D03*
D21*
G01*
X2692400Y-1270000D03*
D22*
G01*
X1054100Y-1747375D03*
D23*
G01*
X1054100Y-1275232D03*
D24*
G01*
X2229104Y-1809089D03*
G01*
X2324100Y-1809089D03*
G01*
X2419095Y-1809089D03*
G01*
X2419095Y-1569110D03*
G01*
X2324100Y-1569110D03*
G01*
X2229104Y-1569110D03*
M02*
