G04 Layer: TopSilkscreenLayer*
G04 EasyEDA v6.5.54, 2026-04-18 11:19:19*
G04 80c0d0d825154b2e81aaa2e26132e95f,eb0817546e0d4687b5c27ca6143d63b0,10*
G04 Gerber Generator version 0.2*
G04 Scale: 100 percent, Rotated: No, Reflected: No *
G04 Dimensions in millimeters *
G04 leading zeros omitted , absolute positions ,4 integer and 5 decimal *
%FSLAX45Y45*%
%MOMM*%

%ADD10C,0.1524*%
%ADD11C,0.1520*%
%ADD12C,0.2540*%
%ADD13C,0.1200*%
%ADD14C,0.1500*%
%ADD15C,0.3000*%
%ADD16C,0.0136*%

%LPD*%
D10*
X7611084Y-1281696D02*
G01*
X7689062Y-1281696D01*
X7704556Y-1276616D01*
X7714970Y-1266202D01*
X7720050Y-1250454D01*
X7720050Y-1240040D01*
X7714970Y-1224546D01*
X7704556Y-1214132D01*
X7689062Y-1209052D01*
X7611084Y-1209052D01*
X7611084Y-1122692D02*
G01*
X7683728Y-1174762D01*
X7683728Y-1096784D01*
X7611084Y-1122692D02*
G01*
X7720050Y-1122692D01*
X9135084Y-1281696D02*
G01*
X9213062Y-1281696D01*
X9228556Y-1276616D01*
X9238970Y-1266202D01*
X9244050Y-1250454D01*
X9244050Y-1240040D01*
X9238970Y-1224546D01*
X9228556Y-1214132D01*
X9213062Y-1209052D01*
X9135084Y-1209052D01*
X9135084Y-1122692D02*
G01*
X9207728Y-1174762D01*
X9207728Y-1096784D01*
X9135084Y-1122692D02*
G01*
X9244050Y-1122692D01*
X10659084Y-1281696D02*
G01*
X10737062Y-1281696D01*
X10752556Y-1276616D01*
X10762970Y-1266202D01*
X10768050Y-1250454D01*
X10768050Y-1240040D01*
X10762970Y-1224546D01*
X10752556Y-1214132D01*
X10737062Y-1209052D01*
X10659084Y-1209052D01*
X10659084Y-1122692D02*
G01*
X10731728Y-1174762D01*
X10731728Y-1096784D01*
X10659084Y-1122692D02*
G01*
X10768050Y-1122692D01*
X12170384Y-1281696D02*
G01*
X12248362Y-1281696D01*
X12263856Y-1276616D01*
X12274270Y-1266202D01*
X12279350Y-1250454D01*
X12279350Y-1240040D01*
X12274270Y-1224546D01*
X12263856Y-1214132D01*
X12248362Y-1209052D01*
X12170384Y-1209052D01*
X12170384Y-1122692D02*
G01*
X12243028Y-1174762D01*
X12243028Y-1096784D01*
X12170384Y-1122692D02*
G01*
X12279350Y-1122692D01*
X1676400Y-849884D02*
G01*
X1676400Y-958850D01*
X1676400Y-849884D02*
G01*
X1712721Y-849884D01*
X1728470Y-854963D01*
X1738629Y-865378D01*
X1743963Y-875792D01*
X1749044Y-891539D01*
X1749044Y-917447D01*
X1743963Y-932942D01*
X1738629Y-943355D01*
X1728470Y-953770D01*
X1712721Y-958850D01*
X1676400Y-958850D01*
X1783334Y-870712D02*
G01*
X1793747Y-865378D01*
X1809495Y-849884D01*
X1809495Y-958850D01*
X1895602Y-849884D02*
G01*
X1843786Y-922528D01*
X1921510Y-922528D01*
X1895602Y-849884D02*
G01*
X1895602Y-958850D01*
X4699000Y-1840484D02*
G01*
X4699000Y-1949450D01*
X4699000Y-1840484D02*
G01*
X4735322Y-1840484D01*
X4751070Y-1845563D01*
X4761229Y-1855978D01*
X4766563Y-1866392D01*
X4771643Y-1882139D01*
X4771643Y-1908047D01*
X4766563Y-1923542D01*
X4761229Y-1933955D01*
X4751070Y-1944370D01*
X4735322Y-1949450D01*
X4699000Y-1949450D01*
X4858004Y-1840484D02*
G01*
X4805934Y-1913128D01*
X4883911Y-1913128D01*
X4858004Y-1840484D02*
G01*
X4858004Y-1949450D01*
X6235700Y-1840484D02*
G01*
X6235700Y-1949450D01*
X6235700Y-1840484D02*
G01*
X6272022Y-1840484D01*
X6287770Y-1845563D01*
X6297929Y-1855978D01*
X6303263Y-1866392D01*
X6308343Y-1882139D01*
X6308343Y-1908047D01*
X6303263Y-1923542D01*
X6297929Y-1933955D01*
X6287770Y-1944370D01*
X6272022Y-1949450D01*
X6235700Y-1949450D01*
X6405118Y-1840484D02*
G01*
X6353047Y-1840484D01*
X6347968Y-1887220D01*
X6353047Y-1882139D01*
X6368795Y-1876805D01*
X6384290Y-1876805D01*
X6399784Y-1882139D01*
X6410197Y-1892300D01*
X6415531Y-1908047D01*
X6415531Y-1918462D01*
X6410197Y-1933955D01*
X6399784Y-1944370D01*
X6384290Y-1949450D01*
X6368795Y-1949450D01*
X6353047Y-1944370D01*
X6347968Y-1939289D01*
X6342634Y-1928876D01*
X7747000Y-1853184D02*
G01*
X7747000Y-1962150D01*
X7747000Y-1853184D02*
G01*
X7783322Y-1853184D01*
X7799070Y-1858263D01*
X7809229Y-1868678D01*
X7814563Y-1879092D01*
X7819643Y-1894839D01*
X7819643Y-1920747D01*
X7814563Y-1936242D01*
X7809229Y-1946655D01*
X7799070Y-1957070D01*
X7783322Y-1962150D01*
X7747000Y-1962150D01*
X7916418Y-1868678D02*
G01*
X7911084Y-1858263D01*
X7895590Y-1853184D01*
X7885175Y-1853184D01*
X7869681Y-1858263D01*
X7859268Y-1874012D01*
X7853934Y-1899920D01*
X7853934Y-1925828D01*
X7859268Y-1946655D01*
X7869681Y-1957070D01*
X7885175Y-1962150D01*
X7890509Y-1962150D01*
X7906004Y-1957070D01*
X7916418Y-1946655D01*
X7921497Y-1931162D01*
X7921497Y-1925828D01*
X7916418Y-1910334D01*
X7906004Y-1899920D01*
X7890509Y-1894839D01*
X7885175Y-1894839D01*
X7869681Y-1899920D01*
X7859268Y-1910334D01*
X7853934Y-1925828D01*
X9220200Y-1878584D02*
G01*
X9220200Y-1987550D01*
X9220200Y-1878584D02*
G01*
X9256522Y-1878584D01*
X9272270Y-1883663D01*
X9282429Y-1894078D01*
X9287763Y-1904492D01*
X9292843Y-1920239D01*
X9292843Y-1946147D01*
X9287763Y-1961642D01*
X9282429Y-1972055D01*
X9272270Y-1982470D01*
X9256522Y-1987550D01*
X9220200Y-1987550D01*
X9400031Y-1878584D02*
G01*
X9347961Y-1987550D01*
X9327134Y-1878584D02*
G01*
X9400031Y-1878584D01*
X10795000Y-1802384D02*
G01*
X10795000Y-1911350D01*
X10795000Y-1802384D02*
G01*
X10831322Y-1802384D01*
X10847070Y-1807463D01*
X10857229Y-1817878D01*
X10862563Y-1828292D01*
X10867643Y-1844039D01*
X10867643Y-1869947D01*
X10862563Y-1885442D01*
X10857229Y-1895855D01*
X10847070Y-1906270D01*
X10831322Y-1911350D01*
X10795000Y-1911350D01*
X10928095Y-1802384D02*
G01*
X10912347Y-1807463D01*
X10907268Y-1817878D01*
X10907268Y-1828292D01*
X10912347Y-1838705D01*
X10922761Y-1844039D01*
X10943590Y-1849120D01*
X10959084Y-1854200D01*
X10969497Y-1864613D01*
X10974831Y-1875028D01*
X10974831Y-1890776D01*
X10969497Y-1901189D01*
X10964418Y-1906270D01*
X10948670Y-1911350D01*
X10928095Y-1911350D01*
X10912347Y-1906270D01*
X10907268Y-1901189D01*
X10901934Y-1890776D01*
X10901934Y-1875028D01*
X10907268Y-1864613D01*
X10917681Y-1854200D01*
X10933175Y-1849120D01*
X10954004Y-1844039D01*
X10964418Y-1838705D01*
X10969497Y-1828292D01*
X10969497Y-1817878D01*
X10964418Y-1807463D01*
X10948670Y-1802384D01*
X10928095Y-1802384D01*
X6921500Y-5129784D02*
G01*
X6921500Y-5238750D01*
X6921500Y-5129784D02*
G01*
X6957822Y-5129784D01*
X6973570Y-5134863D01*
X6983729Y-5145278D01*
X6989063Y-5155692D01*
X6994143Y-5171439D01*
X6994143Y-5197347D01*
X6989063Y-5212842D01*
X6983729Y-5223255D01*
X6973570Y-5233670D01*
X6957822Y-5238750D01*
X6921500Y-5238750D01*
X7095997Y-5166105D02*
G01*
X7090918Y-5181600D01*
X7080504Y-5192013D01*
X7065009Y-5197347D01*
X7059675Y-5197347D01*
X7044181Y-5192013D01*
X7033768Y-5181600D01*
X7028434Y-5166105D01*
X7028434Y-5161026D01*
X7033768Y-5145278D01*
X7044181Y-5134863D01*
X7059675Y-5129784D01*
X7065009Y-5129784D01*
X7080504Y-5134863D01*
X7090918Y-5145278D01*
X7095997Y-5166105D01*
X7095997Y-5192013D01*
X7090918Y-5218176D01*
X7080504Y-5233670D01*
X7065009Y-5238750D01*
X7054595Y-5238750D01*
X7038847Y-5233670D01*
X7033768Y-5223255D01*
X8737600Y-5271515D02*
G01*
X8737600Y-5162550D01*
X8737600Y-5271515D02*
G01*
X8701277Y-5271515D01*
X8685529Y-5266436D01*
X8675370Y-5256021D01*
X8670036Y-5245607D01*
X8664956Y-5229860D01*
X8664956Y-5203952D01*
X8670036Y-5188457D01*
X8675370Y-5178044D01*
X8685529Y-5167629D01*
X8701277Y-5162550D01*
X8737600Y-5162550D01*
X8630665Y-5250687D02*
G01*
X8620252Y-5256021D01*
X8604504Y-5271515D01*
X8604504Y-5162550D01*
X8539225Y-5271515D02*
G01*
X8554720Y-5266436D01*
X8565134Y-5250687D01*
X8570213Y-5224779D01*
X8570213Y-5209286D01*
X8565134Y-5183123D01*
X8554720Y-5167629D01*
X8539225Y-5162550D01*
X8528811Y-5162550D01*
X8513063Y-5167629D01*
X8502650Y-5183123D01*
X8497570Y-5209286D01*
X8497570Y-5224779D01*
X8502650Y-5250687D01*
X8513063Y-5266436D01*
X8528811Y-5271515D01*
X8539225Y-5271515D01*
X10134600Y-5284215D02*
G01*
X10134600Y-5175250D01*
X10134600Y-5284215D02*
G01*
X10098277Y-5284215D01*
X10082529Y-5279136D01*
X10072370Y-5268721D01*
X10067036Y-5258307D01*
X10061956Y-5242560D01*
X10061956Y-5216652D01*
X10067036Y-5201157D01*
X10072370Y-5190744D01*
X10082529Y-5180329D01*
X10098277Y-5175250D01*
X10134600Y-5175250D01*
X10027665Y-5263387D02*
G01*
X10017252Y-5268721D01*
X10001504Y-5284215D01*
X10001504Y-5175250D01*
X9967213Y-5263387D02*
G01*
X9956800Y-5268721D01*
X9941306Y-5284215D01*
X9941306Y-5175250D01*
X11684000Y-5309615D02*
G01*
X11684000Y-5200650D01*
X11684000Y-5309615D02*
G01*
X11647677Y-5309615D01*
X11631929Y-5304536D01*
X11621770Y-5294121D01*
X11616436Y-5283707D01*
X11611356Y-5267960D01*
X11611356Y-5242052D01*
X11616436Y-5226557D01*
X11621770Y-5216144D01*
X11631929Y-5205729D01*
X11647677Y-5200650D01*
X11684000Y-5200650D01*
X11577065Y-5288787D02*
G01*
X11566652Y-5294121D01*
X11550904Y-5309615D01*
X11550904Y-5200650D01*
X11511534Y-5283707D02*
G01*
X11511534Y-5288787D01*
X11506200Y-5299202D01*
X11501120Y-5304536D01*
X11490706Y-5309615D01*
X11469877Y-5309615D01*
X11459463Y-5304536D01*
X11454384Y-5299202D01*
X11449050Y-5288787D01*
X11449050Y-5278373D01*
X11454384Y-5267960D01*
X11464797Y-5252465D01*
X11516613Y-5200650D01*
X11443970Y-5200650D01*
X12242800Y-1815084D02*
G01*
X12242800Y-1924050D01*
X12242800Y-1815084D02*
G01*
X12279122Y-1815084D01*
X12294870Y-1820163D01*
X12305029Y-1830578D01*
X12310363Y-1840992D01*
X12315443Y-1856739D01*
X12315443Y-1882647D01*
X12310363Y-1898142D01*
X12305029Y-1908555D01*
X12294870Y-1918970D01*
X12279122Y-1924050D01*
X12242800Y-1924050D01*
X12349734Y-1835912D02*
G01*
X12360147Y-1830578D01*
X12375895Y-1815084D01*
X12375895Y-1924050D01*
X12420600Y-1815084D02*
G01*
X12477750Y-1815084D01*
X12446508Y-1856739D01*
X12462002Y-1856739D01*
X12472415Y-1861820D01*
X12477750Y-1866900D01*
X12482829Y-1882647D01*
X12482829Y-1893062D01*
X12477750Y-1908555D01*
X12467336Y-1918970D01*
X12451588Y-1924050D01*
X12436093Y-1924050D01*
X12420600Y-1918970D01*
X12415265Y-1913889D01*
X12410186Y-1903476D01*
X5969000Y-2107184D02*
G01*
X5969000Y-2216150D01*
X5969000Y-2216150D02*
G01*
X6031229Y-2216150D01*
X6065520Y-2107184D02*
G01*
X6065520Y-2216150D01*
X6065520Y-2107184D02*
G01*
X6133084Y-2107184D01*
X6065520Y-2159000D02*
G01*
X6107175Y-2159000D01*
X6065520Y-2216150D02*
G01*
X6133084Y-2216150D01*
X6167374Y-2107184D02*
G01*
X6167374Y-2216150D01*
X6167374Y-2107184D02*
G01*
X6203950Y-2107184D01*
X6219443Y-2112263D01*
X6229858Y-2122678D01*
X6234938Y-2133092D01*
X6240272Y-2148839D01*
X6240272Y-2174747D01*
X6234938Y-2190242D01*
X6229858Y-2200655D01*
X6219443Y-2211070D01*
X6203950Y-2216150D01*
X6167374Y-2216150D01*
X6274561Y-2128012D02*
G01*
X6284975Y-2122678D01*
X6300470Y-2107184D01*
X6300470Y-2216150D01*
X7454900Y-2081784D02*
G01*
X7454900Y-2190750D01*
X7454900Y-2190750D02*
G01*
X7517129Y-2190750D01*
X7551420Y-2081784D02*
G01*
X7551420Y-2190750D01*
X7551420Y-2081784D02*
G01*
X7618984Y-2081784D01*
X7551420Y-2133600D02*
G01*
X7593075Y-2133600D01*
X7551420Y-2190750D02*
G01*
X7618984Y-2190750D01*
X7653274Y-2081784D02*
G01*
X7653274Y-2190750D01*
X7653274Y-2081784D02*
G01*
X7689850Y-2081784D01*
X7705343Y-2086863D01*
X7715758Y-2097278D01*
X7720838Y-2107692D01*
X7726172Y-2123439D01*
X7726172Y-2149347D01*
X7720838Y-2164842D01*
X7715758Y-2175255D01*
X7705343Y-2185670D01*
X7689850Y-2190750D01*
X7653274Y-2190750D01*
X7765541Y-2107692D02*
G01*
X7765541Y-2102612D01*
X7770875Y-2092197D01*
X7775956Y-2086863D01*
X7786370Y-2081784D01*
X7807197Y-2081784D01*
X7817611Y-2086863D01*
X7822691Y-2092197D01*
X7828025Y-2102612D01*
X7828025Y-2113026D01*
X7822691Y-2123439D01*
X7812277Y-2138934D01*
X7760461Y-2190750D01*
X7833106Y-2190750D01*
X9017000Y-2081784D02*
G01*
X9017000Y-2190750D01*
X9017000Y-2190750D02*
G01*
X9079229Y-2190750D01*
X9113520Y-2081784D02*
G01*
X9113520Y-2190750D01*
X9113520Y-2081784D02*
G01*
X9181084Y-2081784D01*
X9113520Y-2133600D02*
G01*
X9155175Y-2133600D01*
X9113520Y-2190750D02*
G01*
X9181084Y-2190750D01*
X9215374Y-2081784D02*
G01*
X9215374Y-2190750D01*
X9215374Y-2081784D02*
G01*
X9251950Y-2081784D01*
X9267443Y-2086863D01*
X9277858Y-2097278D01*
X9282938Y-2107692D01*
X9288272Y-2123439D01*
X9288272Y-2149347D01*
X9282938Y-2164842D01*
X9277858Y-2175255D01*
X9267443Y-2185670D01*
X9251950Y-2190750D01*
X9215374Y-2190750D01*
X9332975Y-2081784D02*
G01*
X9390125Y-2081784D01*
X9358884Y-2123439D01*
X9374377Y-2123439D01*
X9384791Y-2128520D01*
X9390125Y-2133600D01*
X9395206Y-2149347D01*
X9395206Y-2159762D01*
X9390125Y-2175255D01*
X9379711Y-2185670D01*
X9363963Y-2190750D01*
X9348470Y-2190750D01*
X9332975Y-2185670D01*
X9327641Y-2180589D01*
X9322561Y-2170176D01*
X10629900Y-1980184D02*
G01*
X10629900Y-2089150D01*
X10629900Y-2089150D02*
G01*
X10692129Y-2089150D01*
X10726420Y-1980184D02*
G01*
X10726420Y-2089150D01*
X10726420Y-1980184D02*
G01*
X10793984Y-1980184D01*
X10726420Y-2032000D02*
G01*
X10768075Y-2032000D01*
X10726420Y-2089150D02*
G01*
X10793984Y-2089150D01*
X10828274Y-1980184D02*
G01*
X10828274Y-2089150D01*
X10828274Y-1980184D02*
G01*
X10864850Y-1980184D01*
X10880343Y-1985263D01*
X10890758Y-1995678D01*
X10895838Y-2006092D01*
X10901172Y-2021839D01*
X10901172Y-2047747D01*
X10895838Y-2063242D01*
X10890758Y-2073655D01*
X10880343Y-2084070D01*
X10864850Y-2089150D01*
X10828274Y-2089150D01*
X10987277Y-1980184D02*
G01*
X10935461Y-2052828D01*
X11013440Y-2052828D01*
X10987277Y-1980184D02*
G01*
X10987277Y-2089150D01*
X7353300Y-5017515D02*
G01*
X7353300Y-4908550D01*
X7353300Y-4908550D02*
G01*
X7291070Y-4908550D01*
X7256779Y-5017515D02*
G01*
X7256779Y-4908550D01*
X7256779Y-5017515D02*
G01*
X7189215Y-5017515D01*
X7256779Y-4965700D02*
G01*
X7215124Y-4965700D01*
X7256779Y-4908550D02*
G01*
X7189215Y-4908550D01*
X7154925Y-5017515D02*
G01*
X7154925Y-4908550D01*
X7154925Y-5017515D02*
G01*
X7118350Y-5017515D01*
X7102856Y-5012436D01*
X7092441Y-5002021D01*
X7087361Y-4991607D01*
X7082027Y-4975860D01*
X7082027Y-4949952D01*
X7087361Y-4934457D01*
X7092441Y-4924044D01*
X7102856Y-4913629D01*
X7118350Y-4908550D01*
X7154925Y-4908550D01*
X6985508Y-5017515D02*
G01*
X7037324Y-5017515D01*
X7042658Y-4970779D01*
X7037324Y-4975860D01*
X7021829Y-4981194D01*
X7006336Y-4981194D01*
X6990588Y-4975860D01*
X6980174Y-4965700D01*
X6975093Y-4949952D01*
X6975093Y-4939537D01*
X6980174Y-4924044D01*
X6990588Y-4913629D01*
X7006336Y-4908550D01*
X7021829Y-4908550D01*
X7037324Y-4913629D01*
X7042658Y-4918710D01*
X7047738Y-4929123D01*
X8890000Y-5004815D02*
G01*
X8890000Y-4895850D01*
X8890000Y-4895850D02*
G01*
X8827770Y-4895850D01*
X8793479Y-5004815D02*
G01*
X8793479Y-4895850D01*
X8793479Y-5004815D02*
G01*
X8725915Y-5004815D01*
X8793479Y-4953000D02*
G01*
X8751824Y-4953000D01*
X8793479Y-4895850D02*
G01*
X8725915Y-4895850D01*
X8691625Y-5004815D02*
G01*
X8691625Y-4895850D01*
X8691625Y-5004815D02*
G01*
X8655050Y-5004815D01*
X8639556Y-4999736D01*
X8629141Y-4989321D01*
X8624061Y-4978907D01*
X8618727Y-4963160D01*
X8618727Y-4937252D01*
X8624061Y-4921757D01*
X8629141Y-4911344D01*
X8639556Y-4900929D01*
X8655050Y-4895850D01*
X8691625Y-4895850D01*
X8522208Y-4989321D02*
G01*
X8527288Y-4999736D01*
X8543036Y-5004815D01*
X8553450Y-5004815D01*
X8568943Y-4999736D01*
X8579358Y-4983987D01*
X8584438Y-4958079D01*
X8584438Y-4932171D01*
X8579358Y-4911344D01*
X8568943Y-4900929D01*
X8553450Y-4895850D01*
X8548115Y-4895850D01*
X8532622Y-4900929D01*
X8522208Y-4911344D01*
X8516874Y-4926837D01*
X8516874Y-4932171D01*
X8522208Y-4947665D01*
X8532622Y-4958079D01*
X8548115Y-4963160D01*
X8553450Y-4963160D01*
X8568943Y-4958079D01*
X8579358Y-4947665D01*
X8584438Y-4932171D01*
X10375900Y-5030215D02*
G01*
X10375900Y-4921250D01*
X10375900Y-4921250D02*
G01*
X10313670Y-4921250D01*
X10279379Y-5030215D02*
G01*
X10279379Y-4921250D01*
X10279379Y-5030215D02*
G01*
X10211815Y-5030215D01*
X10279379Y-4978400D02*
G01*
X10237724Y-4978400D01*
X10279379Y-4921250D02*
G01*
X10211815Y-4921250D01*
X10177525Y-5030215D02*
G01*
X10177525Y-4921250D01*
X10177525Y-5030215D02*
G01*
X10140950Y-5030215D01*
X10125456Y-5025136D01*
X10115041Y-5014721D01*
X10109961Y-5004307D01*
X10104627Y-4988560D01*
X10104627Y-4962652D01*
X10109961Y-4947157D01*
X10115041Y-4936744D01*
X10125456Y-4926329D01*
X10140950Y-4921250D01*
X10177525Y-4921250D01*
X9997693Y-5030215D02*
G01*
X10049509Y-4921250D01*
X10070338Y-5030215D02*
G01*
X9997693Y-5030215D01*
X11849100Y-5131815D02*
G01*
X11849100Y-5022850D01*
X11849100Y-5022850D02*
G01*
X11786870Y-5022850D01*
X11752579Y-5131815D02*
G01*
X11752579Y-5022850D01*
X11752579Y-5131815D02*
G01*
X11685015Y-5131815D01*
X11752579Y-5080000D02*
G01*
X11710924Y-5080000D01*
X11752579Y-5022850D02*
G01*
X11685015Y-5022850D01*
X11650725Y-5131815D02*
G01*
X11650725Y-5022850D01*
X11650725Y-5131815D02*
G01*
X11614150Y-5131815D01*
X11598656Y-5126736D01*
X11588241Y-5116321D01*
X11583161Y-5105907D01*
X11577827Y-5090160D01*
X11577827Y-5064252D01*
X11583161Y-5048757D01*
X11588241Y-5038344D01*
X11598656Y-5027929D01*
X11614150Y-5022850D01*
X11650725Y-5022850D01*
X11517629Y-5131815D02*
G01*
X11533124Y-5126736D01*
X11538458Y-5116321D01*
X11538458Y-5105907D01*
X11533124Y-5095494D01*
X11522709Y-5090160D01*
X11502136Y-5085079D01*
X11486388Y-5080000D01*
X11475974Y-5069586D01*
X11470893Y-5059171D01*
X11470893Y-5043423D01*
X11475974Y-5033010D01*
X11481308Y-5027929D01*
X11496802Y-5022850D01*
X11517629Y-5022850D01*
X11533124Y-5027929D01*
X11538458Y-5033010D01*
X11543538Y-5043423D01*
X11543538Y-5059171D01*
X11538458Y-5069586D01*
X11528043Y-5080000D01*
X11512550Y-5085079D01*
X11491722Y-5090160D01*
X11481308Y-5095494D01*
X11475974Y-5105907D01*
X11475974Y-5116321D01*
X11481308Y-5126736D01*
X11496802Y-5131815D01*
X11517629Y-5131815D01*
X12077700Y-2081784D02*
G01*
X12077700Y-2190750D01*
X12077700Y-2190750D02*
G01*
X12139929Y-2190750D01*
X12174220Y-2081784D02*
G01*
X12174220Y-2190750D01*
X12174220Y-2081784D02*
G01*
X12241784Y-2081784D01*
X12174220Y-2133600D02*
G01*
X12215875Y-2133600D01*
X12174220Y-2190750D02*
G01*
X12241784Y-2190750D01*
X12276074Y-2081784D02*
G01*
X12276074Y-2190750D01*
X12276074Y-2081784D02*
G01*
X12312650Y-2081784D01*
X12328143Y-2086863D01*
X12338558Y-2097278D01*
X12343638Y-2107692D01*
X12348972Y-2123439D01*
X12348972Y-2149347D01*
X12343638Y-2164842D01*
X12338558Y-2175255D01*
X12328143Y-2185670D01*
X12312650Y-2190750D01*
X12276074Y-2190750D01*
X12450825Y-2118105D02*
G01*
X12445491Y-2133600D01*
X12435077Y-2144013D01*
X12419584Y-2149347D01*
X12414250Y-2149347D01*
X12398756Y-2144013D01*
X12388341Y-2133600D01*
X12383261Y-2118105D01*
X12383261Y-2113026D01*
X12388341Y-2097278D01*
X12398756Y-2086863D01*
X12414250Y-2081784D01*
X12419584Y-2081784D01*
X12435077Y-2086863D01*
X12445491Y-2097278D01*
X12450825Y-2118105D01*
X12450825Y-2144013D01*
X12445491Y-2170176D01*
X12435077Y-2185670D01*
X12419584Y-2190750D01*
X12409170Y-2190750D01*
X12393675Y-2185670D01*
X12388341Y-2175255D01*
X4419600Y-2069084D02*
G01*
X4419600Y-2178050D01*
X4419600Y-2178050D02*
G01*
X4481829Y-2178050D01*
X4516120Y-2069084D02*
G01*
X4516120Y-2178050D01*
X4516120Y-2069084D02*
G01*
X4583684Y-2069084D01*
X4516120Y-2120900D02*
G01*
X4557775Y-2120900D01*
X4516120Y-2178050D02*
G01*
X4583684Y-2178050D01*
X4617974Y-2069084D02*
G01*
X4617974Y-2178050D01*
X4617974Y-2069084D02*
G01*
X4654550Y-2069084D01*
X4670043Y-2074163D01*
X4680458Y-2084578D01*
X4685538Y-2094992D01*
X4690872Y-2110739D01*
X4690872Y-2136647D01*
X4685538Y-2152142D01*
X4680458Y-2162555D01*
X4670043Y-2172970D01*
X4654550Y-2178050D01*
X4617974Y-2178050D01*
X4725161Y-2089912D02*
G01*
X4735575Y-2084578D01*
X4751070Y-2069084D01*
X4751070Y-2178050D01*
X4785359Y-2089912D02*
G01*
X4795774Y-2084578D01*
X4811268Y-2069084D01*
X4811268Y-2178050D01*
X4742941Y-2323084D02*
G01*
X4732527Y-2328163D01*
X4722113Y-2338578D01*
X4716779Y-2348992D01*
X4711700Y-2364739D01*
X4711700Y-2390647D01*
X4716779Y-2406142D01*
X4722113Y-2416555D01*
X4732527Y-2426970D01*
X4742941Y-2432050D01*
X4763770Y-2432050D01*
X4773929Y-2426970D01*
X4784343Y-2416555D01*
X4789677Y-2406142D01*
X4794758Y-2390647D01*
X4794758Y-2364739D01*
X4789677Y-2348992D01*
X4784343Y-2338578D01*
X4773929Y-2328163D01*
X4763770Y-2323084D01*
X4742941Y-2323084D01*
X4758436Y-2411476D02*
G01*
X4789677Y-2442463D01*
X4829047Y-2343912D02*
G01*
X4839461Y-2338578D01*
X4855209Y-2323084D01*
X4855209Y-2432050D01*
X6228841Y-2284984D02*
G01*
X6218427Y-2290063D01*
X6208013Y-2300478D01*
X6202679Y-2310892D01*
X6197600Y-2326639D01*
X6197600Y-2352547D01*
X6202679Y-2368042D01*
X6208013Y-2378455D01*
X6218427Y-2388870D01*
X6228841Y-2393950D01*
X6249670Y-2393950D01*
X6259829Y-2388870D01*
X6270243Y-2378455D01*
X6275577Y-2368042D01*
X6280658Y-2352547D01*
X6280658Y-2326639D01*
X6275577Y-2310892D01*
X6270243Y-2300478D01*
X6259829Y-2290063D01*
X6249670Y-2284984D01*
X6228841Y-2284984D01*
X6244336Y-2373376D02*
G01*
X6275577Y-2404363D01*
X6320281Y-2310892D02*
G01*
X6320281Y-2305812D01*
X6325361Y-2295397D01*
X6330695Y-2290063D01*
X6341109Y-2284984D01*
X6361684Y-2284984D01*
X6372097Y-2290063D01*
X6377431Y-2295397D01*
X6382511Y-2305812D01*
X6382511Y-2316226D01*
X6377431Y-2326639D01*
X6367018Y-2342134D01*
X6314947Y-2393950D01*
X6387845Y-2393950D01*
X7727441Y-2310384D02*
G01*
X7717027Y-2315463D01*
X7706613Y-2325878D01*
X7701279Y-2336292D01*
X7696200Y-2352039D01*
X7696200Y-2377947D01*
X7701279Y-2393442D01*
X7706613Y-2403855D01*
X7717027Y-2414270D01*
X7727441Y-2419350D01*
X7748270Y-2419350D01*
X7758429Y-2414270D01*
X7768843Y-2403855D01*
X7774177Y-2393442D01*
X7779258Y-2377947D01*
X7779258Y-2352039D01*
X7774177Y-2336292D01*
X7768843Y-2325878D01*
X7758429Y-2315463D01*
X7748270Y-2310384D01*
X7727441Y-2310384D01*
X7742936Y-2398776D02*
G01*
X7774177Y-2429763D01*
X7823961Y-2310384D02*
G01*
X7881111Y-2310384D01*
X7849870Y-2352039D01*
X7865618Y-2352039D01*
X7876031Y-2357120D01*
X7881111Y-2362200D01*
X7886445Y-2377947D01*
X7886445Y-2388362D01*
X7881111Y-2403855D01*
X7870697Y-2414270D01*
X7855204Y-2419350D01*
X7839709Y-2419350D01*
X7823961Y-2414270D01*
X7818881Y-2409189D01*
X7813547Y-2398776D01*
X9340341Y-2272284D02*
G01*
X9329927Y-2277363D01*
X9319513Y-2287778D01*
X9314179Y-2298192D01*
X9309100Y-2313939D01*
X9309100Y-2339847D01*
X9314179Y-2355342D01*
X9319513Y-2365755D01*
X9329927Y-2376170D01*
X9340341Y-2381250D01*
X9361170Y-2381250D01*
X9371329Y-2376170D01*
X9381743Y-2365755D01*
X9387077Y-2355342D01*
X9392158Y-2339847D01*
X9392158Y-2313939D01*
X9387077Y-2298192D01*
X9381743Y-2287778D01*
X9371329Y-2277363D01*
X9361170Y-2272284D01*
X9340341Y-2272284D01*
X9355836Y-2360676D02*
G01*
X9387077Y-2391663D01*
X9478518Y-2272284D02*
G01*
X9426447Y-2344928D01*
X9504425Y-2344928D01*
X9478518Y-2272284D02*
G01*
X9478518Y-2381250D01*
X10775441Y-2284984D02*
G01*
X10765027Y-2290063D01*
X10754613Y-2300478D01*
X10749279Y-2310892D01*
X10744200Y-2326639D01*
X10744200Y-2352547D01*
X10749279Y-2368042D01*
X10754613Y-2378455D01*
X10765027Y-2388870D01*
X10775441Y-2393950D01*
X10796270Y-2393950D01*
X10806429Y-2388870D01*
X10816843Y-2378455D01*
X10822177Y-2368042D01*
X10827258Y-2352547D01*
X10827258Y-2326639D01*
X10822177Y-2310892D01*
X10816843Y-2300478D01*
X10806429Y-2290063D01*
X10796270Y-2284984D01*
X10775441Y-2284984D01*
X10790936Y-2373376D02*
G01*
X10822177Y-2404363D01*
X10924031Y-2284984D02*
G01*
X10871961Y-2284984D01*
X10866881Y-2331720D01*
X10871961Y-2326639D01*
X10887709Y-2321305D01*
X10903204Y-2321305D01*
X10918697Y-2326639D01*
X10929111Y-2336800D01*
X10934445Y-2352547D01*
X10934445Y-2362962D01*
X10929111Y-2378455D01*
X10918697Y-2388870D01*
X10903204Y-2393950D01*
X10887709Y-2393950D01*
X10871961Y-2388870D01*
X10866881Y-2383789D01*
X10861547Y-2373376D01*
X7055358Y-4788915D02*
G01*
X7065772Y-4783836D01*
X7076186Y-4773421D01*
X7081520Y-4763007D01*
X7086600Y-4747260D01*
X7086600Y-4721352D01*
X7081520Y-4705857D01*
X7076186Y-4695444D01*
X7065772Y-4685029D01*
X7055358Y-4679950D01*
X7034529Y-4679950D01*
X7024370Y-4685029D01*
X7013956Y-4695444D01*
X7008622Y-4705857D01*
X7003541Y-4721352D01*
X7003541Y-4747260D01*
X7008622Y-4763007D01*
X7013956Y-4773421D01*
X7024370Y-4783836D01*
X7034529Y-4788915D01*
X7055358Y-4788915D01*
X7039863Y-4700523D02*
G01*
X7008622Y-4669536D01*
X6906768Y-4773421D02*
G01*
X6912102Y-4783836D01*
X6927595Y-4788915D01*
X6938009Y-4788915D01*
X6953504Y-4783836D01*
X6963918Y-4768087D01*
X6969252Y-4742179D01*
X6969252Y-4716271D01*
X6963918Y-4695444D01*
X6953504Y-4685029D01*
X6938009Y-4679950D01*
X6932929Y-4679950D01*
X6917181Y-4685029D01*
X6906768Y-4695444D01*
X6901688Y-4710937D01*
X6901688Y-4716271D01*
X6906768Y-4731765D01*
X6917181Y-4742179D01*
X6932929Y-4747260D01*
X6938009Y-4747260D01*
X6953504Y-4742179D01*
X6963918Y-4731765D01*
X6969252Y-4716271D01*
X8579358Y-4788915D02*
G01*
X8589772Y-4783836D01*
X8600186Y-4773421D01*
X8605520Y-4763007D01*
X8610600Y-4747260D01*
X8610600Y-4721352D01*
X8605520Y-4705857D01*
X8600186Y-4695444D01*
X8589772Y-4685029D01*
X8579358Y-4679950D01*
X8558529Y-4679950D01*
X8548370Y-4685029D01*
X8537956Y-4695444D01*
X8532622Y-4705857D01*
X8527541Y-4721352D01*
X8527541Y-4747260D01*
X8532622Y-4763007D01*
X8537956Y-4773421D01*
X8548370Y-4783836D01*
X8558529Y-4788915D01*
X8579358Y-4788915D01*
X8563863Y-4700523D02*
G01*
X8532622Y-4669536D01*
X8420354Y-4788915D02*
G01*
X8472424Y-4679950D01*
X8493252Y-4788915D02*
G01*
X8420354Y-4788915D01*
X10116058Y-4827015D02*
G01*
X10126472Y-4821936D01*
X10136886Y-4811521D01*
X10142220Y-4801107D01*
X10147300Y-4785360D01*
X10147300Y-4759452D01*
X10142220Y-4743957D01*
X10136886Y-4733544D01*
X10126472Y-4723129D01*
X10116058Y-4718050D01*
X10095229Y-4718050D01*
X10085070Y-4723129D01*
X10074656Y-4733544D01*
X10069322Y-4743957D01*
X10064241Y-4759452D01*
X10064241Y-4785360D01*
X10069322Y-4801107D01*
X10074656Y-4811521D01*
X10085070Y-4821936D01*
X10095229Y-4827015D01*
X10116058Y-4827015D01*
X10100563Y-4738623D02*
G01*
X10069322Y-4707636D01*
X10003790Y-4827015D02*
G01*
X10019538Y-4821936D01*
X10024618Y-4811521D01*
X10024618Y-4801107D01*
X10019538Y-4790694D01*
X10009124Y-4785360D01*
X9988295Y-4780279D01*
X9972802Y-4775200D01*
X9962388Y-4764786D01*
X9957054Y-4754371D01*
X9957054Y-4738623D01*
X9962388Y-4728210D01*
X9967468Y-4723129D01*
X9983215Y-4718050D01*
X10003790Y-4718050D01*
X10019538Y-4723129D01*
X10024618Y-4728210D01*
X10029952Y-4738623D01*
X10029952Y-4754371D01*
X10024618Y-4764786D01*
X10014204Y-4775200D01*
X9998709Y-4780279D01*
X9977881Y-4785360D01*
X9967468Y-4790694D01*
X9962388Y-4801107D01*
X9962388Y-4811521D01*
X9967468Y-4821936D01*
X9983215Y-4827015D01*
X10003790Y-4827015D01*
X11627358Y-4827015D02*
G01*
X11637772Y-4821936D01*
X11648186Y-4811521D01*
X11653520Y-4801107D01*
X11658600Y-4785360D01*
X11658600Y-4759452D01*
X11653520Y-4743957D01*
X11648186Y-4733544D01*
X11637772Y-4723129D01*
X11627358Y-4718050D01*
X11606529Y-4718050D01*
X11596370Y-4723129D01*
X11585956Y-4733544D01*
X11580622Y-4743957D01*
X11575541Y-4759452D01*
X11575541Y-4785360D01*
X11580622Y-4801107D01*
X11585956Y-4811521D01*
X11596370Y-4821936D01*
X11606529Y-4827015D01*
X11627358Y-4827015D01*
X11611863Y-4738623D02*
G01*
X11580622Y-4707636D01*
X11473688Y-4790694D02*
G01*
X11478768Y-4775200D01*
X11489181Y-4764786D01*
X11504929Y-4759452D01*
X11510009Y-4759452D01*
X11525504Y-4764786D01*
X11535918Y-4775200D01*
X11541252Y-4790694D01*
X11541252Y-4795773D01*
X11535918Y-4811521D01*
X11525504Y-4821936D01*
X11510009Y-4827015D01*
X11504929Y-4827015D01*
X11489181Y-4821936D01*
X11478768Y-4811521D01*
X11473688Y-4790694D01*
X11473688Y-4764786D01*
X11478768Y-4738623D01*
X11489181Y-4723129D01*
X11504929Y-4718050D01*
X11515090Y-4718050D01*
X11530838Y-4723129D01*
X11535918Y-4733544D01*
X12286741Y-2284984D02*
G01*
X12276327Y-2290063D01*
X12265913Y-2300478D01*
X12260579Y-2310892D01*
X12255500Y-2326639D01*
X12255500Y-2352547D01*
X12260579Y-2368042D01*
X12265913Y-2378455D01*
X12276327Y-2388870D01*
X12286741Y-2393950D01*
X12307570Y-2393950D01*
X12317729Y-2388870D01*
X12328143Y-2378455D01*
X12333477Y-2368042D01*
X12338558Y-2352547D01*
X12338558Y-2326639D01*
X12333477Y-2310892D01*
X12328143Y-2300478D01*
X12317729Y-2290063D01*
X12307570Y-2284984D01*
X12286741Y-2284984D01*
X12302236Y-2373376D02*
G01*
X12333477Y-2404363D01*
X12372847Y-2305812D02*
G01*
X12383261Y-2300478D01*
X12399009Y-2284984D01*
X12399009Y-2393950D01*
X12464288Y-2284984D02*
G01*
X12448793Y-2290063D01*
X12438379Y-2305812D01*
X12433300Y-2331720D01*
X12433300Y-2347213D01*
X12438379Y-2373376D01*
X12448793Y-2388870D01*
X12464288Y-2393950D01*
X12474702Y-2393950D01*
X12490450Y-2388870D01*
X12500609Y-2373376D01*
X12505943Y-2347213D01*
X12505943Y-2331720D01*
X12500609Y-2305812D01*
X12490450Y-2290063D01*
X12474702Y-2284984D01*
X12464288Y-2284984D01*
X7110984Y-2070100D02*
G01*
X7219950Y-2070100D01*
X7110984Y-2070100D02*
G01*
X7110984Y-2023363D01*
X7116063Y-2007870D01*
X7121397Y-2002536D01*
X7131811Y-1997455D01*
X7142225Y-1997455D01*
X7152640Y-2002536D01*
X7157720Y-2007870D01*
X7162800Y-2023363D01*
X7162800Y-2070100D01*
X7162800Y-2033778D02*
G01*
X7219950Y-1997455D01*
X7131811Y-1963165D02*
G01*
X7126477Y-1952752D01*
X7110984Y-1937004D01*
X7219950Y-1937004D01*
X6755384Y-2717800D02*
G01*
X6864350Y-2717800D01*
X6755384Y-2717800D02*
G01*
X6755384Y-2671063D01*
X6760463Y-2655570D01*
X6765797Y-2650236D01*
X6776211Y-2645155D01*
X6786625Y-2645155D01*
X6797040Y-2650236D01*
X6802120Y-2655570D01*
X6807200Y-2671063D01*
X6807200Y-2717800D01*
X6807200Y-2681478D02*
G01*
X6864350Y-2645155D01*
X6781291Y-2605531D02*
G01*
X6776211Y-2605531D01*
X6765797Y-2600452D01*
X6760463Y-2595118D01*
X6755384Y-2584704D01*
X6755384Y-2564129D01*
X6760463Y-2553715D01*
X6765797Y-2548381D01*
X6776211Y-2543302D01*
X6786625Y-2543302D01*
X6797040Y-2548381D01*
X6812534Y-2558795D01*
X6864350Y-2610865D01*
X6864350Y-2537968D01*
X6069584Y-2692400D02*
G01*
X6178550Y-2692400D01*
X6069584Y-2692400D02*
G01*
X6069584Y-2645663D01*
X6074663Y-2630170D01*
X6079997Y-2624836D01*
X6090411Y-2619755D01*
X6100825Y-2619755D01*
X6111240Y-2624836D01*
X6116320Y-2630170D01*
X6121400Y-2645663D01*
X6121400Y-2692400D01*
X6121400Y-2656078D02*
G01*
X6178550Y-2619755D01*
X6069584Y-2575052D02*
G01*
X6069584Y-2517902D01*
X6111240Y-2548889D01*
X6111240Y-2533395D01*
X6116320Y-2522981D01*
X6121400Y-2517902D01*
X6137147Y-2512568D01*
X6147561Y-2512568D01*
X6163056Y-2517902D01*
X6173470Y-2528315D01*
X6178550Y-2543810D01*
X6178550Y-2559304D01*
X6173470Y-2575052D01*
X6168390Y-2580131D01*
X6157975Y-2585465D01*
X7593584Y-2717800D02*
G01*
X7702550Y-2717800D01*
X7593584Y-2717800D02*
G01*
X7593584Y-2671063D01*
X7598663Y-2655570D01*
X7603997Y-2650236D01*
X7614411Y-2645155D01*
X7624825Y-2645155D01*
X7635240Y-2650236D01*
X7640320Y-2655570D01*
X7645400Y-2671063D01*
X7645400Y-2717800D01*
X7645400Y-2681478D02*
G01*
X7702550Y-2645155D01*
X7593584Y-2558795D02*
G01*
X7666227Y-2610865D01*
X7666227Y-2532887D01*
X7593584Y-2558795D02*
G01*
X7702550Y-2558795D01*
X8253984Y-2730500D02*
G01*
X8362950Y-2730500D01*
X8253984Y-2730500D02*
G01*
X8253984Y-2683763D01*
X8259063Y-2668270D01*
X8264397Y-2662936D01*
X8274811Y-2657855D01*
X8285225Y-2657855D01*
X8295640Y-2662936D01*
X8300720Y-2668270D01*
X8305800Y-2683763D01*
X8305800Y-2730500D01*
X8305800Y-2694178D02*
G01*
X8362950Y-2657855D01*
X8253984Y-2561081D02*
G01*
X8253984Y-2613152D01*
X8300720Y-2618231D01*
X8295640Y-2613152D01*
X8290306Y-2597404D01*
X8290306Y-2581910D01*
X8295640Y-2566415D01*
X8305800Y-2556002D01*
X8321547Y-2550668D01*
X8331961Y-2550668D01*
X8347456Y-2556002D01*
X8357870Y-2566415D01*
X8362950Y-2581910D01*
X8362950Y-2597404D01*
X8357870Y-2613152D01*
X8352790Y-2618231D01*
X8342375Y-2623565D01*
X8622284Y-2095500D02*
G01*
X8731250Y-2095500D01*
X8622284Y-2095500D02*
G01*
X8622284Y-2048763D01*
X8627363Y-2033270D01*
X8632697Y-2027936D01*
X8643111Y-2022855D01*
X8653525Y-2022855D01*
X8663940Y-2027936D01*
X8669020Y-2033270D01*
X8674100Y-2048763D01*
X8674100Y-2095500D01*
X8674100Y-2059178D02*
G01*
X8731250Y-2022855D01*
X8643111Y-1988565D02*
G01*
X8637777Y-1978152D01*
X8622284Y-1962404D01*
X8731250Y-1962404D01*
X8643111Y-1928113D02*
G01*
X8637777Y-1917700D01*
X8622284Y-1902205D01*
X8731250Y-1902205D01*
X9155684Y-2705100D02*
G01*
X9264650Y-2705100D01*
X9155684Y-2705100D02*
G01*
X9155684Y-2658363D01*
X9160763Y-2642870D01*
X9166097Y-2637536D01*
X9176511Y-2632455D01*
X9186925Y-2632455D01*
X9197340Y-2637536D01*
X9202420Y-2642870D01*
X9207500Y-2658363D01*
X9207500Y-2705100D01*
X9207500Y-2668778D02*
G01*
X9264650Y-2632455D01*
X9176511Y-2598165D02*
G01*
X9171177Y-2587752D01*
X9155684Y-2572004D01*
X9264650Y-2572004D01*
X9181591Y-2532634D02*
G01*
X9176511Y-2532634D01*
X9166097Y-2527300D01*
X9160763Y-2522220D01*
X9155684Y-2511805D01*
X9155684Y-2490978D01*
X9160763Y-2480563D01*
X9166097Y-2475484D01*
X9176511Y-2470150D01*
X9186925Y-2470150D01*
X9197340Y-2475484D01*
X9212834Y-2485897D01*
X9264650Y-2537713D01*
X9264650Y-2465070D01*
X9816084Y-2705100D02*
G01*
X9925050Y-2705100D01*
X9816084Y-2705100D02*
G01*
X9816084Y-2658363D01*
X9821163Y-2642870D01*
X9826497Y-2637536D01*
X9836911Y-2632455D01*
X9847325Y-2632455D01*
X9857740Y-2637536D01*
X9862820Y-2642870D01*
X9867900Y-2658363D01*
X9867900Y-2705100D01*
X9867900Y-2668778D02*
G01*
X9925050Y-2632455D01*
X9836911Y-2598165D02*
G01*
X9831577Y-2587752D01*
X9816084Y-2572004D01*
X9925050Y-2572004D01*
X9816084Y-2527300D02*
G01*
X9816084Y-2470150D01*
X9857740Y-2501392D01*
X9857740Y-2485897D01*
X9862820Y-2475484D01*
X9867900Y-2470150D01*
X9883647Y-2465070D01*
X9894061Y-2465070D01*
X9909556Y-2470150D01*
X9919970Y-2480563D01*
X9925050Y-2496312D01*
X9925050Y-2511805D01*
X9919970Y-2527300D01*
X9914890Y-2532634D01*
X9904475Y-2537713D01*
X10184384Y-2095500D02*
G01*
X10293350Y-2095500D01*
X10184384Y-2095500D02*
G01*
X10184384Y-2048763D01*
X10189463Y-2033270D01*
X10194797Y-2027936D01*
X10205211Y-2022855D01*
X10215625Y-2022855D01*
X10226040Y-2027936D01*
X10231120Y-2033270D01*
X10236200Y-2048763D01*
X10236200Y-2095500D01*
X10236200Y-2059178D02*
G01*
X10293350Y-2022855D01*
X10205211Y-1988565D02*
G01*
X10199877Y-1978152D01*
X10184384Y-1962404D01*
X10293350Y-1962404D01*
X10184384Y-1876297D02*
G01*
X10257027Y-1928113D01*
X10257027Y-1850389D01*
X10184384Y-1876297D02*
G01*
X10293350Y-1876297D01*
X11695684Y-2082800D02*
G01*
X11804650Y-2082800D01*
X11695684Y-2082800D02*
G01*
X11695684Y-2036063D01*
X11700763Y-2020570D01*
X11706097Y-2015236D01*
X11716511Y-2010155D01*
X11726925Y-2010155D01*
X11737340Y-2015236D01*
X11742420Y-2020570D01*
X11747500Y-2036063D01*
X11747500Y-2082800D01*
X11747500Y-2046478D02*
G01*
X11804650Y-2010155D01*
X11716511Y-1975865D02*
G01*
X11711177Y-1965452D01*
X11695684Y-1949704D01*
X11804650Y-1949704D01*
X11695684Y-1853184D02*
G01*
X11695684Y-1905000D01*
X11742420Y-1910334D01*
X11737340Y-1905000D01*
X11732006Y-1889505D01*
X11732006Y-1874012D01*
X11737340Y-1858263D01*
X11747500Y-1847850D01*
X11763247Y-1842770D01*
X11773661Y-1842770D01*
X11789156Y-1847850D01*
X11799570Y-1858263D01*
X11804650Y-1874012D01*
X11804650Y-1889505D01*
X11799570Y-1905000D01*
X11794490Y-1910334D01*
X11784075Y-1915413D01*
X4570984Y-2743200D02*
G01*
X4679950Y-2743200D01*
X4570984Y-2743200D02*
G01*
X4570984Y-2696463D01*
X4576063Y-2680970D01*
X4581397Y-2675636D01*
X4591811Y-2670555D01*
X4602225Y-2670555D01*
X4612640Y-2675636D01*
X4617720Y-2680970D01*
X4622800Y-2696463D01*
X4622800Y-2743200D01*
X4622800Y-2706878D02*
G01*
X4679950Y-2670555D01*
X4591811Y-2636265D02*
G01*
X4586477Y-2625852D01*
X4570984Y-2610104D01*
X4679950Y-2610104D01*
X4586477Y-2513584D02*
G01*
X4576063Y-2518663D01*
X4570984Y-2534412D01*
X4570984Y-2544826D01*
X4576063Y-2560320D01*
X4591811Y-2570734D01*
X4617720Y-2575813D01*
X4643627Y-2575813D01*
X4664456Y-2570734D01*
X4674870Y-2560320D01*
X4679950Y-2544826D01*
X4679950Y-2539492D01*
X4674870Y-2523997D01*
X4664456Y-2513584D01*
X4648961Y-2508250D01*
X4643627Y-2508250D01*
X4628134Y-2513584D01*
X4617720Y-2523997D01*
X4612640Y-2539492D01*
X4612640Y-2544826D01*
X4617720Y-2560320D01*
X4628134Y-2570734D01*
X4643627Y-2575813D01*
X5231384Y-2755900D02*
G01*
X5340350Y-2755900D01*
X5231384Y-2755900D02*
G01*
X5231384Y-2709163D01*
X5236463Y-2693670D01*
X5241797Y-2688336D01*
X5252211Y-2683255D01*
X5262625Y-2683255D01*
X5273040Y-2688336D01*
X5278120Y-2693670D01*
X5283200Y-2709163D01*
X5283200Y-2755900D01*
X5283200Y-2719578D02*
G01*
X5340350Y-2683255D01*
X5252211Y-2648965D02*
G01*
X5246877Y-2638552D01*
X5231384Y-2622804D01*
X5340350Y-2622804D01*
X5231384Y-2515870D02*
G01*
X5340350Y-2567939D01*
X5231384Y-2588513D02*
G01*
X5231384Y-2515870D01*
X5625084Y-2120900D02*
G01*
X5734050Y-2120900D01*
X5625084Y-2120900D02*
G01*
X5625084Y-2074163D01*
X5630163Y-2058670D01*
X5635497Y-2053336D01*
X5645911Y-2048255D01*
X5656325Y-2048255D01*
X5666740Y-2053336D01*
X5671820Y-2058670D01*
X5676900Y-2074163D01*
X5676900Y-2120900D01*
X5676900Y-2084578D02*
G01*
X5734050Y-2048255D01*
X5645911Y-2013965D02*
G01*
X5640577Y-2003552D01*
X5625084Y-1987804D01*
X5734050Y-1987804D01*
X5625084Y-1927605D02*
G01*
X5630163Y-1943100D01*
X5640577Y-1948434D01*
X5650991Y-1948434D01*
X5661406Y-1943100D01*
X5666740Y-1932939D01*
X5671820Y-1912112D01*
X5676900Y-1896363D01*
X5687313Y-1885950D01*
X5697727Y-1880870D01*
X5713475Y-1880870D01*
X5723890Y-1885950D01*
X5728970Y-1891284D01*
X5734050Y-1906778D01*
X5734050Y-1927605D01*
X5728970Y-1943100D01*
X5723890Y-1948434D01*
X5713475Y-1953513D01*
X5697727Y-1953513D01*
X5687313Y-1948434D01*
X5676900Y-1938020D01*
X5671820Y-1922526D01*
X5666740Y-1901697D01*
X5661406Y-1891284D01*
X5650991Y-1885950D01*
X5640577Y-1885950D01*
X5630163Y-1891284D01*
X5625084Y-1906778D01*
X5625084Y-1927605D01*
X11314684Y-2717800D02*
G01*
X11423650Y-2717800D01*
X11314684Y-2717800D02*
G01*
X11314684Y-2671063D01*
X11319763Y-2655570D01*
X11325097Y-2650236D01*
X11335511Y-2645155D01*
X11345925Y-2645155D01*
X11356340Y-2650236D01*
X11361420Y-2655570D01*
X11366500Y-2671063D01*
X11366500Y-2717800D01*
X11366500Y-2681478D02*
G01*
X11423650Y-2645155D01*
X11335511Y-2610865D02*
G01*
X11330177Y-2600452D01*
X11314684Y-2584704D01*
X11423650Y-2584704D01*
X11351006Y-2482850D02*
G01*
X11366500Y-2488184D01*
X11376913Y-2498597D01*
X11382247Y-2514092D01*
X11382247Y-2519426D01*
X11376913Y-2534920D01*
X11366500Y-2545334D01*
X11351006Y-2550413D01*
X11345925Y-2550413D01*
X11330177Y-2545334D01*
X11319763Y-2534920D01*
X11314684Y-2519426D01*
X11314684Y-2514092D01*
X11319763Y-2498597D01*
X11330177Y-2488184D01*
X11351006Y-2482850D01*
X11376913Y-2482850D01*
X11403075Y-2488184D01*
X11418570Y-2498597D01*
X11423650Y-2514092D01*
X11423650Y-2524505D01*
X11418570Y-2540000D01*
X11408156Y-2545334D01*
X10641584Y-2743200D02*
G01*
X10750550Y-2743200D01*
X10641584Y-2743200D02*
G01*
X10641584Y-2696463D01*
X10646663Y-2680970D01*
X10651997Y-2675636D01*
X10662411Y-2670555D01*
X10672825Y-2670555D01*
X10683240Y-2675636D01*
X10688320Y-2680970D01*
X10693400Y-2696463D01*
X10693400Y-2743200D01*
X10693400Y-2706878D02*
G01*
X10750550Y-2670555D01*
X10667491Y-2630931D02*
G01*
X10662411Y-2630931D01*
X10651997Y-2625852D01*
X10646663Y-2620518D01*
X10641584Y-2610104D01*
X10641584Y-2589529D01*
X10646663Y-2579115D01*
X10651997Y-2573781D01*
X10662411Y-2568702D01*
X10672825Y-2568702D01*
X10683240Y-2573781D01*
X10698734Y-2584195D01*
X10750550Y-2636265D01*
X10750550Y-2563368D01*
X10641584Y-2498089D02*
G01*
X10646663Y-2513584D01*
X10662411Y-2523997D01*
X10688320Y-2529078D01*
X10703813Y-2529078D01*
X10729975Y-2523997D01*
X10745470Y-2513584D01*
X10750550Y-2498089D01*
X10750550Y-2487676D01*
X10745470Y-2471928D01*
X10729975Y-2461513D01*
X10703813Y-2456434D01*
X10688320Y-2456434D01*
X10662411Y-2461513D01*
X10646663Y-2471928D01*
X10641584Y-2487676D01*
X10641584Y-2498089D01*
X7189215Y-4394200D02*
G01*
X7080250Y-4394200D01*
X7189215Y-4394200D02*
G01*
X7189215Y-4440936D01*
X7184136Y-4456429D01*
X7178802Y-4461763D01*
X7168388Y-4466844D01*
X7157974Y-4466844D01*
X7147559Y-4461763D01*
X7142479Y-4456429D01*
X7137400Y-4440936D01*
X7137400Y-4394200D01*
X7137400Y-4430521D02*
G01*
X7080250Y-4466844D01*
X7163308Y-4506468D02*
G01*
X7168388Y-4506468D01*
X7178802Y-4511547D01*
X7184136Y-4516881D01*
X7189215Y-4527295D01*
X7189215Y-4547870D01*
X7184136Y-4558284D01*
X7178802Y-4563618D01*
X7168388Y-4568697D01*
X7157974Y-4568697D01*
X7147559Y-4563618D01*
X7132065Y-4553204D01*
X7080250Y-4501134D01*
X7080250Y-4574031D01*
X7168388Y-4608321D02*
G01*
X7173722Y-4618736D01*
X7189215Y-4634229D01*
X7080250Y-4634229D01*
X6516115Y-4394200D02*
G01*
X6407150Y-4394200D01*
X6516115Y-4394200D02*
G01*
X6516115Y-4440936D01*
X6511036Y-4456429D01*
X6505702Y-4461763D01*
X6495288Y-4466844D01*
X6484874Y-4466844D01*
X6474459Y-4461763D01*
X6469379Y-4456429D01*
X6464300Y-4440936D01*
X6464300Y-4394200D01*
X6464300Y-4430521D02*
G01*
X6407150Y-4466844D01*
X6490208Y-4506468D02*
G01*
X6495288Y-4506468D01*
X6505702Y-4511547D01*
X6511036Y-4516881D01*
X6516115Y-4527295D01*
X6516115Y-4547870D01*
X6511036Y-4558284D01*
X6505702Y-4563618D01*
X6495288Y-4568697D01*
X6484874Y-4568697D01*
X6474459Y-4563618D01*
X6458965Y-4553204D01*
X6407150Y-4501134D01*
X6407150Y-4574031D01*
X6490208Y-4613402D02*
G01*
X6495288Y-4613402D01*
X6505702Y-4618736D01*
X6511036Y-4623815D01*
X6516115Y-4634229D01*
X6516115Y-4655057D01*
X6511036Y-4665471D01*
X6505702Y-4670552D01*
X6495288Y-4675886D01*
X6484874Y-4675886D01*
X6474459Y-4670552D01*
X6458965Y-4660137D01*
X6407150Y-4608321D01*
X6407150Y-4680965D01*
X6185915Y-4991100D02*
G01*
X6076950Y-4991100D01*
X6185915Y-4991100D02*
G01*
X6185915Y-5037836D01*
X6180836Y-5053329D01*
X6175502Y-5058663D01*
X6165088Y-5063744D01*
X6154674Y-5063744D01*
X6144259Y-5058663D01*
X6139179Y-5053329D01*
X6134100Y-5037836D01*
X6134100Y-4991100D01*
X6134100Y-5027421D02*
G01*
X6076950Y-5063744D01*
X6160008Y-5103368D02*
G01*
X6165088Y-5103368D01*
X6175502Y-5108447D01*
X6180836Y-5113781D01*
X6185915Y-5124195D01*
X6185915Y-5144770D01*
X6180836Y-5155184D01*
X6175502Y-5160518D01*
X6165088Y-5165597D01*
X6154674Y-5165597D01*
X6144259Y-5160518D01*
X6128765Y-5150104D01*
X6076950Y-5098034D01*
X6076950Y-5170931D01*
X6185915Y-5215636D02*
G01*
X6185915Y-5272786D01*
X6144259Y-5241544D01*
X6144259Y-5257037D01*
X6139179Y-5267452D01*
X6134100Y-5272786D01*
X6118352Y-5277865D01*
X6107938Y-5277865D01*
X6092443Y-5272786D01*
X6082029Y-5262371D01*
X6076950Y-5246623D01*
X6076950Y-5231129D01*
X6082029Y-5215636D01*
X6087109Y-5210302D01*
X6097524Y-5205221D01*
X7697215Y-5003800D02*
G01*
X7588250Y-5003800D01*
X7697215Y-5003800D02*
G01*
X7697215Y-5050536D01*
X7692136Y-5066029D01*
X7686802Y-5071363D01*
X7676388Y-5076444D01*
X7665974Y-5076444D01*
X7655559Y-5071363D01*
X7650479Y-5066029D01*
X7645400Y-5050536D01*
X7645400Y-5003800D01*
X7645400Y-5040121D02*
G01*
X7588250Y-5076444D01*
X7671308Y-5116068D02*
G01*
X7676388Y-5116068D01*
X7686802Y-5121147D01*
X7692136Y-5126481D01*
X7697215Y-5136895D01*
X7697215Y-5157470D01*
X7692136Y-5167884D01*
X7686802Y-5173218D01*
X7676388Y-5178297D01*
X7665974Y-5178297D01*
X7655559Y-5173218D01*
X7640065Y-5162804D01*
X7588250Y-5110734D01*
X7588250Y-5183631D01*
X7697215Y-5269737D02*
G01*
X7624572Y-5217921D01*
X7624572Y-5295900D01*
X7697215Y-5269737D02*
G01*
X7588250Y-5269737D01*
X8040115Y-4381500D02*
G01*
X7931150Y-4381500D01*
X8040115Y-4381500D02*
G01*
X8040115Y-4428236D01*
X8035036Y-4443729D01*
X8029702Y-4449063D01*
X8019288Y-4454144D01*
X8008874Y-4454144D01*
X7998459Y-4449063D01*
X7993379Y-4443729D01*
X7988300Y-4428236D01*
X7988300Y-4381500D01*
X7988300Y-4417821D02*
G01*
X7931150Y-4454144D01*
X8014208Y-4493768D02*
G01*
X8019288Y-4493768D01*
X8029702Y-4498847D01*
X8035036Y-4504181D01*
X8040115Y-4514595D01*
X8040115Y-4535170D01*
X8035036Y-4545584D01*
X8029702Y-4550918D01*
X8019288Y-4555997D01*
X8008874Y-4555997D01*
X7998459Y-4550918D01*
X7982965Y-4540504D01*
X7931150Y-4488434D01*
X7931150Y-4561331D01*
X8040115Y-4657852D02*
G01*
X8040115Y-4606036D01*
X7993379Y-4600702D01*
X7998459Y-4606036D01*
X8003793Y-4621529D01*
X8003793Y-4637023D01*
X7998459Y-4652771D01*
X7988300Y-4663186D01*
X7972552Y-4668265D01*
X7962138Y-4668265D01*
X7946643Y-4663186D01*
X7936229Y-4652771D01*
X7931150Y-4637023D01*
X7931150Y-4621529D01*
X7936229Y-4606036D01*
X7941309Y-4600702D01*
X7951724Y-4595621D01*
X8725915Y-4381500D02*
G01*
X8616950Y-4381500D01*
X8725915Y-4381500D02*
G01*
X8725915Y-4428236D01*
X8720836Y-4443729D01*
X8715502Y-4449063D01*
X8705088Y-4454144D01*
X8694674Y-4454144D01*
X8684259Y-4449063D01*
X8679179Y-4443729D01*
X8674100Y-4428236D01*
X8674100Y-4381500D01*
X8674100Y-4417821D02*
G01*
X8616950Y-4454144D01*
X8700008Y-4493768D02*
G01*
X8705088Y-4493768D01*
X8715502Y-4498847D01*
X8720836Y-4504181D01*
X8725915Y-4514595D01*
X8725915Y-4535170D01*
X8720836Y-4545584D01*
X8715502Y-4550918D01*
X8705088Y-4555997D01*
X8694674Y-4555997D01*
X8684259Y-4550918D01*
X8668765Y-4540504D01*
X8616950Y-4488434D01*
X8616950Y-4561331D01*
X8710422Y-4657852D02*
G01*
X8720836Y-4652771D01*
X8725915Y-4637023D01*
X8725915Y-4626610D01*
X8720836Y-4611115D01*
X8705088Y-4600702D01*
X8679179Y-4595621D01*
X8653272Y-4595621D01*
X8632443Y-4600702D01*
X8622029Y-4611115D01*
X8616950Y-4626610D01*
X8616950Y-4631944D01*
X8622029Y-4647437D01*
X8632443Y-4657852D01*
X8647938Y-4663186D01*
X8653272Y-4663186D01*
X8668765Y-4657852D01*
X8679179Y-4647437D01*
X8684259Y-4631944D01*
X8684259Y-4626610D01*
X8679179Y-4611115D01*
X8668765Y-4600702D01*
X8653272Y-4595621D01*
X9221215Y-4991100D02*
G01*
X9112250Y-4991100D01*
X9221215Y-4991100D02*
G01*
X9221215Y-5037836D01*
X9216136Y-5053329D01*
X9210802Y-5058663D01*
X9200388Y-5063744D01*
X9189974Y-5063744D01*
X9179559Y-5058663D01*
X9174479Y-5053329D01*
X9169400Y-5037836D01*
X9169400Y-4991100D01*
X9169400Y-5027421D02*
G01*
X9112250Y-5063744D01*
X9195308Y-5103368D02*
G01*
X9200388Y-5103368D01*
X9210802Y-5108447D01*
X9216136Y-5113781D01*
X9221215Y-5124195D01*
X9221215Y-5144770D01*
X9216136Y-5155184D01*
X9210802Y-5160518D01*
X9200388Y-5165597D01*
X9189974Y-5165597D01*
X9179559Y-5160518D01*
X9164065Y-5150104D01*
X9112250Y-5098034D01*
X9112250Y-5170931D01*
X9221215Y-5277865D02*
G01*
X9112250Y-5226050D01*
X9221215Y-5205221D02*
G01*
X9221215Y-5277865D01*
X9602215Y-4394200D02*
G01*
X9493250Y-4394200D01*
X9602215Y-4394200D02*
G01*
X9602215Y-4440936D01*
X9597136Y-4456429D01*
X9591802Y-4461763D01*
X9581388Y-4466844D01*
X9570974Y-4466844D01*
X9560559Y-4461763D01*
X9555479Y-4456429D01*
X9550400Y-4440936D01*
X9550400Y-4394200D01*
X9550400Y-4430521D02*
G01*
X9493250Y-4466844D01*
X9576308Y-4506468D02*
G01*
X9581388Y-4506468D01*
X9591802Y-4511547D01*
X9597136Y-4516881D01*
X9602215Y-4527295D01*
X9602215Y-4547870D01*
X9597136Y-4558284D01*
X9591802Y-4563618D01*
X9581388Y-4568697D01*
X9570974Y-4568697D01*
X9560559Y-4563618D01*
X9545065Y-4553204D01*
X9493250Y-4501134D01*
X9493250Y-4574031D01*
X9602215Y-4634229D02*
G01*
X9597136Y-4618736D01*
X9586722Y-4613402D01*
X9576308Y-4613402D01*
X9565893Y-4618736D01*
X9560559Y-4629150D01*
X9555479Y-4649723D01*
X9550400Y-4665471D01*
X9539986Y-4675886D01*
X9529572Y-4680965D01*
X9513824Y-4680965D01*
X9503409Y-4675886D01*
X9498329Y-4670552D01*
X9493250Y-4655057D01*
X9493250Y-4634229D01*
X9498329Y-4618736D01*
X9503409Y-4613402D01*
X9513824Y-4608321D01*
X9529572Y-4608321D01*
X9539986Y-4613402D01*
X9550400Y-4623815D01*
X9555479Y-4639310D01*
X9560559Y-4660137D01*
X9565893Y-4670552D01*
X9576308Y-4675886D01*
X9586722Y-4675886D01*
X9597136Y-4670552D01*
X9602215Y-4655057D01*
X9602215Y-4634229D01*
X10275315Y-4381500D02*
G01*
X10166350Y-4381500D01*
X10275315Y-4381500D02*
G01*
X10275315Y-4428236D01*
X10270236Y-4443729D01*
X10264902Y-4449063D01*
X10254488Y-4454144D01*
X10244074Y-4454144D01*
X10233659Y-4449063D01*
X10228579Y-4443729D01*
X10223500Y-4428236D01*
X10223500Y-4381500D01*
X10223500Y-4417821D02*
G01*
X10166350Y-4454144D01*
X10249408Y-4493768D02*
G01*
X10254488Y-4493768D01*
X10264902Y-4498847D01*
X10270236Y-4504181D01*
X10275315Y-4514595D01*
X10275315Y-4535170D01*
X10270236Y-4545584D01*
X10264902Y-4550918D01*
X10254488Y-4555997D01*
X10244074Y-4555997D01*
X10233659Y-4550918D01*
X10218165Y-4540504D01*
X10166350Y-4488434D01*
X10166350Y-4561331D01*
X10238993Y-4663186D02*
G01*
X10223500Y-4657852D01*
X10213086Y-4647437D01*
X10207752Y-4631944D01*
X10207752Y-4626610D01*
X10213086Y-4611115D01*
X10223500Y-4600702D01*
X10238993Y-4595621D01*
X10244074Y-4595621D01*
X10259822Y-4600702D01*
X10270236Y-4611115D01*
X10275315Y-4626610D01*
X10275315Y-4631944D01*
X10270236Y-4647437D01*
X10259822Y-4657852D01*
X10238993Y-4663186D01*
X10213086Y-4663186D01*
X10186924Y-4657852D01*
X10171429Y-4647437D01*
X10166350Y-4631944D01*
X10166350Y-4621529D01*
X10171429Y-4606036D01*
X10181843Y-4600702D01*
X11786615Y-4356100D02*
G01*
X11677650Y-4356100D01*
X11786615Y-4356100D02*
G01*
X11786615Y-4402836D01*
X11781536Y-4418329D01*
X11776202Y-4423663D01*
X11765788Y-4428744D01*
X11755374Y-4428744D01*
X11744959Y-4423663D01*
X11739879Y-4418329D01*
X11734800Y-4402836D01*
X11734800Y-4356100D01*
X11734800Y-4392421D02*
G01*
X11677650Y-4428744D01*
X11786615Y-4473447D02*
G01*
X11786615Y-4530597D01*
X11744959Y-4499610D01*
X11744959Y-4515104D01*
X11739879Y-4525518D01*
X11734800Y-4530597D01*
X11719052Y-4535931D01*
X11708638Y-4535931D01*
X11693143Y-4530597D01*
X11682729Y-4520184D01*
X11677650Y-4504689D01*
X11677650Y-4489195D01*
X11682729Y-4473447D01*
X11687809Y-4468368D01*
X11698224Y-4463034D01*
X11786615Y-4601210D02*
G01*
X11781536Y-4585715D01*
X11765788Y-4575302D01*
X11739879Y-4570221D01*
X11724386Y-4570221D01*
X11698224Y-4575302D01*
X11682729Y-4585715D01*
X11677650Y-4601210D01*
X11677650Y-4611623D01*
X11682729Y-4627371D01*
X11698224Y-4637786D01*
X11724386Y-4642865D01*
X11739879Y-4642865D01*
X11765788Y-4637786D01*
X11781536Y-4627371D01*
X11786615Y-4611623D01*
X11786615Y-4601210D01*
X11100815Y-4356100D02*
G01*
X10991850Y-4356100D01*
X11100815Y-4356100D02*
G01*
X11100815Y-4402836D01*
X11095736Y-4418329D01*
X11090402Y-4423663D01*
X11079988Y-4428744D01*
X11069574Y-4428744D01*
X11059159Y-4423663D01*
X11054079Y-4418329D01*
X11049000Y-4402836D01*
X11049000Y-4356100D01*
X11049000Y-4392421D02*
G01*
X10991850Y-4428744D01*
X11100815Y-4473447D02*
G01*
X11100815Y-4530597D01*
X11059159Y-4499610D01*
X11059159Y-4515104D01*
X11054079Y-4525518D01*
X11049000Y-4530597D01*
X11033252Y-4535931D01*
X11022838Y-4535931D01*
X11007343Y-4530597D01*
X10996929Y-4520184D01*
X10991850Y-4504689D01*
X10991850Y-4489195D01*
X10996929Y-4473447D01*
X11002009Y-4468368D01*
X11012424Y-4463034D01*
X11079988Y-4570221D02*
G01*
X11085322Y-4580636D01*
X11100815Y-4596129D01*
X10991850Y-4596129D01*
X10745215Y-5016500D02*
G01*
X10636250Y-5016500D01*
X10745215Y-5016500D02*
G01*
X10745215Y-5063236D01*
X10740136Y-5078729D01*
X10734802Y-5084063D01*
X10724388Y-5089144D01*
X10713974Y-5089144D01*
X10703559Y-5084063D01*
X10698479Y-5078729D01*
X10693400Y-5063236D01*
X10693400Y-5016500D01*
X10693400Y-5052821D02*
G01*
X10636250Y-5089144D01*
X10745215Y-5133847D02*
G01*
X10745215Y-5190997D01*
X10703559Y-5160010D01*
X10703559Y-5175504D01*
X10698479Y-5185918D01*
X10693400Y-5190997D01*
X10677652Y-5196331D01*
X10667238Y-5196331D01*
X10651743Y-5190997D01*
X10641329Y-5180584D01*
X10636250Y-5165089D01*
X10636250Y-5149595D01*
X10641329Y-5133847D01*
X10646409Y-5128768D01*
X10656824Y-5123434D01*
X10719308Y-5235702D02*
G01*
X10724388Y-5235702D01*
X10734802Y-5241036D01*
X10740136Y-5246115D01*
X10745215Y-5256529D01*
X10745215Y-5277357D01*
X10740136Y-5287771D01*
X10734802Y-5292852D01*
X10724388Y-5298186D01*
X10713974Y-5298186D01*
X10703559Y-5292852D01*
X10688065Y-5282437D01*
X10636250Y-5230621D01*
X10636250Y-5303265D01*
X13194284Y-2070100D02*
G01*
X13303250Y-2070100D01*
X13194284Y-2070100D02*
G01*
X13194284Y-2023363D01*
X13199363Y-2007870D01*
X13204697Y-2002536D01*
X13215111Y-1997455D01*
X13225525Y-1997455D01*
X13235940Y-2002536D01*
X13241020Y-2007870D01*
X13246100Y-2023363D01*
X13246100Y-2070100D01*
X13246100Y-2033778D02*
G01*
X13303250Y-1997455D01*
X13194284Y-1952752D02*
G01*
X13194284Y-1895602D01*
X13235940Y-1926589D01*
X13235940Y-1911095D01*
X13241020Y-1900681D01*
X13246100Y-1895602D01*
X13261847Y-1890268D01*
X13272261Y-1890268D01*
X13287756Y-1895602D01*
X13298170Y-1906015D01*
X13303250Y-1921510D01*
X13303250Y-1937004D01*
X13298170Y-1952752D01*
X13293090Y-1957831D01*
X13282675Y-1963165D01*
X13194284Y-1845563D02*
G01*
X13194284Y-1788413D01*
X13235940Y-1819655D01*
X13235940Y-1804162D01*
X13241020Y-1793747D01*
X13246100Y-1788413D01*
X13261847Y-1783334D01*
X13272261Y-1783334D01*
X13287756Y-1788413D01*
X13298170Y-1798828D01*
X13303250Y-1814576D01*
X13303250Y-1830070D01*
X13298170Y-1845563D01*
X13293090Y-1850897D01*
X13282675Y-1855978D01*
X12864084Y-2717800D02*
G01*
X12973050Y-2717800D01*
X12864084Y-2717800D02*
G01*
X12864084Y-2671063D01*
X12869163Y-2655570D01*
X12874497Y-2650236D01*
X12884911Y-2645155D01*
X12895325Y-2645155D01*
X12905740Y-2650236D01*
X12910820Y-2655570D01*
X12915900Y-2671063D01*
X12915900Y-2717800D01*
X12915900Y-2681478D02*
G01*
X12973050Y-2645155D01*
X12864084Y-2600452D02*
G01*
X12864084Y-2543302D01*
X12905740Y-2574289D01*
X12905740Y-2558795D01*
X12910820Y-2548381D01*
X12915900Y-2543302D01*
X12931647Y-2537968D01*
X12942061Y-2537968D01*
X12957556Y-2543302D01*
X12967970Y-2553715D01*
X12973050Y-2569210D01*
X12973050Y-2584704D01*
X12967970Y-2600452D01*
X12962890Y-2605531D01*
X12952475Y-2610865D01*
X12864084Y-2451862D02*
G01*
X12936727Y-2503678D01*
X12936727Y-2425700D01*
X12864084Y-2451862D02*
G01*
X12973050Y-2451862D01*
X12165584Y-2717800D02*
G01*
X12274550Y-2717800D01*
X12165584Y-2717800D02*
G01*
X12165584Y-2671063D01*
X12170663Y-2655570D01*
X12175997Y-2650236D01*
X12186411Y-2645155D01*
X12196825Y-2645155D01*
X12207240Y-2650236D01*
X12212320Y-2655570D01*
X12217400Y-2671063D01*
X12217400Y-2717800D01*
X12217400Y-2681478D02*
G01*
X12274550Y-2645155D01*
X12165584Y-2600452D02*
G01*
X12165584Y-2543302D01*
X12207240Y-2574289D01*
X12207240Y-2558795D01*
X12212320Y-2548381D01*
X12217400Y-2543302D01*
X12233147Y-2537968D01*
X12243561Y-2537968D01*
X12259056Y-2543302D01*
X12269470Y-2553715D01*
X12274550Y-2569210D01*
X12274550Y-2584704D01*
X12269470Y-2600452D01*
X12264390Y-2605531D01*
X12253975Y-2610865D01*
X12165584Y-2441447D02*
G01*
X12165584Y-2493263D01*
X12212320Y-2498597D01*
X12207240Y-2493263D01*
X12201906Y-2477770D01*
X12201906Y-2462276D01*
X12207240Y-2446528D01*
X12217400Y-2436113D01*
X12233147Y-2431034D01*
X12243561Y-2431034D01*
X12259056Y-2436113D01*
X12269470Y-2446528D01*
X12274550Y-2462276D01*
X12274550Y-2477770D01*
X12269470Y-2493263D01*
X12264390Y-2498597D01*
X12253975Y-2503678D01*
X6099784Y-1281696D02*
G01*
X6177762Y-1281696D01*
X6193256Y-1276616D01*
X6203670Y-1266202D01*
X6208750Y-1250454D01*
X6208750Y-1240040D01*
X6203670Y-1224546D01*
X6193256Y-1214132D01*
X6177762Y-1209052D01*
X6099784Y-1209052D01*
X6099784Y-1164348D02*
G01*
X6099784Y-1107198D01*
X6141440Y-1138186D01*
X6141440Y-1122692D01*
X6146520Y-1112278D01*
X6151600Y-1107198D01*
X6167348Y-1101864D01*
X6177762Y-1101864D01*
X6193256Y-1107198D01*
X6203670Y-1117612D01*
X6208750Y-1133106D01*
X6208750Y-1148600D01*
X6203670Y-1164348D01*
X6198590Y-1169428D01*
X6188176Y-1174762D01*
X4319015Y-520700D02*
G01*
X4241038Y-520700D01*
X4225543Y-525779D01*
X4215129Y-536194D01*
X4210050Y-551942D01*
X4210050Y-562355D01*
X4215129Y-577850D01*
X4225543Y-588263D01*
X4241038Y-593344D01*
X4319015Y-593344D01*
X4319015Y-679704D02*
G01*
X4246372Y-627634D01*
X4246372Y-705612D01*
X4319015Y-679704D02*
G01*
X4210050Y-679704D01*
X2742184Y-508000D02*
G01*
X2820161Y-508000D01*
X2835656Y-502920D01*
X2846070Y-492505D01*
X2851150Y-476757D01*
X2851150Y-466344D01*
X2846070Y-450850D01*
X2835656Y-440436D01*
X2820161Y-435355D01*
X2742184Y-435355D01*
X2742184Y-328168D02*
G01*
X2851150Y-380237D01*
X2742184Y-401065D02*
G01*
X2742184Y-328168D01*
X7623784Y-1281696D02*
G01*
X7701762Y-1281696D01*
X7717256Y-1276616D01*
X7727670Y-1266202D01*
X7732750Y-1250454D01*
X7732750Y-1240040D01*
X7727670Y-1224546D01*
X7717256Y-1214132D01*
X7701762Y-1209052D01*
X7623784Y-1209052D01*
X7623784Y-1148600D02*
G01*
X7628864Y-1164348D01*
X7639278Y-1169428D01*
X7649692Y-1169428D01*
X7660106Y-1164348D01*
X7665440Y-1153934D01*
X7670520Y-1133106D01*
X7675600Y-1117612D01*
X7686014Y-1107198D01*
X7696428Y-1101864D01*
X7712176Y-1101864D01*
X7722590Y-1107198D01*
X7727670Y-1112278D01*
X7732750Y-1128026D01*
X7732750Y-1148600D01*
X7727670Y-1164348D01*
X7722590Y-1169428D01*
X7712176Y-1174762D01*
X7696428Y-1174762D01*
X7686014Y-1169428D01*
X7675600Y-1159014D01*
X7670520Y-1143520D01*
X7665440Y-1122692D01*
X7660106Y-1112278D01*
X7649692Y-1107198D01*
X7639278Y-1107198D01*
X7628864Y-1112278D01*
X7623784Y-1128026D01*
X7623784Y-1148600D01*
X9147784Y-1281696D02*
G01*
X9225762Y-1281696D01*
X9241256Y-1276616D01*
X9251670Y-1266202D01*
X9256750Y-1250454D01*
X9256750Y-1240040D01*
X9251670Y-1224546D01*
X9241256Y-1214132D01*
X9225762Y-1209052D01*
X9147784Y-1209052D01*
X9184106Y-1107198D02*
G01*
X9199600Y-1112278D01*
X9210014Y-1122692D01*
X9215348Y-1138186D01*
X9215348Y-1143520D01*
X9210014Y-1159014D01*
X9199600Y-1169428D01*
X9184106Y-1174762D01*
X9179026Y-1174762D01*
X9163278Y-1169428D01*
X9152864Y-1159014D01*
X9147784Y-1143520D01*
X9147784Y-1138186D01*
X9152864Y-1122692D01*
X9163278Y-1112278D01*
X9184106Y-1107198D01*
X9210014Y-1107198D01*
X9236176Y-1112278D01*
X9251670Y-1122692D01*
X9256750Y-1138186D01*
X9256750Y-1148600D01*
X9251670Y-1164348D01*
X9241256Y-1169428D01*
X10671784Y-1281696D02*
G01*
X10749762Y-1281696D01*
X10765256Y-1276616D01*
X10775670Y-1266202D01*
X10780750Y-1250454D01*
X10780750Y-1240040D01*
X10775670Y-1224546D01*
X10765256Y-1214132D01*
X10749762Y-1209052D01*
X10671784Y-1209052D01*
X10692612Y-1174762D02*
G01*
X10687278Y-1164348D01*
X10671784Y-1148600D01*
X10780750Y-1148600D01*
X10671784Y-1062494D02*
G01*
X10744428Y-1114310D01*
X10744428Y-1036586D01*
X10671784Y-1062494D02*
G01*
X10780750Y-1062494D01*
X7209815Y-5817603D02*
G01*
X7131837Y-5817603D01*
X7116343Y-5822683D01*
X7105929Y-5833097D01*
X7100849Y-5848845D01*
X7100849Y-5859259D01*
X7105929Y-5874753D01*
X7116343Y-5885167D01*
X7131837Y-5890247D01*
X7209815Y-5890247D01*
X7188987Y-5924537D02*
G01*
X7194321Y-5934951D01*
X7209815Y-5950699D01*
X7100849Y-5950699D01*
X7209815Y-6047219D02*
G01*
X7209815Y-5995403D01*
X7163079Y-5990069D01*
X7168159Y-5995403D01*
X7173493Y-6010897D01*
X7173493Y-6026391D01*
X7168159Y-6042139D01*
X7157999Y-6052553D01*
X7142251Y-6057633D01*
X7131837Y-6057633D01*
X7116343Y-6052553D01*
X7105929Y-6042139D01*
X7100849Y-6026391D01*
X7100849Y-6010897D01*
X7105929Y-5995403D01*
X7111009Y-5990069D01*
X7121423Y-5984989D01*
X8733815Y-5817603D02*
G01*
X8655837Y-5817603D01*
X8640343Y-5822683D01*
X8629929Y-5833097D01*
X8624849Y-5848845D01*
X8624849Y-5859259D01*
X8629929Y-5874753D01*
X8640343Y-5885167D01*
X8655837Y-5890247D01*
X8733815Y-5890247D01*
X8712987Y-5924537D02*
G01*
X8718321Y-5934951D01*
X8733815Y-5950699D01*
X8624849Y-5950699D01*
X8718321Y-6047219D02*
G01*
X8728735Y-6042139D01*
X8733815Y-6026391D01*
X8733815Y-6015977D01*
X8728735Y-6000483D01*
X8712987Y-5990069D01*
X8687079Y-5984989D01*
X8661171Y-5984989D01*
X8640343Y-5990069D01*
X8629929Y-6000483D01*
X8624849Y-6015977D01*
X8624849Y-6021311D01*
X8629929Y-6036805D01*
X8640343Y-6047219D01*
X8655837Y-6052553D01*
X8661171Y-6052553D01*
X8676665Y-6047219D01*
X8687079Y-6036805D01*
X8692159Y-6021311D01*
X8692159Y-6015977D01*
X8687079Y-6000483D01*
X8676665Y-5990069D01*
X8661171Y-5984989D01*
X10257815Y-5817603D02*
G01*
X10179837Y-5817603D01*
X10164343Y-5822683D01*
X10153929Y-5833097D01*
X10148849Y-5848845D01*
X10148849Y-5859259D01*
X10153929Y-5874753D01*
X10164343Y-5885167D01*
X10179837Y-5890247D01*
X10257815Y-5890247D01*
X10236987Y-5924537D02*
G01*
X10242321Y-5934951D01*
X10257815Y-5950699D01*
X10148849Y-5950699D01*
X10257815Y-6057633D02*
G01*
X10148849Y-6005563D01*
X10257815Y-5984989D02*
G01*
X10257815Y-6057633D01*
X11781815Y-5817603D02*
G01*
X11703837Y-5817603D01*
X11688343Y-5822683D01*
X11677929Y-5833097D01*
X11672849Y-5848845D01*
X11672849Y-5859259D01*
X11677929Y-5874753D01*
X11688343Y-5885167D01*
X11703837Y-5890247D01*
X11781815Y-5890247D01*
X11760987Y-5924537D02*
G01*
X11766321Y-5934951D01*
X11781815Y-5950699D01*
X11672849Y-5950699D01*
X11781815Y-6010897D02*
G01*
X11776735Y-5995403D01*
X11766321Y-5990069D01*
X11755907Y-5990069D01*
X11745493Y-5995403D01*
X11740159Y-6005563D01*
X11735079Y-6026391D01*
X11729999Y-6042139D01*
X11719585Y-6052553D01*
X11709171Y-6057633D01*
X11693423Y-6057633D01*
X11683009Y-6052553D01*
X11677929Y-6047219D01*
X11672849Y-6031725D01*
X11672849Y-6010897D01*
X11677929Y-5995403D01*
X11683009Y-5990069D01*
X11693423Y-5984989D01*
X11709171Y-5984989D01*
X11719585Y-5990069D01*
X11729999Y-6000483D01*
X11735079Y-6015977D01*
X11740159Y-6036805D01*
X11745493Y-6047219D01*
X11755907Y-6052553D01*
X11766321Y-6052553D01*
X11776735Y-6047219D01*
X11781815Y-6031725D01*
X11781815Y-6010897D01*
X4575784Y-1281696D02*
G01*
X4653762Y-1281696D01*
X4669256Y-1276616D01*
X4679670Y-1266202D01*
X4684750Y-1250454D01*
X4684750Y-1240040D01*
X4679670Y-1224546D01*
X4669256Y-1214132D01*
X4653762Y-1209052D01*
X4575784Y-1209052D01*
X4596612Y-1174762D02*
G01*
X4591278Y-1164348D01*
X4575784Y-1148600D01*
X4684750Y-1148600D01*
X4612106Y-1046746D02*
G01*
X4627600Y-1052080D01*
X4638014Y-1062494D01*
X4643348Y-1077988D01*
X4643348Y-1083322D01*
X4638014Y-1098816D01*
X4627600Y-1109230D01*
X4612106Y-1114310D01*
X4607026Y-1114310D01*
X4591278Y-1109230D01*
X4580864Y-1098816D01*
X4575784Y-1083322D01*
X4575784Y-1077988D01*
X4580864Y-1062494D01*
X4591278Y-1052080D01*
X4612106Y-1046746D01*
X4638014Y-1046746D01*
X4664176Y-1052080D01*
X4679670Y-1062494D01*
X4684750Y-1077988D01*
X4684750Y-1088402D01*
X4679670Y-1103896D01*
X4669256Y-1109230D01*
X12195784Y-1281696D02*
G01*
X12273762Y-1281696D01*
X12289256Y-1276616D01*
X12299670Y-1266202D01*
X12304750Y-1250454D01*
X12304750Y-1240040D01*
X12299670Y-1224546D01*
X12289256Y-1214132D01*
X12273762Y-1209052D01*
X12195784Y-1209052D01*
X12221692Y-1169428D02*
G01*
X12216612Y-1169428D01*
X12206198Y-1164348D01*
X12200864Y-1159014D01*
X12195784Y-1148600D01*
X12195784Y-1128026D01*
X12200864Y-1117612D01*
X12206198Y-1112278D01*
X12216612Y-1107198D01*
X12227026Y-1107198D01*
X12237440Y-1112278D01*
X12252934Y-1122692D01*
X12304750Y-1174762D01*
X12304750Y-1101864D01*
X12195784Y-1036586D02*
G01*
X12200864Y-1052080D01*
X12216612Y-1062494D01*
X12242520Y-1067574D01*
X12258014Y-1067574D01*
X12284176Y-1062494D01*
X12299670Y-1052080D01*
X12304750Y-1036586D01*
X12304750Y-1026172D01*
X12299670Y-1010424D01*
X12284176Y-1000010D01*
X12258014Y-994930D01*
X12242520Y-994930D01*
X12216612Y-1000010D01*
X12200864Y-1010424D01*
X12195784Y-1026172D01*
X12195784Y-1036586D01*
X1371092Y-1471421D02*
G01*
X1360678Y-1476755D01*
X1350263Y-1487170D01*
X1345184Y-1497329D01*
X1345184Y-1518157D01*
X1350263Y-1528571D01*
X1360678Y-1538986D01*
X1371092Y-1544320D01*
X1386839Y-1549400D01*
X1412747Y-1549400D01*
X1428242Y-1544320D01*
X1438655Y-1538986D01*
X1449070Y-1528571D01*
X1454150Y-1518157D01*
X1454150Y-1497329D01*
X1449070Y-1487170D01*
X1438655Y-1476755D01*
X1428242Y-1471421D01*
X1366012Y-1437131D02*
G01*
X1360678Y-1426718D01*
X1345184Y-1411223D01*
X1454150Y-1411223D01*
X1650492Y-1484121D02*
G01*
X1640078Y-1489455D01*
X1629663Y-1499870D01*
X1624584Y-1510029D01*
X1624584Y-1530857D01*
X1629663Y-1541271D01*
X1640078Y-1551686D01*
X1650492Y-1557020D01*
X1666239Y-1562100D01*
X1692147Y-1562100D01*
X1707642Y-1557020D01*
X1718055Y-1551686D01*
X1728470Y-1541271D01*
X1733550Y-1530857D01*
X1733550Y-1510029D01*
X1728470Y-1499870D01*
X1718055Y-1489455D01*
X1707642Y-1484121D01*
X1650492Y-1444752D02*
G01*
X1645412Y-1444752D01*
X1634997Y-1439418D01*
X1629663Y-1434337D01*
X1624584Y-1423923D01*
X1624584Y-1403095D01*
X1629663Y-1392681D01*
X1634997Y-1387602D01*
X1645412Y-1382268D01*
X1655826Y-1382268D01*
X1666239Y-1387602D01*
X1681734Y-1398015D01*
X1733550Y-1449831D01*
X1733550Y-1377187D01*
X1957577Y-1447292D02*
G01*
X1952243Y-1436878D01*
X1941829Y-1426463D01*
X1931670Y-1421384D01*
X1910842Y-1421384D01*
X1900428Y-1426463D01*
X1890013Y-1436878D01*
X1884679Y-1447292D01*
X1879600Y-1463039D01*
X1879600Y-1488947D01*
X1884679Y-1504442D01*
X1890013Y-1514855D01*
X1900428Y-1525270D01*
X1910842Y-1530350D01*
X1931670Y-1530350D01*
X1941829Y-1525270D01*
X1952243Y-1514855D01*
X1957577Y-1504442D01*
X2002281Y-1421384D02*
G01*
X2059431Y-1421384D01*
X2028190Y-1463039D01*
X2043684Y-1463039D01*
X2054097Y-1468120D01*
X2059431Y-1473200D01*
X2064511Y-1488947D01*
X2064511Y-1499362D01*
X2059431Y-1514855D01*
X2049018Y-1525270D01*
X2033270Y-1530350D01*
X2017775Y-1530350D01*
X2002281Y-1525270D01*
X1996947Y-1520189D01*
X1991868Y-1509776D01*
X2554477Y-1866392D02*
G01*
X2549143Y-1855978D01*
X2538729Y-1845563D01*
X2528570Y-1840484D01*
X2507741Y-1840484D01*
X2497327Y-1845563D01*
X2486913Y-1855978D01*
X2481579Y-1866392D01*
X2476500Y-1882139D01*
X2476500Y-1908047D01*
X2481579Y-1923542D01*
X2486913Y-1933955D01*
X2497327Y-1944370D01*
X2507741Y-1949450D01*
X2528570Y-1949450D01*
X2538729Y-1944370D01*
X2549143Y-1933955D01*
X2554477Y-1923542D01*
X2640584Y-1840484D02*
G01*
X2588768Y-1913128D01*
X2666745Y-1913128D01*
X2640584Y-1840484D02*
G01*
X2640584Y-1949450D01*
X2590800Y-1065784D02*
G01*
X2590800Y-1174750D01*
X2590800Y-1065784D02*
G01*
X2627122Y-1065784D01*
X2642870Y-1070863D01*
X2653029Y-1081278D01*
X2658363Y-1091692D01*
X2663443Y-1107439D01*
X2663443Y-1133347D01*
X2658363Y-1148842D01*
X2653029Y-1159255D01*
X2642870Y-1169670D01*
X2627122Y-1174750D01*
X2590800Y-1174750D01*
X2708147Y-1065784D02*
G01*
X2765297Y-1065784D01*
X2734309Y-1107439D01*
X2749804Y-1107439D01*
X2760218Y-1112520D01*
X2765297Y-1117600D01*
X2770631Y-1133347D01*
X2770631Y-1143762D01*
X2765297Y-1159255D01*
X2754884Y-1169670D01*
X2739390Y-1174750D01*
X2723895Y-1174750D01*
X2708147Y-1169670D01*
X2703068Y-1164589D01*
X2697734Y-1154176D01*
X1131315Y-1435100D02*
G01*
X1022350Y-1435100D01*
X1131315Y-1435100D02*
G01*
X1131315Y-1471421D01*
X1126236Y-1487170D01*
X1115821Y-1497329D01*
X1105407Y-1502663D01*
X1089660Y-1507744D01*
X1063752Y-1507744D01*
X1048257Y-1502663D01*
X1037844Y-1497329D01*
X1027429Y-1487170D01*
X1022350Y-1471421D01*
X1022350Y-1435100D01*
X1105407Y-1547368D02*
G01*
X1110487Y-1547368D01*
X1120902Y-1552447D01*
X1126236Y-1557781D01*
X1131315Y-1568195D01*
X1131315Y-1588770D01*
X1126236Y-1599184D01*
X1120902Y-1604518D01*
X1110487Y-1609597D01*
X1100073Y-1609597D01*
X1089660Y-1604518D01*
X1074165Y-1594104D01*
X1022350Y-1542034D01*
X1022350Y-1614931D01*
X1955800Y-1065784D02*
G01*
X1955800Y-1174750D01*
X1955800Y-1065784D02*
G01*
X2002536Y-1065784D01*
X2018029Y-1070863D01*
X2023363Y-1076197D01*
X2028443Y-1086612D01*
X2028443Y-1097026D01*
X2023363Y-1107439D01*
X2018029Y-1112520D01*
X2002536Y-1117600D01*
X1955800Y-1117600D01*
X1992122Y-1117600D02*
G01*
X2028443Y-1174750D01*
X2125218Y-1081278D02*
G01*
X2119884Y-1070863D01*
X2104390Y-1065784D01*
X2093975Y-1065784D01*
X2078481Y-1070863D01*
X2068068Y-1086612D01*
X2062734Y-1112520D01*
X2062734Y-1138428D01*
X2068068Y-1159255D01*
X2078481Y-1169670D01*
X2093975Y-1174750D01*
X2099309Y-1174750D01*
X2114804Y-1169670D01*
X2125218Y-1159255D01*
X2130297Y-1143762D01*
X2130297Y-1138428D01*
X2125218Y-1122934D01*
X2114804Y-1112520D01*
X2099309Y-1107439D01*
X2093975Y-1107439D01*
X2078481Y-1112520D01*
X2068068Y-1122934D01*
X2062734Y-1138428D01*
X2311400Y-1053084D02*
G01*
X2311400Y-1162050D01*
X2311400Y-1053084D02*
G01*
X2358136Y-1053084D01*
X2373629Y-1058163D01*
X2378963Y-1063497D01*
X2384043Y-1073912D01*
X2384043Y-1084326D01*
X2378963Y-1094739D01*
X2373629Y-1099820D01*
X2358136Y-1104900D01*
X2311400Y-1104900D01*
X2347722Y-1104900D02*
G01*
X2384043Y-1162050D01*
X2491231Y-1053084D02*
G01*
X2439161Y-1162050D01*
X2418334Y-1053084D02*
G01*
X2491231Y-1053084D01*
X1828800Y-1980184D02*
G01*
X1828800Y-2089150D01*
X1828800Y-1980184D02*
G01*
X1875536Y-1980184D01*
X1891029Y-1985263D01*
X1896363Y-1990597D01*
X1901444Y-2001012D01*
X1901444Y-2011426D01*
X1896363Y-2021839D01*
X1891029Y-2026920D01*
X1875536Y-2032000D01*
X1828800Y-2032000D01*
X1865121Y-2032000D02*
G01*
X1901444Y-2089150D01*
X1961895Y-1980184D02*
G01*
X1946147Y-1985263D01*
X1941068Y-1995678D01*
X1941068Y-2006092D01*
X1946147Y-2016505D01*
X1956561Y-2021839D01*
X1977390Y-2026920D01*
X1992884Y-2032000D01*
X2003297Y-2042413D01*
X2008631Y-2052828D01*
X2008631Y-2068576D01*
X2003297Y-2078989D01*
X1998218Y-2084070D01*
X1982470Y-2089150D01*
X1961895Y-2089150D01*
X1946147Y-2084070D01*
X1941068Y-2078989D01*
X1935734Y-2068576D01*
X1935734Y-2052828D01*
X1941068Y-2042413D01*
X1951481Y-2032000D01*
X1966975Y-2026920D01*
X1987804Y-2021839D01*
X1998218Y-2016505D01*
X2003297Y-2006092D01*
X2003297Y-1995678D01*
X1998218Y-1985263D01*
X1982470Y-1980184D01*
X1961895Y-1980184D01*
X1841500Y-2208784D02*
G01*
X1841500Y-2317750D01*
X1841500Y-2208784D02*
G01*
X1888236Y-2208784D01*
X1903729Y-2213863D01*
X1909063Y-2219197D01*
X1914144Y-2229612D01*
X1914144Y-2240026D01*
X1909063Y-2250439D01*
X1903729Y-2255520D01*
X1888236Y-2260600D01*
X1841500Y-2260600D01*
X1877821Y-2260600D02*
G01*
X1914144Y-2317750D01*
X2015997Y-2245105D02*
G01*
X2010918Y-2260600D01*
X2000504Y-2271013D01*
X1985009Y-2276347D01*
X1979675Y-2276347D01*
X1964181Y-2271013D01*
X1953768Y-2260600D01*
X1948434Y-2245105D01*
X1948434Y-2240026D01*
X1953768Y-2224278D01*
X1964181Y-2213863D01*
X1979675Y-2208784D01*
X1985009Y-2208784D01*
X2000504Y-2213863D01*
X2010918Y-2224278D01*
X2015997Y-2245105D01*
X2015997Y-2271013D01*
X2010918Y-2297176D01*
X2000504Y-2312670D01*
X1985009Y-2317750D01*
X1974595Y-2317750D01*
X1958847Y-2312670D01*
X1953768Y-2302255D01*
X2781300Y-2196084D02*
G01*
X2781300Y-2305050D01*
X2781300Y-2196084D02*
G01*
X2828036Y-2196084D01*
X2843529Y-2201163D01*
X2848863Y-2206497D01*
X2853943Y-2216912D01*
X2853943Y-2227326D01*
X2848863Y-2237739D01*
X2843529Y-2242820D01*
X2828036Y-2247900D01*
X2781300Y-2247900D01*
X2817622Y-2247900D02*
G01*
X2853943Y-2305050D01*
X2888234Y-2216912D02*
G01*
X2898647Y-2211578D01*
X2914395Y-2196084D01*
X2914395Y-2305050D01*
X2979674Y-2196084D02*
G01*
X2964179Y-2201163D01*
X2953765Y-2216912D01*
X2948686Y-2242820D01*
X2948686Y-2258313D01*
X2953765Y-2284476D01*
X2964179Y-2299970D01*
X2979674Y-2305050D01*
X2990088Y-2305050D01*
X3005836Y-2299970D01*
X3016250Y-2284476D01*
X3021329Y-2258313D01*
X3021329Y-2242820D01*
X3016250Y-2216912D01*
X3005836Y-2201163D01*
X2990088Y-2196084D01*
X2979674Y-2196084D01*
X2629915Y-1536700D02*
G01*
X2551938Y-1536700D01*
X2536443Y-1541779D01*
X2526029Y-1552194D01*
X2520950Y-1567942D01*
X2520950Y-1578355D01*
X2526029Y-1593850D01*
X2536443Y-1604263D01*
X2551938Y-1609344D01*
X2629915Y-1609344D01*
X2609088Y-1643634D02*
G01*
X2614422Y-1654047D01*
X2629915Y-1669795D01*
X2520950Y-1669795D01*
X2629915Y-1735073D02*
G01*
X2624836Y-1719579D01*
X2609088Y-1709165D01*
X2583179Y-1704086D01*
X2567686Y-1704086D01*
X2541524Y-1709165D01*
X2526029Y-1719579D01*
X2520950Y-1735073D01*
X2520950Y-1745487D01*
X2526029Y-1761236D01*
X2541524Y-1771650D01*
X2567686Y-1776729D01*
X2583179Y-1776729D01*
X2609088Y-1771650D01*
X2624836Y-1761236D01*
X2629915Y-1745487D01*
X2629915Y-1735073D01*
X4140200Y-1192784D02*
G01*
X4140200Y-1270762D01*
X4145279Y-1286255D01*
X4155693Y-1296670D01*
X4171441Y-1301750D01*
X4181856Y-1301750D01*
X4197350Y-1296670D01*
X4207763Y-1286255D01*
X4212843Y-1270762D01*
X4212843Y-1192784D01*
X4247134Y-1213612D02*
G01*
X4257547Y-1208278D01*
X4273295Y-1192784D01*
X4273295Y-1301750D01*
X4312665Y-1218692D02*
G01*
X4312665Y-1213612D01*
X4318000Y-1203197D01*
X4323079Y-1197863D01*
X4333493Y-1192784D01*
X4354322Y-1192784D01*
X4364736Y-1197863D01*
X4369815Y-1203197D01*
X4375150Y-1213612D01*
X4375150Y-1224026D01*
X4369815Y-1234439D01*
X4359402Y-1249934D01*
X4307586Y-1301750D01*
X4380229Y-1301750D01*
X4152900Y-1662684D02*
G01*
X4152900Y-1740662D01*
X4157979Y-1756155D01*
X4168393Y-1766570D01*
X4184141Y-1771650D01*
X4194556Y-1771650D01*
X4210050Y-1766570D01*
X4220463Y-1756155D01*
X4225543Y-1740662D01*
X4225543Y-1662684D01*
X4259834Y-1683512D02*
G01*
X4270247Y-1678178D01*
X4285995Y-1662684D01*
X4285995Y-1771650D01*
X4330700Y-1662684D02*
G01*
X4387850Y-1662684D01*
X4356608Y-1704339D01*
X4372102Y-1704339D01*
X4382515Y-1709420D01*
X4387850Y-1714500D01*
X4392929Y-1730247D01*
X4392929Y-1740662D01*
X4387850Y-1756155D01*
X4377436Y-1766570D01*
X4361688Y-1771650D01*
X4346193Y-1771650D01*
X4330700Y-1766570D01*
X4325365Y-1761489D01*
X4320286Y-1751076D01*
G36*
X1440129Y-730859D02*
G01*
X1440129Y-802233D01*
X1485849Y-802233D01*
X1485849Y-730859D01*
G37*
G36*
X1440129Y-1051966D02*
G01*
X1440129Y-1123340D01*
X1485849Y-1123340D01*
X1485849Y-1051966D01*
G37*
G36*
X5093106Y-1877720D02*
G01*
X5093106Y-1957679D01*
X5163108Y-1917700D01*
G37*
G36*
X6617106Y-1877720D02*
G01*
X6617106Y-1957679D01*
X6687108Y-1917700D01*
G37*
G36*
X8153806Y-1865020D02*
G01*
X8153806Y-1944979D01*
X8223808Y-1905000D01*
G37*
G36*
X9690506Y-1865020D02*
G01*
X9690506Y-1944979D01*
X9760508Y-1905000D01*
G37*
G36*
X11189106Y-1852320D02*
G01*
X11189106Y-1932279D01*
X11259108Y-1892300D01*
G37*
G36*
X6679793Y-5167020D02*
G01*
X6609791Y-5207000D01*
X6679793Y-5246979D01*
G37*
G36*
X8203793Y-5167020D02*
G01*
X8133791Y-5207000D01*
X8203793Y-5246979D01*
G37*
G36*
X9740493Y-5167020D02*
G01*
X9670491Y-5207000D01*
X9740493Y-5246979D01*
G37*
G36*
X11251793Y-5167020D02*
G01*
X11181791Y-5207000D01*
X11251793Y-5246979D01*
G37*
G36*
X12713106Y-1852320D02*
G01*
X12713106Y-1932279D01*
X12783108Y-1892300D01*
G37*
G36*
X1178966Y-1198829D02*
G01*
X1178966Y-1244549D01*
X1250340Y-1244549D01*
X1250340Y-1198829D01*
G37*
G36*
X857859Y-1198829D02*
G01*
X857859Y-1244549D01*
X929233Y-1244549D01*
X929233Y-1198829D01*
G37*
D11*
X1651000Y-738479D02*
G01*
X1651000Y-1115720D01*
D10*
X1478229Y-738479D02*
G01*
X2026970Y-738479D01*
X1478229Y-1115720D02*
G01*
X2026970Y-1115720D01*
X2026970Y-738479D02*
G01*
X2026970Y-797161D01*
X2026970Y-1115720D02*
G01*
X2026970Y-1057038D01*
D11*
X5018102Y-1975713D02*
G01*
X5018102Y-1987699D01*
X5028107Y-1987699D01*
X5018102Y-1847700D02*
G01*
X5018102Y-1859686D01*
X5228107Y-1859686D02*
G01*
X5228107Y-1847697D01*
X5028107Y-1847697D01*
X5018102Y-1847700D01*
X5228107Y-1859686D02*
G01*
X5210812Y-1859686D01*
X5210812Y-1975713D02*
G01*
X5228107Y-1975713D01*
X5219453Y-1975713D02*
G01*
X5219453Y-1987702D01*
X5219453Y-1847697D02*
G01*
X5219453Y-1859686D01*
X5210812Y-1859686D02*
G01*
X5210812Y-1847697D01*
X5210812Y-1987702D02*
G01*
X5210812Y-1975713D01*
X5028107Y-1987702D02*
G01*
X5228107Y-1987702D01*
X5228107Y-1975713D01*
X6542102Y-1975713D02*
G01*
X6542102Y-1987699D01*
X6552107Y-1987699D01*
X6542102Y-1847700D02*
G01*
X6542102Y-1859686D01*
X6752107Y-1859686D02*
G01*
X6752107Y-1847697D01*
X6552107Y-1847697D01*
X6542102Y-1847700D01*
X6752107Y-1859686D02*
G01*
X6734812Y-1859686D01*
X6734812Y-1975713D02*
G01*
X6752107Y-1975713D01*
X6743453Y-1975713D02*
G01*
X6743453Y-1987702D01*
X6743453Y-1847697D02*
G01*
X6743453Y-1859686D01*
X6734812Y-1859686D02*
G01*
X6734812Y-1847697D01*
X6734812Y-1987702D02*
G01*
X6734812Y-1975713D01*
X6552107Y-1987702D02*
G01*
X6752107Y-1987702D01*
X6752107Y-1975713D01*
X8078802Y-1963013D02*
G01*
X8078802Y-1974999D01*
X8088807Y-1974999D01*
X8078802Y-1835000D02*
G01*
X8078802Y-1846986D01*
X8288807Y-1846986D02*
G01*
X8288807Y-1834997D01*
X8088807Y-1834997D01*
X8078802Y-1835000D01*
X8288807Y-1846986D02*
G01*
X8271512Y-1846986D01*
X8271512Y-1963013D02*
G01*
X8288807Y-1963013D01*
X8280153Y-1963013D02*
G01*
X8280153Y-1975002D01*
X8280153Y-1834997D02*
G01*
X8280153Y-1846986D01*
X8271512Y-1846986D02*
G01*
X8271512Y-1834997D01*
X8271512Y-1975002D02*
G01*
X8271512Y-1963013D01*
X8088807Y-1975002D02*
G01*
X8288807Y-1975002D01*
X8288807Y-1963013D01*
X9615502Y-1963013D02*
G01*
X9615502Y-1974999D01*
X9625507Y-1974999D01*
X9615502Y-1835000D02*
G01*
X9615502Y-1846986D01*
X9825507Y-1846986D02*
G01*
X9825507Y-1834997D01*
X9625507Y-1834997D01*
X9615502Y-1835000D01*
X9825507Y-1846986D02*
G01*
X9808212Y-1846986D01*
X9808212Y-1963013D02*
G01*
X9825507Y-1963013D01*
X9816853Y-1963013D02*
G01*
X9816853Y-1975002D01*
X9816853Y-1834997D02*
G01*
X9816853Y-1846986D01*
X9808212Y-1846986D02*
G01*
X9808212Y-1834997D01*
X9808212Y-1975002D02*
G01*
X9808212Y-1963013D01*
X9625507Y-1975002D02*
G01*
X9825507Y-1975002D01*
X9825507Y-1963013D01*
X11114102Y-1950313D02*
G01*
X11114102Y-1962299D01*
X11124107Y-1962299D01*
X11114102Y-1822300D02*
G01*
X11114102Y-1834286D01*
X11324107Y-1834286D02*
G01*
X11324107Y-1822297D01*
X11124107Y-1822297D01*
X11114102Y-1822300D01*
X11324107Y-1834286D02*
G01*
X11306812Y-1834286D01*
X11306812Y-1950313D02*
G01*
X11324107Y-1950313D01*
X11315453Y-1950313D02*
G01*
X11315453Y-1962302D01*
X11315453Y-1822297D02*
G01*
X11315453Y-1834286D01*
X11306812Y-1834286D02*
G01*
X11306812Y-1822297D01*
X11306812Y-1962302D02*
G01*
X11306812Y-1950313D01*
X11124107Y-1962302D02*
G01*
X11324107Y-1962302D01*
X11324107Y-1950313D01*
X6754797Y-5148986D02*
G01*
X6754797Y-5137000D01*
X6744792Y-5137000D01*
X6754797Y-5276999D02*
G01*
X6754797Y-5265013D01*
X6544792Y-5265013D02*
G01*
X6544792Y-5277002D01*
X6744792Y-5277002D01*
X6754797Y-5276999D01*
X6544792Y-5265013D02*
G01*
X6562087Y-5265013D01*
X6562087Y-5148986D02*
G01*
X6544792Y-5148986D01*
X6553446Y-5148986D02*
G01*
X6553446Y-5136997D01*
X6553446Y-5277002D02*
G01*
X6553446Y-5265013D01*
X6562087Y-5265013D02*
G01*
X6562087Y-5277002D01*
X6562087Y-5136997D02*
G01*
X6562087Y-5148986D01*
X6744792Y-5136997D02*
G01*
X6544792Y-5136997D01*
X6544792Y-5148986D01*
X8278797Y-5148986D02*
G01*
X8278797Y-5137000D01*
X8268792Y-5137000D01*
X8278797Y-5276999D02*
G01*
X8278797Y-5265013D01*
X8068792Y-5265013D02*
G01*
X8068792Y-5277002D01*
X8268792Y-5277002D01*
X8278797Y-5276999D01*
X8068792Y-5265013D02*
G01*
X8086087Y-5265013D01*
X8086087Y-5148986D02*
G01*
X8068792Y-5148986D01*
X8077446Y-5148986D02*
G01*
X8077446Y-5136997D01*
X8077446Y-5277002D02*
G01*
X8077446Y-5265013D01*
X8086087Y-5265013D02*
G01*
X8086087Y-5277002D01*
X8086087Y-5136997D02*
G01*
X8086087Y-5148986D01*
X8268792Y-5136997D02*
G01*
X8068792Y-5136997D01*
X8068792Y-5148986D01*
X9815497Y-5148986D02*
G01*
X9815497Y-5137000D01*
X9805492Y-5137000D01*
X9815497Y-5276999D02*
G01*
X9815497Y-5265013D01*
X9605492Y-5265013D02*
G01*
X9605492Y-5277002D01*
X9805492Y-5277002D01*
X9815497Y-5276999D01*
X9605492Y-5265013D02*
G01*
X9622787Y-5265013D01*
X9622787Y-5148986D02*
G01*
X9605492Y-5148986D01*
X9614146Y-5148986D02*
G01*
X9614146Y-5136997D01*
X9614146Y-5277002D02*
G01*
X9614146Y-5265013D01*
X9622787Y-5265013D02*
G01*
X9622787Y-5277002D01*
X9622787Y-5136997D02*
G01*
X9622787Y-5148986D01*
X9805492Y-5136997D02*
G01*
X9605492Y-5136997D01*
X9605492Y-5148986D01*
X11326797Y-5148986D02*
G01*
X11326797Y-5137000D01*
X11316792Y-5137000D01*
X11326797Y-5276999D02*
G01*
X11326797Y-5265013D01*
X11116792Y-5265013D02*
G01*
X11116792Y-5277002D01*
X11316792Y-5277002D01*
X11326797Y-5276999D01*
X11116792Y-5265013D02*
G01*
X11134087Y-5265013D01*
X11134087Y-5148986D02*
G01*
X11116792Y-5148986D01*
X11125446Y-5148986D02*
G01*
X11125446Y-5136997D01*
X11125446Y-5277002D02*
G01*
X11125446Y-5265013D01*
X11134087Y-5265013D02*
G01*
X11134087Y-5277002D01*
X11134087Y-5136997D02*
G01*
X11134087Y-5148986D01*
X11316792Y-5136997D02*
G01*
X11116792Y-5136997D01*
X11116792Y-5148986D01*
X12638102Y-1950313D02*
G01*
X12638102Y-1962299D01*
X12648107Y-1962299D01*
X12638102Y-1822300D02*
G01*
X12638102Y-1834286D01*
X12848107Y-1834286D02*
G01*
X12848107Y-1822297D01*
X12648107Y-1822297D01*
X12638102Y-1822300D01*
X12848107Y-1834286D02*
G01*
X12830812Y-1834286D01*
X12830812Y-1950313D02*
G01*
X12848107Y-1950313D01*
X12839453Y-1950313D02*
G01*
X12839453Y-1962302D01*
X12839453Y-1822297D02*
G01*
X12839453Y-1834286D01*
X12830812Y-1834286D02*
G01*
X12830812Y-1822297D01*
X12830812Y-1962302D02*
G01*
X12830812Y-1950313D01*
X12648107Y-1962302D02*
G01*
X12848107Y-1962302D01*
X12848107Y-1950313D01*
D12*
X6832597Y-2114547D02*
G01*
X6832597Y-2051047D01*
X6800941Y-2082421D02*
G01*
X6864441Y-2082421D01*
X6426200Y-2082800D02*
G01*
X6489700Y-2082800D01*
X6527800Y-2123986D02*
G01*
X6527800Y-2057400D01*
X6756400Y-2057400D01*
X6756400Y-2123986D01*
X6615214Y-2222500D02*
G01*
X6668985Y-2222500D01*
X6546977Y-2057400D02*
G01*
X6546977Y-2038222D01*
X6731000Y-2032000D02*
G01*
X6731000Y-2044700D01*
X8356597Y-2101847D02*
G01*
X8356597Y-2038347D01*
X8324941Y-2069721D02*
G01*
X8388441Y-2069721D01*
X7950200Y-2070100D02*
G01*
X8013700Y-2070100D01*
X8051800Y-2111286D02*
G01*
X8051800Y-2044700D01*
X8280400Y-2044700D01*
X8280400Y-2111286D01*
X8139214Y-2209800D02*
G01*
X8192985Y-2209800D01*
X8070977Y-2044700D02*
G01*
X8070977Y-2025522D01*
X8255000Y-2019300D02*
G01*
X8255000Y-2032000D01*
X9905997Y-2101847D02*
G01*
X9905997Y-2038347D01*
X9874341Y-2069721D02*
G01*
X9937841Y-2069721D01*
X9499600Y-2070100D02*
G01*
X9563100Y-2070100D01*
X9601200Y-2111286D02*
G01*
X9601200Y-2044700D01*
X9829800Y-2044700D01*
X9829800Y-2111286D01*
X9688614Y-2209800D02*
G01*
X9742385Y-2209800D01*
X9620377Y-2044700D02*
G01*
X9620377Y-2025522D01*
X9804400Y-2019300D02*
G01*
X9804400Y-2032000D01*
X11404597Y-2089147D02*
G01*
X11404597Y-2025647D01*
X11372941Y-2057021D02*
G01*
X11436441Y-2057021D01*
X10998200Y-2057400D02*
G01*
X11061700Y-2057400D01*
X11099800Y-2098586D02*
G01*
X11099800Y-2032000D01*
X11328400Y-2032000D01*
X11328400Y-2098586D01*
X11187214Y-2197100D02*
G01*
X11240985Y-2197100D01*
X11118977Y-2032000D02*
G01*
X11118977Y-2012822D01*
X11303000Y-2006600D02*
G01*
X11303000Y-2019300D01*
X6464302Y-4997452D02*
G01*
X6464302Y-5060952D01*
X6495958Y-5029578D02*
G01*
X6432458Y-5029578D01*
X6870700Y-5029200D02*
G01*
X6807200Y-5029200D01*
X6769100Y-4988013D02*
G01*
X6769100Y-5054600D01*
X6540500Y-5054600D01*
X6540500Y-4988013D01*
X6681685Y-4889500D02*
G01*
X6627914Y-4889500D01*
X6749922Y-5054600D02*
G01*
X6749922Y-5073777D01*
X6565900Y-5080000D02*
G01*
X6565900Y-5067300D01*
X8001002Y-4997452D02*
G01*
X8001002Y-5060952D01*
X8032658Y-5029578D02*
G01*
X7969158Y-5029578D01*
X8407400Y-5029200D02*
G01*
X8343900Y-5029200D01*
X8305800Y-4988013D02*
G01*
X8305800Y-5054600D01*
X8077200Y-5054600D01*
X8077200Y-4988013D01*
X8218385Y-4889500D02*
G01*
X8164614Y-4889500D01*
X8286622Y-5054600D02*
G01*
X8286622Y-5073777D01*
X8102600Y-5080000D02*
G01*
X8102600Y-5067300D01*
X9525002Y-4997452D02*
G01*
X9525002Y-5060952D01*
X9556658Y-5029578D02*
G01*
X9493158Y-5029578D01*
X9931400Y-5029200D02*
G01*
X9867900Y-5029200D01*
X9829800Y-4988013D02*
G01*
X9829800Y-5054600D01*
X9601200Y-5054600D01*
X9601200Y-4988013D01*
X9742385Y-4889500D02*
G01*
X9688614Y-4889500D01*
X9810622Y-5054600D02*
G01*
X9810622Y-5073777D01*
X9626600Y-5080000D02*
G01*
X9626600Y-5067300D01*
X11023602Y-4997452D02*
G01*
X11023602Y-5060952D01*
X11055258Y-5029578D02*
G01*
X10991758Y-5029578D01*
X11430000Y-5029200D02*
G01*
X11366500Y-5029200D01*
X11328400Y-4988013D02*
G01*
X11328400Y-5054600D01*
X11099800Y-5054600D01*
X11099800Y-4988013D01*
X11240985Y-4889500D02*
G01*
X11187214Y-4889500D01*
X11309222Y-5054600D02*
G01*
X11309222Y-5073777D01*
X11125200Y-5080000D02*
G01*
X11125200Y-5067300D01*
X12928597Y-2101847D02*
G01*
X12928597Y-2038347D01*
X12896941Y-2069721D02*
G01*
X12960441Y-2069721D01*
X12522200Y-2070100D02*
G01*
X12585700Y-2070100D01*
X12623800Y-2111286D02*
G01*
X12623800Y-2044700D01*
X12852400Y-2044700D01*
X12852400Y-2111286D01*
X12711214Y-2209800D02*
G01*
X12764985Y-2209800D01*
X12642977Y-2044700D02*
G01*
X12642977Y-2025522D01*
X12827000Y-2019300D02*
G01*
X12827000Y-2032000D01*
X5321297Y-2114547D02*
G01*
X5321297Y-2051047D01*
X5289641Y-2082421D02*
G01*
X5353141Y-2082421D01*
X4914900Y-2082800D02*
G01*
X4978400Y-2082800D01*
X5016500Y-2123986D02*
G01*
X5016500Y-2057400D01*
X5245100Y-2057400D01*
X5245100Y-2123986D01*
X5103914Y-2222500D02*
G01*
X5157685Y-2222500D01*
X5035677Y-2057400D02*
G01*
X5035677Y-2038222D01*
X5219700Y-2032000D02*
G01*
X5219700Y-2044700D01*
D11*
X5021176Y-2514594D02*
G01*
X5062644Y-2514594D01*
X4997909Y-2388595D02*
G01*
X4935910Y-2388595D01*
X4935910Y-2388595D02*
G01*
X4935910Y-2512593D01*
X4935910Y-2513594D01*
X5147909Y-2388595D02*
G01*
X5147909Y-2513594D01*
X5147909Y-2388595D02*
G01*
X5086174Y-2388595D01*
X6532476Y-2501894D02*
G01*
X6573944Y-2501894D01*
X6509209Y-2375895D02*
G01*
X6447210Y-2375895D01*
X6447210Y-2375895D02*
G01*
X6447210Y-2499893D01*
X6447210Y-2500894D01*
X6659209Y-2375895D02*
G01*
X6659209Y-2500894D01*
X6659209Y-2375895D02*
G01*
X6597474Y-2375895D01*
X8056476Y-2489194D02*
G01*
X8097944Y-2489194D01*
X8033209Y-2363195D02*
G01*
X7971210Y-2363195D01*
X7971210Y-2363195D02*
G01*
X7971210Y-2487193D01*
X7971210Y-2488194D01*
X8183209Y-2363195D02*
G01*
X8183209Y-2488194D01*
X8183209Y-2363195D02*
G01*
X8121474Y-2363195D01*
X9605876Y-2476494D02*
G01*
X9647344Y-2476494D01*
X9582609Y-2350495D02*
G01*
X9520610Y-2350495D01*
X9520610Y-2350495D02*
G01*
X9520610Y-2474493D01*
X9520610Y-2475494D01*
X9732609Y-2350495D02*
G01*
X9732609Y-2475494D01*
X9732609Y-2350495D02*
G01*
X9670874Y-2350495D01*
X11091776Y-2476494D02*
G01*
X11133244Y-2476494D01*
X11068509Y-2350495D02*
G01*
X11006510Y-2350495D01*
X11006510Y-2350495D02*
G01*
X11006510Y-2474493D01*
X11006510Y-2475494D01*
X11218509Y-2350495D02*
G01*
X11218509Y-2475494D01*
X11218509Y-2350495D02*
G01*
X11156774Y-2350495D01*
X6726323Y-4597405D02*
G01*
X6684855Y-4597405D01*
X6749590Y-4723404D02*
G01*
X6811589Y-4723404D01*
X6811589Y-4723404D02*
G01*
X6811589Y-4599406D01*
X6811589Y-4598405D01*
X6599590Y-4723404D02*
G01*
X6599590Y-4598405D01*
X6599590Y-4723404D02*
G01*
X6661325Y-4723404D01*
X8275723Y-4597405D02*
G01*
X8234255Y-4597405D01*
X8298990Y-4723404D02*
G01*
X8360989Y-4723404D01*
X8360989Y-4723404D02*
G01*
X8360989Y-4599406D01*
X8360989Y-4598405D01*
X8148990Y-4723404D02*
G01*
X8148990Y-4598405D01*
X8148990Y-4723404D02*
G01*
X8210725Y-4723404D01*
X9825123Y-4622805D02*
G01*
X9783655Y-4622805D01*
X9848390Y-4748804D02*
G01*
X9910389Y-4748804D01*
X9910389Y-4748804D02*
G01*
X9910389Y-4624806D01*
X9910389Y-4623805D01*
X9698390Y-4748804D02*
G01*
X9698390Y-4623805D01*
X9698390Y-4748804D02*
G01*
X9760125Y-4748804D01*
X11323723Y-4610105D02*
G01*
X11282255Y-4610105D01*
X11346990Y-4736104D02*
G01*
X11408989Y-4736104D01*
X11408989Y-4736104D02*
G01*
X11408989Y-4612106D01*
X11408989Y-4611105D01*
X11196990Y-4736104D02*
G01*
X11196990Y-4611105D01*
X11196990Y-4736104D02*
G01*
X11258725Y-4736104D01*
X12641176Y-2489194D02*
G01*
X12682644Y-2489194D01*
X12617909Y-2363195D02*
G01*
X12555910Y-2363195D01*
X12555910Y-2363195D02*
G01*
X12555910Y-2487193D01*
X12555910Y-2488194D01*
X12767909Y-2363195D02*
G01*
X12767909Y-2488194D01*
X12767909Y-2363195D02*
G01*
X12706174Y-2363195D01*
D10*
X7063760Y-1963978D02*
G01*
X7063760Y-1868091D01*
X6931639Y-1868091D01*
X6931639Y-1963978D01*
X7063760Y-2049221D02*
G01*
X7063760Y-2145108D01*
X6931639Y-2145108D01*
X6931639Y-2049221D01*
X6510578Y-2613639D02*
G01*
X6414691Y-2613639D01*
X6414691Y-2745760D01*
X6510578Y-2745760D01*
X6595821Y-2613639D02*
G01*
X6691708Y-2613639D01*
X6691708Y-2745760D01*
X6595821Y-2745760D01*
X6377960Y-2573578D02*
G01*
X6377960Y-2477691D01*
X6245839Y-2477691D01*
X6245839Y-2573578D01*
X6377960Y-2658821D02*
G01*
X6377960Y-2754708D01*
X6245839Y-2754708D01*
X6245839Y-2658821D01*
X7889260Y-2573578D02*
G01*
X7889260Y-2477691D01*
X7757139Y-2477691D01*
X7757139Y-2573578D01*
X7889260Y-2658821D02*
G01*
X7889260Y-2754708D01*
X7757139Y-2754708D01*
X7757139Y-2658821D01*
X8034578Y-2626339D02*
G01*
X7938691Y-2626339D01*
X7938691Y-2758460D01*
X8034578Y-2758460D01*
X8119821Y-2626339D02*
G01*
X8215708Y-2626339D01*
X8215708Y-2758460D01*
X8119821Y-2758460D01*
X8587760Y-1951278D02*
G01*
X8587760Y-1855391D01*
X8455639Y-1855391D01*
X8455639Y-1951278D01*
X8587760Y-2036521D02*
G01*
X8587760Y-2132408D01*
X8455639Y-2132408D01*
X8455639Y-2036521D01*
X9451360Y-2548178D02*
G01*
X9451360Y-2452291D01*
X9319239Y-2452291D01*
X9319239Y-2548178D01*
X9451360Y-2633421D02*
G01*
X9451360Y-2729308D01*
X9319239Y-2729308D01*
X9319239Y-2633421D01*
X9583978Y-2600939D02*
G01*
X9488091Y-2600939D01*
X9488091Y-2733060D01*
X9583978Y-2733060D01*
X9669221Y-2600939D02*
G01*
X9765108Y-2600939D01*
X9765108Y-2733060D01*
X9669221Y-2733060D01*
X10137160Y-1938578D02*
G01*
X10137160Y-1842691D01*
X10005039Y-1842691D01*
X10005039Y-1938578D01*
X10137160Y-2023821D02*
G01*
X10137160Y-2119708D01*
X10005039Y-2119708D01*
X10005039Y-2023821D01*
X11648460Y-1925878D02*
G01*
X11648460Y-1829991D01*
X11516339Y-1829991D01*
X11516339Y-1925878D01*
X11648460Y-2011121D02*
G01*
X11648460Y-2107008D01*
X11516339Y-2107008D01*
X11516339Y-2011121D01*
X4866660Y-2586278D02*
G01*
X4866660Y-2490391D01*
X4734539Y-2490391D01*
X4734539Y-2586278D01*
X4866660Y-2671521D02*
G01*
X4866660Y-2767408D01*
X4734539Y-2767408D01*
X4734539Y-2671521D01*
X4999278Y-2639039D02*
G01*
X4903391Y-2639039D01*
X4903391Y-2771160D01*
X4999278Y-2771160D01*
X5084521Y-2639039D02*
G01*
X5180408Y-2639039D01*
X5180408Y-2771160D01*
X5084521Y-2771160D01*
X5565160Y-1963978D02*
G01*
X5565160Y-1868091D01*
X5433039Y-1868091D01*
X5433039Y-1963978D01*
X5565160Y-2049221D02*
G01*
X5565160Y-2145108D01*
X5433039Y-2145108D01*
X5433039Y-2049221D01*
X11069878Y-2600939D02*
G01*
X10973991Y-2600939D01*
X10973991Y-2733060D01*
X11069878Y-2733060D01*
X11155121Y-2600939D02*
G01*
X11251008Y-2600939D01*
X11251008Y-2733060D01*
X11155121Y-2733060D01*
X10937260Y-2548178D02*
G01*
X10937260Y-2452291D01*
X10805139Y-2452291D01*
X10805139Y-2548178D01*
X10937260Y-2633421D02*
G01*
X10937260Y-2729308D01*
X10805139Y-2729308D01*
X10805139Y-2633421D01*
X6893539Y-4525721D02*
G01*
X6893539Y-4621608D01*
X7025660Y-4621608D01*
X7025660Y-4525721D01*
X6893539Y-4440478D02*
G01*
X6893539Y-4344591D01*
X7025660Y-4344591D01*
X7025660Y-4440478D01*
X6748221Y-4485660D02*
G01*
X6844108Y-4485660D01*
X6844108Y-4353539D01*
X6748221Y-4353539D01*
X6662978Y-4485660D02*
G01*
X6567091Y-4485660D01*
X6567091Y-4353539D01*
X6662978Y-4353539D01*
X6245839Y-5160721D02*
G01*
X6245839Y-5256608D01*
X6377960Y-5256608D01*
X6377960Y-5160721D01*
X6245839Y-5075478D02*
G01*
X6245839Y-4979591D01*
X6377960Y-4979591D01*
X6377960Y-5075478D01*
X7757139Y-5173421D02*
G01*
X7757139Y-5269308D01*
X7889260Y-5269308D01*
X7889260Y-5173421D01*
X7757139Y-5088178D02*
G01*
X7757139Y-4992291D01*
X7889260Y-4992291D01*
X7889260Y-5088178D01*
X8284921Y-4485660D02*
G01*
X8380808Y-4485660D01*
X8380808Y-4353539D01*
X8284921Y-4353539D01*
X8199678Y-4485660D02*
G01*
X8103791Y-4485660D01*
X8103791Y-4353539D01*
X8199678Y-4353539D01*
X8430239Y-4538421D02*
G01*
X8430239Y-4634308D01*
X8562360Y-4634308D01*
X8562360Y-4538421D01*
X8430239Y-4453178D02*
G01*
X8430239Y-4357291D01*
X8562360Y-4357291D01*
X8562360Y-4453178D01*
X9281139Y-5173421D02*
G01*
X9281139Y-5269308D01*
X9413260Y-5269308D01*
X9413260Y-5173421D01*
X9281139Y-5088178D02*
G01*
X9281139Y-4992291D01*
X9413260Y-4992291D01*
X9413260Y-5088178D01*
X9847021Y-4498360D02*
G01*
X9942908Y-4498360D01*
X9942908Y-4366239D01*
X9847021Y-4366239D01*
X9761778Y-4498360D02*
G01*
X9665891Y-4498360D01*
X9665891Y-4366239D01*
X9761778Y-4366239D01*
X9979639Y-4551121D02*
G01*
X9979639Y-4647008D01*
X10111760Y-4647008D01*
X10111760Y-4551121D01*
X9979639Y-4465878D02*
G01*
X9979639Y-4369991D01*
X10111760Y-4369991D01*
X10111760Y-4465878D01*
X11478239Y-4538421D02*
G01*
X11478239Y-4634308D01*
X11610360Y-4634308D01*
X11610360Y-4538421D01*
X11478239Y-4453178D02*
G01*
X11478239Y-4357291D01*
X11610360Y-4357291D01*
X11610360Y-4453178D01*
X11345621Y-4485660D02*
G01*
X11441508Y-4485660D01*
X11441508Y-4353539D01*
X11345621Y-4353539D01*
X11260378Y-4485660D02*
G01*
X11164491Y-4485660D01*
X11164491Y-4353539D01*
X11260378Y-4353539D01*
X10805139Y-5173421D02*
G01*
X10805139Y-5269308D01*
X10937260Y-5269308D01*
X10937260Y-5173421D01*
X10805139Y-5088178D02*
G01*
X10805139Y-4992291D01*
X10937260Y-4992291D01*
X10937260Y-5088178D01*
X13147060Y-1925878D02*
G01*
X13147060Y-1829991D01*
X13014939Y-1829991D01*
X13014939Y-1925878D01*
X13147060Y-2011121D02*
G01*
X13147060Y-2107008D01*
X13014939Y-2107008D01*
X13014939Y-2011121D01*
X12619278Y-2600939D02*
G01*
X12523391Y-2600939D01*
X12523391Y-2733060D01*
X12619278Y-2733060D01*
X12704521Y-2600939D02*
G01*
X12800408Y-2600939D01*
X12800408Y-2733060D01*
X12704521Y-2733060D01*
X12473960Y-2548178D02*
G01*
X12473960Y-2452291D01*
X12341839Y-2452291D01*
X12341839Y-2548178D01*
X12473960Y-2633421D02*
G01*
X12473960Y-2729308D01*
X12341839Y-2729308D01*
X12341839Y-2633421D01*
D12*
X6578600Y-1700796D02*
G01*
X6578600Y-1599196D01*
X6718300Y-1599196D01*
X6718300Y-1700796D01*
X6578600Y-1700796D01*
X6477914Y-1649996D02*
G01*
X6831685Y-1649996D01*
X6354800Y-760996D02*
G01*
X6954799Y-760996D01*
X6954799Y-831880D02*
G01*
X6954799Y-760996D01*
X6954799Y-1051882D02*
G01*
X6954799Y-948110D01*
X6954799Y-1271882D02*
G01*
X6954799Y-1168112D01*
X6954799Y-1591881D02*
G01*
X6954799Y-1388112D01*
X6954799Y-1769996D02*
G01*
X6954799Y-1708111D01*
X6354800Y-831880D02*
G01*
X6354800Y-760996D01*
X6354800Y-1051882D02*
G01*
X6354800Y-948110D01*
X6354800Y-1271882D02*
G01*
X6354800Y-1168112D01*
X6354800Y-1591881D02*
G01*
X6354800Y-1388112D01*
X6354800Y-1769996D02*
G01*
X6354800Y-1708111D01*
X6354800Y-1769996D02*
G01*
X6954799Y-1769996D01*
D10*
X3490079Y-383560D02*
G01*
X4155320Y-383560D01*
X4155320Y-657839D01*
X3490079Y-657839D01*
X3490079Y-383560D01*
X3203320Y-251640D02*
G01*
X2918079Y-251640D01*
X2902838Y-266880D02*
G01*
X2902838Y-430380D01*
X3218561Y-430380D02*
G01*
X3218561Y-266880D01*
X2902838Y-749119D02*
G01*
X2902838Y-585619D01*
X3218561Y-585619D02*
G01*
X3218561Y-749119D01*
X3203320Y-764359D02*
G01*
X2918079Y-764359D01*
D12*
X8102600Y-1700796D02*
G01*
X8102600Y-1599196D01*
X8242300Y-1599196D01*
X8242300Y-1700796D01*
X8102600Y-1700796D01*
X8001914Y-1649996D02*
G01*
X8355685Y-1649996D01*
X7878800Y-760996D02*
G01*
X8478799Y-760996D01*
X8478799Y-831880D02*
G01*
X8478799Y-760996D01*
X8478799Y-1051882D02*
G01*
X8478799Y-948110D01*
X8478799Y-1271882D02*
G01*
X8478799Y-1168112D01*
X8478799Y-1591881D02*
G01*
X8478799Y-1388112D01*
X8478799Y-1769996D02*
G01*
X8478799Y-1708111D01*
X7878800Y-831880D02*
G01*
X7878800Y-760996D01*
X7878800Y-1051882D02*
G01*
X7878800Y-948110D01*
X7878800Y-1271882D02*
G01*
X7878800Y-1168112D01*
X7878800Y-1591881D02*
G01*
X7878800Y-1388112D01*
X7878800Y-1769996D02*
G01*
X7878800Y-1708111D01*
X7878800Y-1769996D02*
G01*
X8478799Y-1769996D01*
X9626600Y-1700796D02*
G01*
X9626600Y-1599196D01*
X9766300Y-1599196D01*
X9766300Y-1700796D01*
X9626600Y-1700796D01*
X9525914Y-1649996D02*
G01*
X9879685Y-1649996D01*
X9402800Y-760996D02*
G01*
X10002799Y-760996D01*
X10002799Y-831880D02*
G01*
X10002799Y-760996D01*
X10002799Y-1051882D02*
G01*
X10002799Y-948110D01*
X10002799Y-1271882D02*
G01*
X10002799Y-1168112D01*
X10002799Y-1591881D02*
G01*
X10002799Y-1388112D01*
X10002799Y-1769996D02*
G01*
X10002799Y-1708111D01*
X9402800Y-831880D02*
G01*
X9402800Y-760996D01*
X9402800Y-1051882D02*
G01*
X9402800Y-948110D01*
X9402800Y-1271882D02*
G01*
X9402800Y-1168112D01*
X9402800Y-1591881D02*
G01*
X9402800Y-1388112D01*
X9402800Y-1769996D02*
G01*
X9402800Y-1708111D01*
X9402800Y-1769996D02*
G01*
X10002799Y-1769996D01*
X11150600Y-1700796D02*
G01*
X11150600Y-1599196D01*
X11290300Y-1599196D01*
X11290300Y-1700796D01*
X11150600Y-1700796D01*
X11049914Y-1649996D02*
G01*
X11403685Y-1649996D01*
X10926800Y-760996D02*
G01*
X11526799Y-760996D01*
X11526799Y-831880D02*
G01*
X11526799Y-760996D01*
X11526799Y-1051882D02*
G01*
X11526799Y-948110D01*
X11526799Y-1271882D02*
G01*
X11526799Y-1168112D01*
X11526799Y-1591881D02*
G01*
X11526799Y-1388112D01*
X11526799Y-1769996D02*
G01*
X11526799Y-1708111D01*
X10926800Y-831880D02*
G01*
X10926800Y-760996D01*
X10926800Y-1051882D02*
G01*
X10926800Y-948110D01*
X10926800Y-1271882D02*
G01*
X10926800Y-1168112D01*
X10926800Y-1591881D02*
G01*
X10926800Y-1388112D01*
X10926800Y-1769996D02*
G01*
X10926800Y-1708111D01*
X10926800Y-1769996D02*
G01*
X11526799Y-1769996D01*
X6731000Y-5398503D02*
G01*
X6731000Y-5500103D01*
X6591300Y-5500103D01*
X6591300Y-5398503D01*
X6731000Y-5398503D01*
X6831685Y-5449303D02*
G01*
X6477914Y-5449303D01*
X6954799Y-6338303D02*
G01*
X6354800Y-6338303D01*
X6354800Y-6267419D02*
G01*
X6354800Y-6338303D01*
X6354800Y-6047417D02*
G01*
X6354800Y-6151189D01*
X6354800Y-5827417D02*
G01*
X6354800Y-5931187D01*
X6354800Y-5507418D02*
G01*
X6354800Y-5711187D01*
X6354800Y-5329303D02*
G01*
X6354800Y-5391188D01*
X6954799Y-6267419D02*
G01*
X6954799Y-6338303D01*
X6954799Y-6047417D02*
G01*
X6954799Y-6151189D01*
X6954799Y-5827417D02*
G01*
X6954799Y-5931187D01*
X6954799Y-5507418D02*
G01*
X6954799Y-5711187D01*
X6954799Y-5329303D02*
G01*
X6954799Y-5391188D01*
X6954799Y-5329303D02*
G01*
X6354800Y-5329303D01*
X8255000Y-5398503D02*
G01*
X8255000Y-5500103D01*
X8115300Y-5500103D01*
X8115300Y-5398503D01*
X8255000Y-5398503D01*
X8355685Y-5449303D02*
G01*
X8001914Y-5449303D01*
X8478799Y-6338303D02*
G01*
X7878800Y-6338303D01*
X7878800Y-6267419D02*
G01*
X7878800Y-6338303D01*
X7878800Y-6047417D02*
G01*
X7878800Y-6151189D01*
X7878800Y-5827417D02*
G01*
X7878800Y-5931187D01*
X7878800Y-5507418D02*
G01*
X7878800Y-5711187D01*
X7878800Y-5329303D02*
G01*
X7878800Y-5391188D01*
X8478799Y-6267419D02*
G01*
X8478799Y-6338303D01*
X8478799Y-6047417D02*
G01*
X8478799Y-6151189D01*
X8478799Y-5827417D02*
G01*
X8478799Y-5931187D01*
X8478799Y-5507418D02*
G01*
X8478799Y-5711187D01*
X8478799Y-5329303D02*
G01*
X8478799Y-5391188D01*
X8478799Y-5329303D02*
G01*
X7878800Y-5329303D01*
X9779000Y-5398503D02*
G01*
X9779000Y-5500103D01*
X9639300Y-5500103D01*
X9639300Y-5398503D01*
X9779000Y-5398503D01*
X9879685Y-5449303D02*
G01*
X9525914Y-5449303D01*
X10002799Y-6338303D02*
G01*
X9402800Y-6338303D01*
X9402800Y-6267419D02*
G01*
X9402800Y-6338303D01*
X9402800Y-6047417D02*
G01*
X9402800Y-6151189D01*
X9402800Y-5827417D02*
G01*
X9402800Y-5931187D01*
X9402800Y-5507418D02*
G01*
X9402800Y-5711187D01*
X9402800Y-5329303D02*
G01*
X9402800Y-5391188D01*
X10002799Y-6267419D02*
G01*
X10002799Y-6338303D01*
X10002799Y-6047417D02*
G01*
X10002799Y-6151189D01*
X10002799Y-5827417D02*
G01*
X10002799Y-5931187D01*
X10002799Y-5507418D02*
G01*
X10002799Y-5711187D01*
X10002799Y-5329303D02*
G01*
X10002799Y-5391188D01*
X10002799Y-5329303D02*
G01*
X9402800Y-5329303D01*
X11303000Y-5398503D02*
G01*
X11303000Y-5500103D01*
X11163300Y-5500103D01*
X11163300Y-5398503D01*
X11303000Y-5398503D01*
X11403685Y-5449303D02*
G01*
X11049914Y-5449303D01*
X11526799Y-6338303D02*
G01*
X10926800Y-6338303D01*
X10926800Y-6267419D02*
G01*
X10926800Y-6338303D01*
X10926800Y-6047417D02*
G01*
X10926800Y-6151189D01*
X10926800Y-5827417D02*
G01*
X10926800Y-5931187D01*
X10926800Y-5507418D02*
G01*
X10926800Y-5711187D01*
X10926800Y-5329303D02*
G01*
X10926800Y-5391188D01*
X11526799Y-6267419D02*
G01*
X11526799Y-6338303D01*
X11526799Y-6047417D02*
G01*
X11526799Y-6151189D01*
X11526799Y-5827417D02*
G01*
X11526799Y-5931187D01*
X11526799Y-5507418D02*
G01*
X11526799Y-5711187D01*
X11526799Y-5329303D02*
G01*
X11526799Y-5391188D01*
X11526799Y-5329303D02*
G01*
X10926800Y-5329303D01*
X5054600Y-1700796D02*
G01*
X5054600Y-1599196D01*
X5194300Y-1599196D01*
X5194300Y-1700796D01*
X5054600Y-1700796D01*
X4953914Y-1649996D02*
G01*
X5307685Y-1649996D01*
X4830800Y-760996D02*
G01*
X5430799Y-760996D01*
X5430799Y-831880D02*
G01*
X5430799Y-760996D01*
X5430799Y-1051882D02*
G01*
X5430799Y-948110D01*
X5430799Y-1271882D02*
G01*
X5430799Y-1168112D01*
X5430799Y-1591881D02*
G01*
X5430799Y-1388112D01*
X5430799Y-1769996D02*
G01*
X5430799Y-1708111D01*
X4830800Y-831880D02*
G01*
X4830800Y-760996D01*
X4830800Y-1051882D02*
G01*
X4830800Y-948110D01*
X4830800Y-1271882D02*
G01*
X4830800Y-1168112D01*
X4830800Y-1591881D02*
G01*
X4830800Y-1388112D01*
X4830800Y-1769996D02*
G01*
X4830800Y-1708111D01*
X4830800Y-1769996D02*
G01*
X5430799Y-1769996D01*
X12674600Y-1700796D02*
G01*
X12674600Y-1599196D01*
X12814300Y-1599196D01*
X12814300Y-1700796D01*
X12674600Y-1700796D01*
X12573914Y-1649996D02*
G01*
X12927685Y-1649996D01*
X12450800Y-760996D02*
G01*
X13050799Y-760996D01*
X13050799Y-831880D02*
G01*
X13050799Y-760996D01*
X13050799Y-1051882D02*
G01*
X13050799Y-948110D01*
X13050799Y-1271882D02*
G01*
X13050799Y-1168112D01*
X13050799Y-1591881D02*
G01*
X13050799Y-1388112D01*
X13050799Y-1769996D02*
G01*
X13050799Y-1708111D01*
X12450800Y-831880D02*
G01*
X12450800Y-760996D01*
X12450800Y-1051882D02*
G01*
X12450800Y-948110D01*
X12450800Y-1271882D02*
G01*
X12450800Y-1168112D01*
X12450800Y-1591881D02*
G01*
X12450800Y-1388112D01*
X12450800Y-1769996D02*
G01*
X12450800Y-1708111D01*
X12450800Y-1769996D02*
G01*
X13050799Y-1769996D01*
D10*
X1300439Y-1219380D02*
G01*
X1300439Y-1367878D01*
X1518960Y-1367878D02*
G01*
X1518960Y-1219380D01*
X1503720Y-1204140D02*
G01*
X1315679Y-1204140D01*
X1300439Y-1701619D02*
G01*
X1300439Y-1553121D01*
X1518960Y-1553121D02*
G01*
X1518960Y-1701619D01*
X1503720Y-1716859D02*
G01*
X1315679Y-1716859D01*
X1579839Y-1219380D02*
G01*
X1579839Y-1367878D01*
X1798360Y-1367878D02*
G01*
X1798360Y-1219380D01*
X1783120Y-1204140D02*
G01*
X1595079Y-1204140D01*
X1579839Y-1701619D02*
G01*
X1579839Y-1553121D01*
X1798360Y-1553121D02*
G01*
X1798360Y-1701619D01*
X1783120Y-1716859D02*
G01*
X1595079Y-1716859D01*
D12*
X2039457Y-1729818D02*
G01*
X2039457Y-1809816D01*
X2039503Y-1673773D02*
G01*
X2039503Y-1593776D01*
X1897489Y-1729818D02*
G01*
X1897489Y-1809816D01*
X1897537Y-1673773D02*
G01*
X1897537Y-1593776D01*
X2008474Y-1840791D02*
G01*
X1928469Y-1840791D01*
X1928522Y-1562798D02*
G01*
X2008525Y-1562798D01*
X2562781Y-2331557D02*
G01*
X2482783Y-2331557D01*
X2618826Y-2331603D02*
G01*
X2698823Y-2331603D01*
X2562781Y-2189589D02*
G01*
X2482783Y-2189589D01*
X2618826Y-2189637D02*
G01*
X2698823Y-2189637D01*
X2451808Y-2300574D02*
G01*
X2451808Y-2220569D01*
X2729801Y-2220622D02*
G01*
X2729801Y-2300625D01*
D13*
X2743814Y-1257300D02*
G01*
X2755900Y-1257300D01*
X2755900Y-1485900D01*
X2630985Y-1485900D02*
G01*
X2628900Y-1485900D01*
X2628900Y-1257300D01*
X2640985Y-1257300D01*
X2755900Y-1485900D02*
G01*
X2753812Y-1485900D01*
D11*
X1242720Y-1409700D02*
G01*
X865479Y-1409700D01*
D10*
X1242720Y-1236929D02*
G01*
X1242720Y-1785670D01*
X865479Y-1236929D02*
G01*
X865479Y-1785670D01*
X1242720Y-1785670D02*
G01*
X1184038Y-1785670D01*
X865479Y-1785670D02*
G01*
X924161Y-1785670D01*
X2087321Y-1348760D02*
G01*
X2183208Y-1348760D01*
X2183208Y-1216639D01*
X2087321Y-1216639D01*
X2002078Y-1348760D02*
G01*
X1906191Y-1348760D01*
X1906191Y-1216639D01*
X2002078Y-1216639D01*
X2332278Y-1216639D02*
G01*
X2236391Y-1216639D01*
X2236391Y-1348760D01*
X2332278Y-1348760D01*
X2417521Y-1216639D02*
G01*
X2513408Y-1216639D01*
X2513408Y-1348760D01*
X2417521Y-1348760D01*
X2252421Y-2110760D02*
G01*
X2348308Y-2110760D01*
X2348308Y-1978639D01*
X2252421Y-1978639D01*
X2167178Y-2110760D02*
G01*
X2071291Y-2110760D01*
X2071291Y-1978639D01*
X2167178Y-1978639D01*
X2252421Y-2326660D02*
G01*
X2348308Y-2326660D01*
X2348308Y-2194539D01*
X2252421Y-2194539D01*
X2167178Y-2326660D02*
G01*
X2071291Y-2326660D01*
X2071291Y-2194539D01*
X2167178Y-2194539D01*
X2620721Y-2110760D02*
G01*
X2716608Y-2110760D01*
X2716608Y-1978639D01*
X2620721Y-1978639D01*
X2535478Y-2110760D02*
G01*
X2439591Y-2110760D01*
X2439591Y-1978639D01*
X2535478Y-1978639D01*
X2476720Y-1776707D02*
G01*
X2476720Y-1601467D01*
X2171479Y-1776707D02*
G01*
X2171479Y-1601467D01*
X4091759Y-1361820D02*
G01*
X4091759Y-1076579D01*
X4076519Y-1061338D02*
G01*
X3913019Y-1061338D01*
X3913019Y-1377061D02*
G01*
X4076519Y-1377061D01*
X3594280Y-1061338D02*
G01*
X3757780Y-1061338D01*
X3757780Y-1377061D02*
G01*
X3594280Y-1377061D01*
X3579040Y-1361820D02*
G01*
X3579040Y-1076579D01*
X4091759Y-1857120D02*
G01*
X4091759Y-1571879D01*
X4076519Y-1556638D02*
G01*
X3913019Y-1556638D01*
X3913019Y-1872361D02*
G01*
X4076519Y-1872361D01*
X3594280Y-1556638D02*
G01*
X3757780Y-1556638D01*
X3757780Y-1872361D02*
G01*
X3594280Y-1872361D01*
X3579040Y-1857120D02*
G01*
X3579040Y-1571879D01*
D12*
G75*
G01*
X6546977Y-2038223D02*
G02*
X6642100Y-1943100I95123J0D01*
G75*
G01*
X6642100Y-1943100D02*
G02*
X6731000Y-2032000I0J-88900D01*
G75*
G01*
X8070977Y-2025523D02*
G02*
X8166100Y-1930400I95123J0D01*
G75*
G01*
X8166100Y-1930400D02*
G02*
X8255000Y-2019300I0J-88900D01*
G75*
G01*
X9620377Y-2025523D02*
G02*
X9715500Y-1930400I95123J0D01*
G75*
G01*
X9715500Y-1930400D02*
G02*
X9804400Y-2019300I0J-88900D01*
G75*
G01*
X11118977Y-2012823D02*
G02*
X11214100Y-1917700I95123J0D01*
G75*
G01*
X11214100Y-1917700D02*
G02*
X11303000Y-2006600I0J-88900D01*
G75*
G01*
X6749923Y-5073777D02*
G02*
X6654800Y-5168900I-95123J0D01*
G75*
G01*
X6654800Y-5168900D02*
G02*
X6565900Y-5080000I0J88900D01*
G75*
G01*
X8286623Y-5073777D02*
G02*
X8191500Y-5168900I-95123J0D01*
G75*
G01*
X8191500Y-5168900D02*
G02*
X8102600Y-5080000I0J88900D01*
G75*
G01*
X9810623Y-5073777D02*
G02*
X9715500Y-5168900I-95123J0D01*
G75*
G01*
X9715500Y-5168900D02*
G02*
X9626600Y-5080000I0J88900D01*
G75*
G01*
X11309223Y-5073777D02*
G02*
X11214100Y-5168900I-95123J0D01*
G75*
G01*
X11214100Y-5168900D02*
G02*
X11125200Y-5080000I0J88900D01*
G75*
G01*
X12642977Y-2025523D02*
G02*
X12738100Y-1930400I95123J0D01*
G75*
G01*
X12738100Y-1930400D02*
G02*
X12827000Y-2019300I0J-88900D01*
G75*
G01*
X5035677Y-2038223D02*
G02*
X5130800Y-1943100I95123J0D01*
G75*
G01*
X5130800Y-1943100D02*
G02*
X5219700Y-2032000I0J-88900D01*
D10*
G75*
G01*
X3218561Y-266880D02*
G03*
X3203321Y-251640I-15240J0D01*
G75*
G01*
X2918079Y-251640D02*
G03*
X2902839Y-266880I0J-15240D01*
G75*
G01*
X3218561Y-749120D02*
G02*
X3203321Y-764360I-15240J0D01*
G75*
G01*
X2918079Y-764360D02*
G02*
X2902839Y-749120I0J15240D01*
G75*
G01*
X1518961Y-1219380D02*
G03*
X1503721Y-1204140I-15240J0D01*
G75*
G01*
X1315679Y-1204140D02*
G03*
X1300439Y-1219380I0J-15240D01*
G75*
G01*
X1518961Y-1701620D02*
G02*
X1503721Y-1716860I-15240J0D01*
G75*
G01*
X1315679Y-1716860D02*
G02*
X1300439Y-1701620I0J15240D01*
G75*
G01*
X1798361Y-1219380D02*
G03*
X1783121Y-1204140I-15240J0D01*
G75*
G01*
X1595079Y-1204140D02*
G03*
X1579839Y-1219380I0J-15240D01*
G75*
G01*
X1798361Y-1701620D02*
G02*
X1783121Y-1716860I-15240J0D01*
G75*
G01*
X1595079Y-1716860D02*
G02*
X1579839Y-1701620I0J15240D01*
D12*
G75*
G01*
X1897537Y-1593781D02*
G02*
X1928523Y-1562799I30983J0D01*
G75*
G01*
X2008520Y-1562799D02*
G02*
X2039503Y-1593781I0J-30982D01*
G75*
G01*
X2039457Y-1809811D02*
G02*
X2008475Y-1840791I-30982J3D01*
G75*
G01*
X1928477Y-1840791D02*
G02*
X1897489Y-1809811I-5J30983D01*
G75*
G01*
X2698819Y-2189637D02*
G02*
X2729801Y-2220623I0J-30983D01*
G75*
G01*
X2729801Y-2300620D02*
G02*
X2698819Y-2331603I-30982J0D01*
G75*
G01*
X2482789Y-2331557D02*
G02*
X2451809Y-2300575I3J30982D01*
G75*
G01*
X2451809Y-2220577D02*
G02*
X2482789Y-2189589I30983J5D01*
D10*
G75*
G01*
X4076520Y-1377061D02*
G03*
X4091760Y-1361821I0J15240D01*
G75*
G01*
X4091760Y-1076579D02*
G03*
X4076520Y-1061339I-15240J0D01*
G75*
G01*
X3594280Y-1377061D02*
G02*
X3579040Y-1361821I0J15240D01*
G75*
G01*
X3579040Y-1076579D02*
G02*
X3594280Y-1061339I15240J0D01*
G75*
G01*
X4076520Y-1872361D02*
G03*
X4091760Y-1857121I0J15240D01*
G75*
G01*
X4091760Y-1571879D02*
G03*
X4076520Y-1556639I-15240J0D01*
G75*
G01*
X3594280Y-1872361D02*
G02*
X3579040Y-1857121I0J15240D01*
G75*
G01*
X3579040Y-1571879D02*
G02*
X3594280Y-1556639I15240J0D01*
D14*
G75*
G01
X4929403Y-2543099D02*
G03X4929403Y-2543099I-7493J0D01*
G75*
G01
X6440703Y-2530399D02*
G03X6440703Y-2530399I-7493J0D01*
G75*
G01
X7964703Y-2517699D02*
G03X7964703Y-2517699I-7493J0D01*
G75*
G01
X9514103Y-2504999D02*
G03X9514103Y-2504999I-7493J0D01*
G75*
G01
X11000003Y-2504999D02*
G03X11000003Y-2504999I-7493J0D01*
G75*
G01
X6833083Y-4568901D02*
G03X6833083Y-4568901I-7493J0D01*
G75*
G01
X8382483Y-4568901D02*
G03X8382483Y-4568901I-7493J0D01*
G75*
G01
X9931883Y-4594301D02*
G03X9931883Y-4594301I-7493J0D01*
G75*
G01
X11430483Y-4581601D02*
G03X11430483Y-4581601I-7493J0D01*
G75*
G01
X12549403Y-2517699D02*
G03X12549403Y-2517699I-7493J0D01*
D15*
G75*
G01
X2172259Y-1817853D02*
G03X2172259Y-1817853I-15011J0D01*
M02*
